<?xml version="1.0" encoding="utf-8"?>
<!-- Generator: Adobe Illustrator 16.0.3, SVG Export Plug-In . SVG Version: 6.00 Build 0)  -->
<!DOCTYPE svg PUBLIC "-//W3C//DTD SVG 1.1//EN" "http://www.w3.org/Graphics/SVG/1.1/DTD/svg11.dtd">
<svg version="1.1" id="Capa_1" xmlns="http://www.w3.org/2000/svg" xmlns:xlink="http://www.w3.org/1999/xlink" x="0px" y="0px"
	 width="230px" height="70px" viewBox="0 0 230 70" enable-background="new 0 0 230 70" xml:space="preserve">
<g>
	<path fill-rule="evenodd" clip-rule="evenodd" fill="#f5a800" d="M30.608,54.099c-0.636,0-0.995,0-1.353,0
		c-4.532-0.002-9.064,0.006-13.597-0.008c-2.49-0.01-4.667-0.812-6.5-2.535c-1.821-1.713-2.324-3.783-1.847-6.144
		c0.14-0.688,0.319-1.39,0.613-2.024c0.545-1.176,0.827-2.368,0.622-3.659c-0.029-0.179-0.051-0.392,0.018-0.549
		c0.875-1.979-0.042-3.907-0.168-5.854c-0.05-0.764-0.218-1.521-0.342-2.279c-0.077-0.458-0.046-0.97,0.406-1.125
		c1.311-0.451,1.789-1.643,2.475-2.623c1.304-1.864,2.816-3.662,3.711-5.714c2.125-4.867,5.796-8.728,8.391-13.273
		c0.167-0.293,0.384-0.57,0.498-0.883c0.852-2.352,2.608-3.801,4.815-4.83c1.206-0.562,2.4-1.154,3.514-1.888
		c1.215-0.8,2.462-0.377,2.596,1.039c0.088,0.937,0.593,1.331,1.25,1.729c1.798,1.09,3.603,2.169,5.399,3.262
		c0.38,0.23,0.749,0.463,1.211,0.26c0.38-0.168,0.655,0.051,0.942,0.226c4.861,2.959,9.719,5.923,14.583,8.879
		c0.824,0.5,1.276,1.253,1.766,2.063c1.127,1.864,1.012,3.865,1.025,5.886c0.003,0.655-0.204,0.84-0.846,0.826
		c-2.763-0.062-5.518-0.022-8.233,0.623c-0.606,0.145-0.93,0.412-1.026,0.989c-0.335,2.028-0.681,4.055-0.991,6.087
		c-0.084,0.548,0.276,0.66,0.763,0.594c2.463-0.332,4.942-0.461,7.423-0.57c0.745-0.033,1.49-0.033,2.232-0.083
		c0.479-0.032,0.671,0.13,0.658,0.619c-0.023,0.829-0.019,1.661,0.021,2.489c0.027,0.548-0.153,0.739-0.73,0.764
		c-1.984,0.088-3.966,0.226-5.947,0.368c-2.225,0.16-2.832,0.81-2.831,2.987c0.001,1.354,0.099,2.713-0.012,4.056
		c-0.083,1.015,0.31,1.155,1.193,1.136c2.483-0.05,4.967,0,7.45-0.023c0.601-0.007,0.886,0.095,0.887,0.79
		c0.001,0.708-0.236,0.865-0.914,0.862c-5.868-0.03-11.735-0.033-17.602-0.013c-0.67,0.002-0.952-0.121-0.863-0.856
		c0.208-1.739,0.373-3.482,0.694-5.207c0.246-1.327,1.049-2.112,2.337-2.455c0.12-0.033,0.239-0.066,0.36-0.093
		c2.351-0.533,2.338-0.535,2.729-2.913c0.078-0.471-0.063-0.661-0.51-0.769c-1.179-0.283-1.835-1.444-3-1.782
		c-0.304-0.088-0.259-0.467-0.254-0.737c0.023-1.26,0.063-2.52,0.091-3.779c0.006-0.295,0.079-0.59,0.341-0.718
		c1.396-0.68,2.519-2.011,4.356-1.648c0.893,0.176,0.945-0.734,1.205-1.272c0.283-0.591-0.357-0.629-0.646-0.794
		c-5.232-3.006-10.483-5.979-15.71-8.994c-0.653-0.376-0.958-0.314-1.364,0.333c-4.659,7.405-9.344,14.793-14.04,22.175
		c-0.333,0.522-0.298,0.907,0.029,1.414c2.547,3.966,5.072,7.945,7.592,11.927c0.555,0.876,1.296,1.442,2.322,1.704
		C28.894,52.371,29.524,53.309,30.608,54.099z M11.103,29.705c1.56,0.078,2.985,0.101,4.399,0.237
		c0.767,0.075,1.091-0.212,1.359-0.88c2.015-5.015,4.067-10.016,6.096-15.025c0.125-0.308,0.39-0.625,0.135-1.03
		c-0.411,0.297-0.581,0.737-0.832,1.11c-1.532,2.271-3.054,4.55-4.582,6.824c-0.205,0.305-0.374,0.702-0.746,0.792
		c-0.784,0.191-1.13,0.81-1.533,1.383c-0.442,0.63-0.882,1.262-1.292,1.913C13.147,26.556,11.975,27.949,11.103,29.705z
		 M51.669,15.539c-1.071-0.661-2.183-1.266-3.206-1.994c-2.557-1.821-5.459-3.075-7.796-5.312c-1.692-1.619-4.047-2.56-6.11-3.797
		c-0.026-0.016-0.098,0.042-0.175,0.077c0,1.188,0.045,2.386-0.018,3.579c-0.035,0.67,0.209,0.963,0.823,1.201
		c4.583,1.779,9.15,3.599,13.726,5.396C49.796,15.035,50.632,15.506,51.669,15.539z M11.457,36.616
		c0.834-0.433,1.574-0.812,2.309-1.198c0.27-0.142,0.554-0.246,0.671-0.589c0.258-0.756,0.542-1.503,0.837-2.245
		c0.142-0.358,0.037-0.527-0.335-0.549c-1.27-0.076-2.54-0.146-3.81-0.219c-0.335-0.02-0.445,0.159-0.396,0.458
		C10.967,33.691,11.205,35.107,11.457,36.616z M46.122,44.91c0-0.002,0-0.005,0-0.008c0.776,0,1.552,0.006,2.327-0.003
		c0.233-0.003,0.496,0.053,0.609-0.274c0.381-1.109-0.544-2.451-1.743-2.491c-0.621-0.021-1.241-0.016-1.862-0.019
		c-1.692-0.007-2.122,0.446-2.116,2.141c0,0.481,0.169,0.67,0.645,0.659C44.695,44.901,45.409,44.91,46.122,44.91z M47.801,26.265
		c-1.471,0.023-1.471,0.023-1.16,1.445c0.013,0.059,0.021,0.122,0.021,0.182c-0.005,1.531,0.022,3.07-0.236,4.58
		c-0.09,0.521-0.127,0.813,0.447,0.935c0.56,0.119,0.834-0.045,0.924-0.662c0.266-1.815,0.583-3.624,0.908-5.431
		C48.931,26.051,49.018,26.298,47.801,26.265z"/>
	<path fill-rule="evenodd" clip-rule="evenodd" fill="#FBFBFB" d="M125.086,40.618c0-1.099,0-2.197,0-3.297
		c-0.001-3.566-0.004-7.131-0.002-10.698c0.001-1.256,0.27-1.527,1.511-1.544c0.652-0.009,1.305,0.017,1.955-0.005
		c0.747-0.025,1.079,0.37,1.14,1.047c0.029,0.337,0.019,0.677,0.02,1.015c0.005,8.208,0.008,16.415,0.01,24.625
		c0,0.275,0,0.553-0.013,0.829c-0.053,1.101-0.313,1.356-1.404,1.376c-0.559,0.011-1.117,0.003-1.676,0.005
		c-1.527,0.004-1.754-0.156-2.176-1.573c-1.271-4.263-2.536-8.527-3.808-12.79c-0.226-0.755-0.467-1.504-0.869-2.232
		c0,0.945-0.031,1.891,0.004,2.835c0.156,4.088,0.086,8.177,0.107,12.265c0.008,1.191-0.283,1.478-1.461,1.497
		c-0.682,0.01-1.365,0.021-2.049,0.02c-0.791,0-1.201-0.414-1.248-1.184c-0.023-0.368-0.023-0.739-0.023-1.106
		c0.006-8.208,0.014-16.417,0.02-24.625c0-1.835,0.174-2.01,2.016-2.004c3.219,0.011,2.779-0.349,3.729,2.789
		c1.275,4.197,2.581,8.386,3.877,12.577c0.023,0.075,0.085,0.139,0.13,0.208C124.944,40.638,125.015,40.627,125.086,40.618z"/>
	<path fill-rule="evenodd" clip-rule="evenodd" fill="#FBFBFB" d="M80.897,39.49c-0.001-4.272-0.003-8.545,0-12.817
		c0.001-1.354,0.269-1.619,1.641-1.611c2.11,0.012,4.226-0.048,6.329,0.08c3.162,0.194,5.127,2.013,5.539,5.179
		c0.302,2.344,0.353,4.715-0.169,7.057c-0.242,1.084-0.761,2.017-1.646,2.706c-0.384,0.3-0.471,0.497-0.163,0.938
		c1.009,1.446,1.075,3.181,1.361,4.833c0.373,2.146,0.66,4.307,1.112,6.441c0.281,1.329-0.018,1.677-1.379,1.687
		c-0.621,0.005-1.241,0.019-1.862,0.006c-1.169-0.02-1.564-0.345-1.749-1.473c-0.444-2.695-0.869-5.395-1.313-8.089
		c-0.08-0.481-0.17-0.975-0.347-1.427c-0.294-0.757-1.478-1.189-2.21-0.871c-0.375,0.163-0.195,0.483-0.195,0.724
		c-0.015,3.135-0.007,6.27-0.013,9.404c-0.002,1.433-0.28,1.698-1.76,1.712c-0.589,0.006-1.18,0.009-1.769-0.002
		c-1.065-0.02-1.391-0.321-1.395-1.382c-0.014-3.258-0.009-6.517-0.011-9.774C80.897,41.703,80.898,40.598,80.897,39.49z
		 M85.84,33.447c-0.004,0-0.008,0-0.011,0c0,1.226-0.005,2.451,0.004,3.678c0.002,0.252-0.101,0.54,0.293,0.673
		c1.58,0.532,3.173-0.402,3.399-2.047c0.193-1.401,0.189-2.812,0.041-4.219c-0.181-1.718-1.751-2.727-3.423-2.236
		c-0.412,0.122-0.296,0.41-0.298,0.659C85.834,31.118,85.84,32.282,85.84,33.447z"/>
	<path fill-rule="evenodd" clip-rule="evenodd" fill="#f5a800" d="M149.785,39.672c0-2.612-0.028-5.225,0.01-7.838
		c0.028-2.017,0.449-3.941,2.041-5.364c2.402-2.148,5.239-2.296,8.112-1.307c2.59,0.892,3.616,3.031,3.778,5.62
		c0.062,0.98,0.043,1.966,0.047,2.949c0.002,0.829-0.441,1.249-1.269,1.26c-0.774,0.01-1.552,0.008-2.328-0.008
		c-1.067-0.022-1.342-0.309-1.374-1.402c-0.032-1.043,0.086-2.094-0.13-3.126c-0.257-1.214-1.053-1.72-2.242-1.48
		c-0.639,0.129-1.051,0.493-1.277,1.083c-0.202,0.525-0.256,1.074-0.258,1.63c-0.006,5.255-0.014,10.512-0.015,15.768
		c0,0.491,0.023,0.98,0.188,1.456c0.32,0.918,0.946,1.338,1.995,1.312c0.959-0.026,1.603-0.489,1.755-1.459
		c0.276-1.77,0.08-3.56,0.105-5.341c0.005-0.414-0.289-0.378-0.574-0.407c-1.076-0.112-1.32-0.389-1.342-1.461
		c-0.06-2.875,0.031-2.965,2.904-2.936c0.839,0.008,1.677,0.007,2.515,0.004c0.855-0.004,1.399,0.399,1.398,1.254
		c-0.003,3.009,0.259,6.031-0.108,9.026c-0.419,3.42-2.497,5.266-6.007,5.524c-0.647,0.048-1.307,0.046-1.953-0.009
		c-3.319-0.286-5.389-2.253-5.847-5.532c-0.214-1.529-0.146-3.068-0.154-4.604c-0.006-1.538-0.001-3.074-0.001-4.612
		C149.766,39.672,149.776,39.672,149.785,39.672z"/>
	<path fill-rule="evenodd" clip-rule="evenodd" fill="#f5a800" d="M173.813,25.039c0.682,0,1.364-0.017,2.045,0.003
		c0.823,0.024,1.31,0.42,1.447,1.262c1.039,6.363,2.089,12.723,3.141,19.083c0.396,2.392,0.813,4.781,1.208,7.174
		c0.169,1.02-0.167,1.447-1.209,1.489c-0.805,0.032-1.612,0.011-2.419-0.019c-0.872-0.032-1.354-0.492-1.464-1.364
		c-0.168-1.34-0.408-2.674-0.528-4.018c-0.06-0.654-0.326-0.814-0.933-0.788c-0.835,0.037-1.68,0.054-2.511-0.024
		c-0.793-0.074-1,0.271-1.069,0.976c-0.132,1.312-0.377,2.613-0.523,3.925c-0.102,0.909-0.617,1.299-1.478,1.319
		c-0.745,0.02-1.489,0.018-2.233,0.001c-1.127-0.024-1.493-0.475-1.31-1.582c0.672-4.058,1.348-8.116,2.017-12.173
		c0.72-4.363,1.422-8.728,2.152-13.089c0.353-2.112,0.457-2.176,2.642-2.171c0.342,0,0.684,0,1.025,0
		C173.813,25.042,173.813,25.04,173.813,25.039z M173.886,30.714c-0.291,0.539-0.275,0.91-0.32,1.268
		c-0.394,3.166-0.756,6.334-1.193,9.493c-0.289,2.094-0.337,2.089,1.8,2.086c1.168-0.002,1.202-0.01,0.986-1.195
		c-0.365-2.015-0.5-4.061-0.773-6.086C174.146,34.518,173.973,32.721,173.886,30.714z"/>
	<path fill-rule="evenodd" clip-rule="evenodd" fill="#FBFBFB" d="M104.942,25.08c0.652,0,1.303-0.002,1.954,0.001
		c0.878,0.005,1.344,0.413,1.484,1.305c1.098,6.94,2.221,13.878,3.337,20.814c0.283,1.758,0.568,3.516,0.858,5.271
		c0.185,1.125-0.102,1.489-1.232,1.51c-0.712,0.014-1.427,0.017-2.141,0c-1.032-0.023-1.402-0.363-1.566-1.432
		c-0.203-1.335-0.402-2.671-0.58-4.011c-0.055-0.413-0.145-0.685-0.663-0.665c-1.054,0.036-2.11,0.039-3.164,0.019
		c-0.492-0.01-0.616,0.21-0.667,0.653c-0.163,1.371-0.395,2.734-0.561,4.105c-0.108,0.884-0.588,1.32-1.463,1.346
		c-0.744,0.021-1.489,0.043-2.232,0.023c-1.107-0.031-1.397-0.366-1.229-1.434c0.725-4.607,1.453-9.216,2.198-13.818
		c0.644-3.97,1.308-7.935,1.971-11.899c0.268-1.607,0.539-1.819,2.204-1.805c0.496,0.004,0.992,0.001,1.489,0.001
		C104.942,25.07,104.942,25.075,104.942,25.08z M104.907,30.914c-0.248,0.281-0.243,0.591-0.281,0.889
		c-0.397,3.134-0.782,6.269-1.192,9.401c-0.311,2.36-0.325,2.324,2.042,2.367c0.758,0.016,0.863-0.229,0.784-0.89
		C105.792,38.784,105.36,34.882,104.907,30.914z"/>
	<path fill-rule="evenodd" clip-rule="evenodd" fill="#f5a800" d="M194.807,34.2c-2.378,0.105-2.407,0.074-2.449-2.24
		c-0.009-0.521-0.028-1.045-0.095-1.562c-0.104-0.83-0.437-1.48-1.423-1.519c-0.92-0.035-1.541,0.418-1.853,1.363
		c-0.767,2.328-0.037,4.69,1.913,6.184c1.078,0.826,2.159,1.651,3.245,2.467c1.96,1.474,3.087,3.417,3.321,5.843
		c0.229,2.368,0.347,4.728-0.973,6.892c-0.945,1.55-2.32,2.421-4.115,2.699c-0.865,0.136-1.73,0.167-2.598,0.117
		c-3.503-0.196-5.518-2.053-6.025-5.494c-0.164-1.104-0.103-2.207-0.075-3.311c0.021-0.852,0.47-1.313,1.331-1.331
		c0.868-0.018,1.737-0.013,2.605,0.002c0.72,0.014,1.062,0.387,1.059,1.109c-0.004,1.042-0.052,2.09,0.147,3.126
		c0.215,1.109,0.856,1.694,1.871,1.68c0.94-0.012,1.497-0.533,1.69-1.626c0.431-2.446-0.073-4.585-2.129-6.193
		c-1.021-0.799-2.075-1.56-3.09-2.366c-3.392-2.693-4.583-8.181-2.633-12.056c1.267-2.519,4.101-3.798,7.354-3.319
		c3.217,0.474,5.076,2.421,5.35,5.644c0.067,0.794,0.09,1.596,0.076,2.393c-0.021,1.223-0.314,1.481-1.576,1.499
		C195.428,34.204,195.117,34.2,194.807,34.2z"/>
	<path fill-rule="evenodd" clip-rule="evenodd" fill="#FBFBFB" d="M132.972,47.216c-0.004-2.898-0.004-2.898,2.735-2.907
		c2.229-0.008,2.228-0.008,2.24,2.165c0.004,0.798-0.026,1.596,0.202,2.381c0.254,0.879,0.813,1.356,1.74,1.367
		c0.897,0.012,1.502-0.438,1.674-1.296c0.473-2.364,0.394-4.612-1.692-6.308c-0.984-0.798-1.971-1.595-2.997-2.339
		c-3.999-2.906-4.507-7.107-3.205-11.767c0.5-1.787,1.877-2.942,3.675-3.501c1.796-0.56,3.613-0.534,5.401,0.054
		c2.521,0.829,3.475,2.812,3.757,5.213c0.109,0.94,0.047,1.902,0.04,2.855c-0.006,0.678-0.414,1.011-1.063,1.029
		c-0.93,0.025-1.862,0.025-2.793,0.006c-0.667-0.014-1.013-0.377-1.032-1.049c-0.025-0.92,0.054-1.845-0.115-2.76
		c-0.151-0.825-0.487-1.467-1.448-1.525c-0.86-0.053-1.474,0.403-1.781,1.313c-0.795,2.334-0.092,4.669,1.868,6.192
		c1.171,0.909,2.372,1.782,3.519,2.72c1.89,1.546,2.889,3.554,3.073,5.978c0.121,1.574,0.107,3.134-0.223,4.679
		c-0.548,2.544-2.463,4.267-5.058,4.593c-1.146,0.146-2.285,0.164-3.433-0.006c-2.701-0.402-4.537-2.214-4.927-4.902
		C133.015,48.606,132.94,47.812,132.972,47.216z"/>
	<path fill-rule="evenodd" clip-rule="evenodd" fill="#f5a800" d="M200.696,39.525c0-4.24-0.005-8.481,0.002-12.72
		c0.003-1.544,0.215-1.746,1.794-1.743c2.016,0.004,4.039-0.078,6.046,0.059c3.27,0.224,5.253,1.98,5.693,5.167
		c0.374,2.707,0.442,5.47-0.029,8.171c-0.533,3.049-2.499,4.688-5.608,4.972c-0.647,0.059-1.306,0.126-1.95,0.073
		c-0.774-0.06-0.925,0.264-0.916,0.953c0.034,2.643,0.016,5.285,0.014,7.927c-0.002,1.284-0.343,1.633-1.646,1.666
		c-0.651,0.016-1.304,0.014-1.955,0.004c-1.085-0.017-1.411-0.287-1.415-1.35c-0.02-4.392-0.008-8.786-0.008-13.18
		C200.71,39.525,200.703,39.525,200.696,39.525z M205.709,34.123c-0.006,0-0.011,0-0.015,0c0,1.439,0.004,2.88-0.004,4.321
		c-0.002,0.37,0.024,0.661,0.528,0.652c2.266-0.04,3.104-0.546,3.219-2.727c0.077-1.436,0.061-2.881-0.001-4.319
		c-0.086-2.05-0.89-2.742-2.984-2.775c-0.55-0.009-0.771,0.126-0.757,0.711C205.732,31.363,205.709,32.743,205.709,34.123z"/>
	<path fill-rule="evenodd" clip-rule="evenodd" fill="#FBFBFB" d="M68.862,41.411c0-3.69-0.022-7.379,0.02-11.068
		c0.009-0.718-0.204-0.885-0.879-0.836c-0.802,0.059-1.614,0.027-2.42,0.001c-0.693-0.022-1.095-0.367-1.083-1.1
		c0.013-0.738,0.017-1.476,0.019-2.213c0.003-0.769,0.408-1.115,1.163-1.115c3.788,0,7.575,0.002,11.363-0.004
		c0.802-0.001,1.214,0.339,1.189,1.167c-0.021,0.707-0.005,1.415,0.004,2.122c0.009,0.762-0.37,1.135-1.133,1.138
		c-0.808,0.002-1.62,0.059-2.421-0.006c-0.709-0.059-0.858,0.177-0.856,0.858c0.025,7.102,0.012,14.203,0.008,21.306
		c-0.001,2.261-0.063,2.322-2.356,2.31c-2.605-0.015-2.605-0.015-2.605-2.597c0-3.322,0-6.641,0-9.961
		C68.871,41.411,68.867,41.411,68.862,41.411z"/>
	<path fill-rule="evenodd" clip-rule="evenodd" fill="#f5a800" d="M50.963,47.696c2.918,0.001,5.838,0.03,8.755-0.021
		c0.772-0.013,0.94,0.235,0.918,0.938c-0.047,1.537-0.044,3.075-0.001,4.612c0.018,0.668-0.154,0.908-0.875,0.895
		c-2.453-0.048-4.906,0.008-7.359-0.042c-0.745-0.015-0.926,0.214-0.922,0.929c0.012,2.111-0.805,2.852-2.942,2.82
		c-1.024-0.015-2.048,0-3.073-0.001c-1.373-0.003-2.12-0.734-2.15-2.102c-0.006-0.309-0.025-0.617,0-0.923
		c0.065-0.788-0.14-1.356-0.885-1.843c-1.006-0.655-1.267-1.777-1.302-2.922c-0.073-2.332-0.067-2.337,2.292-2.341
		C45.934,47.691,48.448,47.694,50.963,47.696z"/>
	<path fill-rule="evenodd" clip-rule="evenodd" fill="#f5a800" d="M217.421,39.621c0-4.059-0.001-8.116,0.004-12.173
		c0-0.46,0.033-0.922,0.05-1.382c0.025-0.64,0.405-0.95,1.009-0.975c0.931-0.038,1.862-0.05,2.793-0.045
		c0.752,0.003,1.136,0.425,1.18,1.15c0.025,0.428,0.017,0.86,0.017,1.29c0.001,8.179,0.001,16.357,0.001,24.534
		c0,1.819-0.193,2-2.023,2.02c-3.374,0.035-2.975-0.099-2.979-2.982c-0.006-3.813-0.002-7.625-0.002-11.437
		C217.454,39.621,217.438,39.621,217.421,39.621z"/>
	<path fill-rule="evenodd" clip-rule="evenodd" fill="#f5a800" d="M46.126,66.18c0-1.149,0.015-2.302-0.008-3.452
		c-0.009-0.474,0.077-0.732,0.651-0.727c0.529,0.007,0.684,0.17,0.677,0.69c-0.03,1.994-0.001,3.988-0.029,5.981
		c-0.004,0.302,0.269,0.786-0.35,0.879c-0.543,0.08-0.925-0.038-1.156-0.622c-0.371-0.94-0.833-1.847-1.26-2.764
		c-0.149-0.318-0.312-0.633-0.657-0.903c0,1.204-0.01,2.408,0.004,3.61c0.006,0.479-0.12,0.731-0.68,0.719
		c-0.469-0.009-0.658-0.116-0.65-0.617c0.035-2.055,0.022-4.107,0.055-6.163c0.004-0.28-0.184-0.74,0.384-0.769
		c0.456-0.021,0.915-0.107,1.16,0.475c0.521,1.243,1.09,2.467,1.638,3.698C45.979,66.204,46.053,66.192,46.126,66.18z"/>
	<path fill-rule="evenodd" clip-rule="evenodd" fill="#f5a800" d="M164.752,65.732c0-1.013,0.023-2.024-0.01-3.034
		c-0.016-0.513,0.142-0.727,0.679-0.685c0.523,0.04,1.052,0.023,1.578,0.018c0.913-0.01,1.635,0.366,2.008,1.175
		c0.388,0.841,0.46,1.744-0.216,2.504c-0.272,0.307-0.285,0.563-0.174,0.911c0.221,0.701,0.443,1.404,0.601,2.12
		c0.054,0.249,0.518,0.683-0.073,0.791c-0.442,0.081-1.079,0.313-1.258-0.499c-0.138-0.627-0.339-1.24-0.545-1.85
		c-0.118-0.354-0.141-0.847-0.732-0.764c-0.594,0.083-0.35,0.559-0.378,0.876c-0.05,0.548-0.075,1.104-0.047,1.653
		c0.029,0.592-0.306,0.609-0.758,0.616c-0.464,0.008-0.669-0.11-0.653-0.615c0.033-1.071,0.011-2.146,0.011-3.218
		C164.773,65.732,164.763,65.732,164.752,65.732z M166.118,64.28c0.226,0.316-0.292,1.036,0.618,1.022
		c0.766-0.011,1.117-0.376,1.097-1.136c-0.02-0.708-0.332-1.063-1.073-1.063C165.799,63.106,166.315,63.834,166.118,64.28z"/>
	<path fill-rule="evenodd" clip-rule="evenodd" fill="#f5a800" d="M82.546,65.749c-0.001-1.012,0.019-2.024-0.011-3.034
		c-0.013-0.503,0.128-0.729,0.675-0.688c0.554,0.04,1.114-0.002,1.671,0.013c1.83,0.048,2.818,1.74,1.823,3.312
		c-0.43,0.678-0.406,1.205-0.164,1.859c0.18,0.488,0.337,0.988,0.457,1.493c0.064,0.273,0.452,0.703-0.054,0.82
		c-0.443,0.104-1.082,0.283-1.287-0.48c-0.191-0.709-0.421-1.408-0.615-2.119c-0.099-0.358-0.238-0.623-0.684-0.588
		c-0.494,0.04-0.37,0.406-0.379,0.689c-0.022,0.642-0.061,1.288-0.022,1.929c0.036,0.604-0.303,0.614-0.751,0.62
		c-0.452,0.008-0.684-0.091-0.668-0.606C82.569,67.896,82.547,66.823,82.546,65.749z M83.906,64.226
		c0.325,0.26-0.408,1.096,0.615,1.063c0.689-0.021,1.112-0.329,1.092-1.074c-0.019-0.691-0.318-1.074-1.068-1.103
		C83.62,63.078,84.078,63.762,83.906,64.226z"/>
	<path fill-rule="evenodd" clip-rule="evenodd" fill="#f5a800" d="M23.954,67.929c-0.001,0.276-0.018,0.555,0.002,0.829
		c0.039,0.529-0.047,0.838-0.73,0.838c-0.693,0-0.731-0.32-0.729-0.849c0.011-1.996,0.008-3.993-0.03-5.988
		c-0.01-0.556,0.141-0.785,0.727-0.739c0.555,0.043,1.116,0.012,1.674,0.008c0.836-0.002,1.544,0.267,1.931,1.037
		c0.417,0.831,0.42,1.75-0.181,2.434c-0.471,0.534-0.386,0.962-0.208,1.491c0.196,0.582,0.412,1.159,0.577,1.75
		c0.074,0.268,0.445,0.696-0.092,0.805c-0.43,0.087-1.039,0.245-1.25-0.437c-0.21-0.673-0.384-1.359-0.603-2.03
		c-0.105-0.323-0.098-0.781-0.655-0.728c-0.591,0.06-0.409,0.504-0.43,0.842C23.943,67.436,23.955,67.683,23.954,67.929z
		 M23.904,64.24c0.191,0.367-0.352,1.107,0.567,1.073c0.659-0.024,1.136-0.318,1.143-1.061c0.007-0.705-0.332-1.082-1.061-1.119
		C23.568,63.083,24.092,63.844,23.904,64.24z"/>
	<path fill-rule="evenodd" clip-rule="evenodd" fill="#f5a800" d="M208.236,65.58c0.035-0.6-0.084-1.341,0.127-2.065
		c0.298-1.025,1.074-1.601,2.208-1.619c1.128-0.021,2.059,0.513,2.298,1.502c0.369,1.531,0.396,3.108,0.063,4.649
		c-0.244,1.122-1.042,1.602-2.29,1.599c-1.195-0.001-1.985-0.554-2.271-1.646c-0.099-0.38-0.107-0.786-0.13-1.182
		C208.222,66.45,208.236,66.081,208.236,65.58z M209.712,65.67c0.004,0,0.009,0,0.014,0c0,0.643-0.048,1.289,0.015,1.926
		c0.053,0.539,0.4,0.903,0.995,0.884c0.571-0.021,0.81-0.416,0.844-0.92c0.081-1.19,0.098-2.386,0.002-3.579
		c-0.045-0.564-0.317-0.933-0.937-0.908c-0.596,0.023-0.897,0.382-0.927,0.945C209.689,64.567,209.712,65.118,209.712,65.67z"/>
	<path fill-rule="evenodd" clip-rule="evenodd" fill="#f5a800" d="M77.22,65.813c-0.047,0.73,0.055,1.47-0.142,2.193
		c-0.295,1.095-1.131,1.704-2.339,1.685c-1.182-0.02-1.977-0.595-2.19-1.715c-0.271-1.422-0.229-2.867-0.015-4.292
		c0.17-1.135,0.934-1.715,2.132-1.774c1.121-0.056,2.031,0.529,2.376,1.535C77.311,64.219,77.205,65.02,77.22,65.813z
		 M75.733,65.837c0.002,0,0.003,0,0.004,0c0-0.613,0.031-1.227-0.009-1.836c-0.036-0.555-0.332-0.929-0.948-0.906
		c-0.553,0.021-0.874,0.361-0.887,0.878c-0.032,1.193-0.036,2.389,0.009,3.583c0.019,0.534,0.333,0.939,0.942,0.924
		c0.559-0.016,0.835-0.402,0.878-0.899C75.771,67.003,75.733,66.418,75.733,65.837z"/>
	<path fill-rule="evenodd" clip-rule="evenodd" fill="#f5a800" d="M36.782,69.527c-0.545,0.112-0.672-0.194-0.757-0.657
		c-0.088-0.478-0.091-1.045-0.909-0.999c-0.727,0.042-1.357,0.021-1.438,0.968c-0.029,0.344-0.064,0.729-0.624,0.74
		c-0.643,0.013-0.968-0.03-0.743-0.838c0.548-1.978,1.046-3.973,1.471-5.979c0.183-0.86,0.741-0.696,1.313-0.747
		c0.618-0.057,0.783,0.253,0.9,0.774c0.448,2.006,0.898,4.014,1.429,6.001C37.614,69.499,37.377,69.609,36.782,69.527z
		 M34.916,63.621c-0.04-0.002-0.081-0.002-0.121-0.004c-0.171,0.895-0.343,1.789-0.514,2.682c-0.096,0.504,0.266,0.454,0.569,0.449
		c0.293-0.005,0.666,0.073,0.564-0.448C35.242,65.409,35.082,64.514,34.916,63.621z"/>
	<path fill-rule="evenodd" clip-rule="evenodd" fill="#f5a800" d="M55.137,69.688c-1.291-0.001-2.199-0.682-2.339-1.782
		c-0.04-0.307-0.2-0.762,0.362-0.738c0.351,0.014,0.934-0.326,0.986,0.429c0.006,0.087,0.051,0.176,0.091,0.258
		c0.259,0.543,0.674,0.861,1.261,0.559c0.562-0.287,0.601-0.815,0.343-1.352c-0.261-0.543-0.795-0.748-1.301-0.979
		c-0.625-0.283-1.257-0.569-1.518-1.267c-0.3-0.802-0.255-1.593,0.346-2.241c0.616-0.664,1.418-0.821,2.301-0.62
		c0.886,0.2,1.392,0.764,1.567,1.621c0.047,0.23,0.242,0.625-0.21,0.645c-0.343,0.016-0.818,0.302-1.039-0.253
		c-0.034-0.084-0.035-0.181-0.065-0.269c-0.133-0.381-0.382-0.631-0.811-0.639c-0.331-0.006-0.635,0.097-0.746,0.431
		c-0.133,0.403-0.092,0.833,0.257,1.099c0.463,0.353,0.98,0.638,1.483,0.935c0.665,0.396,1.172,0.906,1.31,1.694
		C57.663,68.613,56.667,69.69,55.137,69.688z"/>
	<path fill-rule="evenodd" clip-rule="evenodd" fill="#f5a800" d="M147.923,69.661c-1.35,0.008-2.286-0.682-2.435-1.805
		c-0.033-0.263-0.132-0.641,0.293-0.624c0.369,0.018,0.875-0.3,1.099,0.293c0.064,0.171,0.085,0.363,0.177,0.518
		c0.277,0.475,0.72,0.604,1.194,0.369c0.443-0.218,0.558-0.633,0.39-1.103c-0.229-0.645-0.799-0.913-1.356-1.186
		c-0.646-0.318-1.28-0.653-1.579-1.358c-0.474-1.121,0.126-2.408,1.269-2.749c1.404-0.418,2.665,0.189,2.943,1.44
		c0.058,0.264,0.307,0.685-0.156,0.762c-0.351,0.058-0.906,0.305-1.052-0.369c-0.014-0.06-0.038-0.117-0.06-0.176
		c-0.136-0.394-0.416-0.603-0.837-0.604c-0.334,0-0.6,0.122-0.738,0.454c-0.163,0.391-0.048,0.734,0.212,1.021
		c0.447,0.489,1.083,0.706,1.639,1.036c0.639,0.377,1.134,0.837,1.208,1.636C150.272,68.686,149.415,69.65,147.923,69.661z"/>
	<path fill-rule="evenodd" clip-rule="evenodd" fill="#f5a800" d="M113.318,69.679c-1.361,0.001-2.178-0.672-2.297-1.902
		c-0.026-0.266-0.111-0.638,0.332-0.576c0.322,0.045,0.836-0.369,0.956,0.325c0.096,0.561,0.343,0.998,1.021,0.965
		c0.369-0.021,0.68-0.168,0.784-0.537c0.175-0.613-0.071-1.097-0.595-1.416c-0.498-0.307-1.053-0.524-1.545-0.839
		c-0.834-0.535-1.12-1.528-0.778-2.525c0.284-0.833,1.093-1.311,2.148-1.274c1.062,0.038,1.843,0.613,2.038,1.553
		c0.055,0.262,0.271,0.677-0.177,0.767c-0.364,0.07-0.893,0.291-1.035-0.387c-0.108-0.521-0.446-0.797-0.999-0.749
		c-0.382,0.032-0.627,0.248-0.693,0.628c-0.092,0.526,0.16,0.887,0.602,1.137c0.51,0.29,1.053,0.531,1.533,0.859
		c0.9,0.615,1.199,1.584,0.861,2.59C115.156,69.247,114.482,69.679,113.318,69.679z"/>
	<path fill-rule="evenodd" clip-rule="evenodd" fill="#f5a800" d="M220.563,69.662c-1.429-0.007-2.257-0.709-2.33-1.945
		c-0.018-0.311-0.026-0.601,0.384-0.54c0.327,0.05,0.832-0.335,0.943,0.363c0.063,0.395,0.068,0.899,0.661,0.951
		c0.412,0.035,0.816,0.019,1.072-0.383c0.229-0.36,0.116-0.709-0.063-1.045c-0.279-0.531-0.805-0.739-1.31-0.973
		c-0.685-0.321-1.322-0.69-1.565-1.474c-0.373-1.196,0.279-2.35,1.487-2.633c1.381-0.323,2.54,0.333,2.775,1.582
		c0.046,0.241,0.254,0.617-0.185,0.661c-0.341,0.033-0.826,0.293-1.023-0.282c-0.03-0.088-0.046-0.178-0.075-0.265
		c-0.146-0.434-0.464-0.654-0.91-0.648c-0.33,0.003-0.582,0.173-0.703,0.504c-0.158,0.434-0.024,0.784,0.284,1.088
		c0.428,0.42,1.007,0.594,1.516,0.88c0.65,0.365,1.139,0.831,1.286,1.595C223.093,68.563,222.13,69.67,220.563,69.662z"/>
	<path fill-rule="evenodd" clip-rule="evenodd" fill="#f5a800" d="M192.929,65.783c0,0.583-0.022,1.168,0.007,1.75
		c0.025,0.501,0.254,0.898,0.815,0.957c0.577,0.06,0.804-0.315,0.978-0.791c0.102-0.283-0.102-0.705,0.394-0.833
		c0.793-0.204,1.084,0.04,0.983,0.873c-0.139,1.155-0.837,1.823-2.003,1.923c-1.26,0.105-2.173-0.389-2.44-1.502
		c-0.387-1.601-0.35-3.24,0.022-4.834c0.25-1.071,1.386-1.604,2.605-1.396c1.103,0.187,1.824,1.088,1.814,2.23
		c-0.003,0.321-0.051,0.573-0.436,0.53c-0.321-0.035-0.792,0.232-0.886-0.361c-0.024-0.152-0.04-0.307-0.073-0.456
		c-0.114-0.506-0.396-0.845-0.963-0.794c-0.567,0.05-0.789,0.449-0.812,0.954C192.909,64.616,192.93,65.2,192.929,65.783z"/>
	<path fill-rule="evenodd" clip-rule="evenodd" fill="#f5a800" d="M155.569,65.772c-0.002-1.044,0.006-2.088-0.005-3.132
		c-0.005-0.389,0.057-0.64,0.551-0.621c0.898,0.034,1.8,0.032,2.698,0.006c0.491-0.015,0.546,0.236,0.558,0.627
		c0.011,0.414-0.178,0.542-0.559,0.521c-0.31-0.014-0.623,0.024-0.931-0.006c-0.671-0.062-0.936,0.2-0.951,0.887
		c-0.017,0.706,0.201,1.029,0.946,0.954c0.302-0.031,0.656-0.055,0.908,0.069c0.271,0.136,0.147,0.5,0.131,0.768
		c-0.021,0.366-0.32,0.296-0.559,0.315c-1.537,0.12-1.519,0.122-1.414,1.633c0.032,0.461,0.218,0.575,0.629,0.555
		c0.434-0.022,0.869,0.006,1.304-0.016c0.428-0.021,0.696,0.039,0.699,0.579c0.003,0.533-0.19,0.698-0.707,0.677
		c-0.867-0.033-1.736-0.048-2.604-0.011c-0.603,0.026-0.723-0.232-0.705-0.767C155.596,67.8,155.57,66.785,155.569,65.772z"/>
	<path fill-rule="evenodd" clip-rule="evenodd" fill="#f5a800" d="M64.381,62.029c2.259,0.016,3.226,0.952,2.941,2.854
		c-0.176,1.181-0.89,1.833-2.267,1.835c-0.781,0.001-0.965,0.28-0.882,0.958c0.042,0.333-0.041,0.686,0.027,1.01
		c0.168,0.814-0.523,0.822-0.934,0.873c-0.653,0.082-0.458-0.513-0.461-0.864c-0.021-1.84,0.024-3.682-0.041-5.522
		c-0.031-0.884,0.167-1.35,1.153-1.148C64.066,62.054,64.227,62.027,64.381,62.029z M64.217,64.277
		c-0.012,1.292-0.012,1.292,0.544,1.314c0.778,0.031,1.119-0.334,1.123-1.206c0.003-0.725-0.202-1.266-1.083-1.253
		C63.757,63.149,64.452,63.965,64.217,64.277z"/>
	<path fill-rule="evenodd" clip-rule="evenodd" fill="#f5a800" d="M176.789,67.71c0.401-1.795,0.741-3.361,1.11-4.919
		c0.069-0.296,0.03-0.679,0.513-0.767c0.86-0.162,1.074,0.032,0.868,0.873c-0.491,1.993-1.005,3.979-1.455,5.981
		c-0.146,0.646-0.51,0.712-1.06,0.71c-0.52-0.002-0.845-0.069-0.982-0.671c-0.459-2.031-0.996-4.045-1.465-6.074
		c-0.059-0.252-0.489-0.771,0.241-0.816c0.495-0.029,1.054-0.185,1.197,0.613C176.049,64.263,176.409,65.872,176.789,67.71z"/>
	<path fill-rule="evenodd" clip-rule="evenodd" fill="#f5a800" d="M102.012,65.71c0-0.95,0.033-1.902-0.012-2.85
		c-0.028-0.612,0.117-0.902,0.807-0.849c0.769,0.06,1.546,0.036,2.319,0.013c0.442-0.016,0.689,0.056,0.677,0.582
		c-0.011,0.472-0.22,0.574-0.627,0.541c-0.246-0.018-0.499,0.031-0.742-0.001c-0.755-0.104-1.021,0.165-1.008,0.949
		c0.012,0.718,0.206,0.987,0.943,0.93c0.327-0.027,0.767-0.222,1.006,0.188c0.299,0.509-0.031,0.95-0.695,0.97
		c-0.614,0.018-1.324-0.215-1.26,0.884c0.088,1.502-0.076,1.239,1.313,1.269c0.186,0.005,0.373,0.017,0.557,0
		c0.439-0.038,0.691,0.059,0.68,0.588c-0.009,0.47-0.139,0.659-0.635,0.642c-0.896-0.027-1.795-0.022-2.692,0.007
		c-0.488,0.015-0.646-0.168-0.635-0.644c0.029-1.072,0.009-2.146,0.009-3.219C102.016,65.71,102.014,65.71,102.012,65.71z"/>
	<path fill-rule="evenodd" clip-rule="evenodd" fill="#f5a800" d="M127.932,62.154c1.134-0.392,1.602,0.055,1.813,1.011
		c0.137,0.614,0.407,1.199,0.662,1.919c0.575-0.817,0.711-1.648,1.04-2.396c0.107-0.236,0.111-0.588,0.456-0.629
		c0.333-0.04,0.745-0.153,0.987,0.073c0.201,0.189-0.06,0.513-0.151,0.764c-0.17,0.462-0.333,0.93-0.555,1.366
		c-0.727,1.431-1.123,2.923-0.94,4.533c0.066,0.591-0.141,0.81-0.773,0.799c-0.586-0.01-0.788-0.211-0.712-0.756
		c0.244-1.764-0.443-3.314-1.112-4.874C128.392,63.374,128.173,62.77,127.932,62.154z"/>
	<path fill-rule="evenodd" clip-rule="evenodd" fill="#f5a800" d="M14.271,66.36c0-0.796-0.039-1.597,0.012-2.391
		c0.041-0.642-0.178-0.895-0.833-0.822c-0.406,0.045-0.791,0.059-0.784-0.576c0.007-0.665,0.436-0.54,0.817-0.542
		c1.021-0.005,2.043,0.012,3.064-0.002c0.422-0.005,0.7,0.032,0.686,0.579c-0.013,0.479-0.24,0.594-0.633,0.535
		c-0.78-0.115-0.911,0.27-0.892,0.948c0.044,1.593-0.008,3.187,0.027,4.78c0.013,0.586-0.213,0.713-0.757,0.719
		c-0.584,0.008-0.752-0.195-0.726-0.746c0.04-0.827,0.01-1.655,0.01-2.482C14.265,66.36,14.269,66.36,14.271,66.36z"/>
	<path fill-rule="evenodd" clip-rule="evenodd" fill="#f5a800" d="M95.122,66.372c0,0.859-0.034,1.72,0.011,2.575
		c0.03,0.588-0.274,0.629-0.738,0.637c-0.493,0.007-0.722-0.105-0.712-0.665c0.031-1.685-0.016-3.372,0.014-5.059
		c0.01-0.563-0.163-0.782-0.735-0.729c-0.392,0.036-0.809,0.102-0.809-0.551c-0.001-0.652,0.417-0.556,0.809-0.556
		c1.023-0.002,2.044,0.016,3.065-0.002c0.434-0.008,0.706,0.042,0.687,0.581c-0.016,0.469-0.237,0.606-0.636,0.53
		c-0.898-0.169-1.036,0.279-0.972,1.031c0.061,0.731,0.013,1.472,0.013,2.207C95.119,66.372,95.12,66.372,95.122,66.372z"/>
	<path fill-rule="evenodd" clip-rule="evenodd" fill="#f5a800" d="M184.616,65.872c0-1.045,0.031-2.093-0.013-3.137
		c-0.023-0.59,0.206-0.722,0.759-0.717c0.518,0.006,0.703,0.142,0.697,0.676c-0.025,2.091-0.029,4.183,0.004,6.272
		c0.01,0.612-0.319,0.601-0.757,0.619c-0.508,0.021-0.728-0.12-0.705-0.671c0.039-1.013,0.011-2.028,0.011-3.043
		C184.613,65.872,184.614,65.872,184.616,65.872z"/>
	<path fill-rule="evenodd" clip-rule="evenodd" fill="#f5a800" d="M202.845,65.82c0,1.043-0.019,2.086,0.009,3.129
		c0.012,0.475-0.142,0.66-0.636,0.638c-0.442-0.021-0.767-0.017-0.759-0.621c0.029-2.118,0.024-4.234-0.004-6.352
		c-0.007-0.54,0.253-0.587,0.681-0.58c0.407,0.006,0.72,0.009,0.702,0.564c-0.031,1.072-0.009,2.148-0.009,3.222
		C202.835,65.82,202.84,65.82,202.845,65.82z"/>
	<path fill-rule="evenodd" clip-rule="evenodd" fill="#f5a800" d="M56.646,38.219c1.115,0,2.229-0.001,3.345,0.001
		c0.302,0,0.635-0.073,0.638,0.423c0.002,0.469-0.29,0.457-0.616,0.458c-2.261,0-4.522,0.004-6.783,0.01
		c-0.33,0-0.613-0.015-0.637-0.462c-0.027-0.51,0.317-0.427,0.615-0.429C54.354,38.217,55.5,38.218,56.646,38.219z"/>
	<path fill-rule="evenodd" clip-rule="evenodd" fill="#f5a800" d="M56.645,42.81c1.113,0,2.225,0,3.338,0
		c0.307,0,0.639-0.062,0.625,0.431c-0.014,0.473-0.344,0.428-0.65,0.43c-2.226,0.006-4.452,0.012-6.678,0.011
		c-0.29,0-0.637,0.08-0.658-0.411c-0.023-0.554,0.357-0.465,0.684-0.466c1.113-0.005,2.225-0.002,3.339-0.002
		C56.645,42.805,56.645,42.807,56.645,42.81z"/>
	<path fill-rule="evenodd" clip-rule="evenodd" fill="#f5a800" d="M56.674,40.42c1.113,0,2.226-0.002,3.338,0.001
		c0.302,0.001,0.642-0.068,0.636,0.423c-0.006,0.479-0.343,0.434-0.645,0.432c-2.256-0.009-4.513-0.022-6.769-0.039
		c-0.261-0.003-0.587,0.069-0.572-0.381c0.015-0.412,0.296-0.397,0.582-0.397c1.144,0,2.287,0,3.431,0
		C56.674,40.445,56.674,40.433,56.674,40.42z"/>
</g>
</svg>
