<?xml version="1.0" encoding="utf-8"?>
<!-- Generator: Adobe Illustrator 16.0.3, SVG Export Plug-In . SVG Version: 6.00 Build 0)  -->
<!DOCTYPE svg PUBLIC "-//W3C//DTD SVG 1.1//EN" "http://www.w3.org/Graphics/SVG/1.1/DTD/svg11.dtd">
<svg version="1.1" id="Capa_1" xmlns="http://www.w3.org/2000/svg" xmlns:xlink="http://www.w3.org/1999/xlink" x="0px" y="0px"
	 width="970.193px" height="477.333px" viewBox="0 0 970.193 477.333" enable-background="new 0 0 970.193 477.333"
	 xml:space="preserve">
<polygon fill="#FFFFFF" points="13.716,179.962 13.557,180.192 13.804,180.228 "/>
<polygon points="13.716,179.962 13.804,180.228 13.557,180.192 "/>
<path fill="#F5A800" d="M268.426,302.747c-18.192,0-36.392,0.074-54.584-0.033c-9.397-0.061-15.798-4.529-19.07-12.814
	c-4.322-10.938,0.749-21.391,12.281-26.033c2.565-1.033,5.064-1.256,7.666-1.531c3.455-0.379,2.678-3.246,2.882-5.373
	c0.215-2.287-0.816-3.791-3.364-3.818c-3.311-0.027-6.612-0.055-9.923-0.087c-3.587-0.033-5.635-1.849-5.669-5.427
	c-0.09-9.582-0.047-19.17-0.033-28.752c0.004-3.658,2.483-4.129,5.361-4.129c8.601,0,17.202-0.035,25.801-0.041
	c9.923-0.014,19.849-0.082,29.772,0.02c3.354,0.034,4.75-1.29,4.714-4.669c-0.095-8.932-0.125-17.863,0.029-26.79
	c0.125-7.099,1.041-8.081,8.021-8.145c14.552-0.138,29.113-0.222,43.664,0.064c4.365,0.081,7.522-1.002,10.317-4.393
	c3.145-3.816,6.542-7.51,10.27-10.743c4.673-4.046,7.48-8.881,9.079-14.816c1.904-7.068,7.094-10.78,14.224-11.833
	c7.354-1.076,12.968,1.468,16.426,8.172c9.516,18.426,20.599,35.94,31.768,53.363c3.184,4.957,2.743,9.11,1.396,13.695
	c-3,10.23-15.052,19.299-24.03,19.029c-14.616-0.439-23.935-5.236-28.459-16.735c-0.739-1.89-1.239-3.69-1.373-5.702
	c-0.48-7.241,0.182-7.889,7.203-8.344c5.045-0.334,10.237,1.248,15.133-1.073c-3.04-4.265-6.083-8.533-9.126-12.797
	c-1.533-2.143-3.034-4.312-4.604-6.428c-3.667-4.95-3.788-5.027-7.938-0.067c-6.336,7.591-12.444,15.369-18.788,22.957
	c-2.867,3.432-2.888,6.461-0.964,10.605c4.974,10.683,9.371,21.641,13.804,32.565c3.3,8.131,1.977,10.185-6.472,10.413
	c-5.62,0.148-11.249-0.074-16.869,0.087c-2.684,0.067-6.217-1.222-6.563,3.657c-0.304,4.265,1.376,5.25,5.533,5.863
	c15.384,2.262,22.599,15.434,16.355,29.017c-3.784,8.239-10.725,11.073-19.291,11.073
	C304.812,302.733,286.62,302.747,268.426,302.747z M262.869,271.051c0-0.006,0-0.02,0-0.027c-15.858,0-31.715-0.121-47.573,0.055
	c-7.244,0.088-13.601,6.08-13.358,11.984c0.233,5.762,6.01,10.702,13.085,11.154c0.984,0.061,1.984,0.007,2.971-0.062
	c0.986-0.062,1.968-0.202,2.954-0.323c-0.621-1.33-1.975-0.602-2.918-1.041c-5.332-2.476-8.427-7.949-7.067-12.543
	c1.603-5.404,7.383-8.961,13.129-8.084c3.911,0.594,6.489,2.746,8.03,6.412c1.905,4.533,0.566,8.393-2.228,11.916
	c-0.972,1.229-3.983,1.985-3.417,3.018c0.868,1.586,3.468,0.695,5.321,0.701c19.181,0.055,38.363,0.041,57.547,0.041
	c6.608,0,13.226,0,19.841-0.035c0.983,0,1.968-0.168,2.953-0.256c-0.809-0.822-1.629-1.625-2.428-2.463
	c-6.057-6.322-5.669-13.166,0.998-18.576c0.85-0.688,2.418-0.088,2.747-1.613c-0.989-0.081-1.978-0.249-2.963-0.249
	C294.615,271.043,278.744,271.051,262.869,271.051z M308.416,244.504c0-0.021,0-0.049,0-0.062c9.582,0,19.17-0.135,28.753,0.067
	c3.461,0.068,3.754-1.241,2.63-3.887c-2.047-4.818-4.083-9.637-6.14-14.449c-5.281-12.342-10.507-24.714-15.901-37.013
	c-1.259-2.861-2.271-5.857-6.804-5.709c-11.226,0.378-22.471,0.213-33.707,0.088c-3.543-0.041-4.536,1.552-4.521,4.788
	c0.069,16.853,0.117,33.716-0.035,50.572c-0.04,4.428,1.894,5.709,5.976,5.648C288.579,244.396,298.499,244.504,308.416,244.504z
	 M236.751,223.31c0-0.008,0-0.008,0-0.021c-4.939,0-9.878,0-14.811,0c-16.035,0-15.916-0.007-14.87,16.181
	c0.244,3.792,1.542,5.169,5.3,5.114c12.181-0.133,24.362-0.047,36.541-0.047c16.917,0.008,16.805,0.015,15.409-16.81
	c-0.293-3.502-1.667-4.494-4.855-4.453C251.897,223.376,244.321,223.31,236.751,223.31z M268.457,262.467c0,0.08,0,0.162,0,0.236
	c12.537,0,25.083,0.02,37.619-0.014c3.1,0,5.903-0.169,5.875-4.629c-0.026-4.027-1.937-5.007-5.502-5
	c-24.753,0.074-49.504,0.08-74.252-0.014c-3.711-0.021-5.24,1.092-5.271,5.053c-0.037,4.677,2.856,4.365,5.89,4.365
	C244.697,262.467,256.578,262.467,268.457,262.467z M397.063,194.649c-0.134-0.292-0.246-0.607-0.403-0.883
	c-9.34-16.202-20.204-31.504-28.249-48.488c-1.886-3.988-7.25-4.565-11.335-2.184c-2.881,1.688-4.228,6.273-2.38,9.495
	c0.936,1.63,2.495,3.347,4.171,4.022c3.705,1.474,5.324,4.51,7.413,7.507c6.774,9.721,13.897,19.191,20.857,28.783
	c1.833,2.531,3.87,4.505,7.352,3.948C395.839,196.633,397.07,196.404,397.063,194.649z M382.983,205.542c0-0.034,0-0.075,0-0.109
	c-4.911,0-9.831,0.169-14.73-0.053c-3.933-0.176-3.41,1.808-2.148,3.995c3.733,6.451,9.191,9.548,16.889,9.528
	c7.825-0.02,12.919-3.603,16.554-10.055c1.178-2.092,1.437-3.476-1.829-3.353C392.812,205.677,387.893,205.542,382.983,205.542z
	 M353.272,166.059c0.273-1.58-0.763-1.845-1.602-2.341c-2.319-1.377-4.337-2.659-6.824,0.161
	c-5.02,5.685-10.366,11.081-15.556,16.62c-0.675,0.726-1.28,1.526-1.809,2.359c-2.294,3.648,0.462,6.66,2.317,8.634
	c2.322,2.467,3.76-1.245,4.984-2.682c5.783-6.754,11.327-13.711,16.941-20.612C352.333,167.456,352.855,166.642,353.272,166.059z
	 M320.643,294.168c6.046,0.317,9.984-1.152,12.768-4.764c5.84-7.576,0.996-16.822-9.535-18.287c-1.265-0.182-2.602,0.155-3.904,0.25
	c0.813,0.829,1.629,1.66,2.444,2.498c6.117,6.281,5.722,13.48-1.034,18.481c-0.95,0.702-2.542,0.122-3.175,1.519
	C319.508,294.029,320.818,294.19,320.643,294.168z M224.031,282.267c-0.489-1.021-1.394-1.289-2.378-1.114
	c-1.025,0.182-2.099,0.811-1.69,1.91c0.217,0.574,1.542,0.965,2.386,1.006C223.342,284.116,224.268,283.602,224.031,282.267z
	 M315.909,281.254c-1.165,0.338-1.396,1.201-0.978,2.058c0.188,0.392,1.055,0.743,1.515,0.647c1.056-0.229,1.335-1.181,0.92-2.058
	C317.177,281.524,316.357,281.436,315.909,281.254z"/>
<g>
	<path fill="#F1F1F1" d="M743.099,359.012c-0.396-11.75-8.657-18.861-20.479-18.51c-5.196,0.154-10.486,0.668-15.621-1.061
		c-1.216-0.398-2.618-0.311-3.935-0.305c-13.308,0.082-14.191,0.918-15.049,14.035c-0.878,13.584,1.202,27.102,0.933,40.67
		c-0.108,5.621-0.163,11.25-0.095,16.877l-0.123,5.238l-0.24,5.248c-1.312,10.352-1.702,20.609-0.972,30.947h25.135
		c-0.966-10.648-1.431-21.338-1.479-32.061l-0.554-3.887l-0.789-1.883c-0.742-3.422-1.391-7.186,0.464-10.574
		c0.725-1.322,2.376-0.91,3.651-0.945c3.307-0.08,6.647,0.209,9.913-0.135c11.843-1.268,19.063-8.043,19.267-20.83
		C743.24,374.235,743.348,366.618,743.099,359.012z M720.622,383.575c-0.091,4.467-3.53,4.805-7.027,5
		c-3.812,0.225-4.256-2.059-4.216-4.992c0.061-3.949,0.021-7.891,0.021-11.836c0-3.611-0.014-7.221,0.007-10.838
		c0.007-1.646,0.163-3.205,1.232-4.637c1.467-1.957,3.078-3.447,5.724-3.002c2.61,0.451,4.164,2.123,4.2,4.688
		C720.701,366.495,720.782,375.04,720.622,383.575z"/>
	<path fill="#F1F1F1" d="M527.913,416.114l-0.107-3.217c1.786-22.439,0.381-44.951,0.809-67.43c0.06-3.246-1.111-4.703-4.575-4.844
		c-11.181-0.473-22.346,0.551-33.582-0.852c-7.56-0.945-15.208,6.938-15.968,14.771c-1.083,11.201-0.813,22.463,0.042,33.68
		c0.526,6.842,8.82,13.859,16.598,14.461c3.292,0.264,6.616,0.014,9.922,0.107c2.216,0.066,4.94-0.439,5.129,3.023
		c0.165,2.996,0.423,6.119-3.094,7.611c-3.171,1.35-6.532,0.523-9.802,0.668c-3.63,0.154-4.939-2.459-6.43-5.184
		c-1.408-2.564-9.83-3.82-12.336-2.172c-2.036,1.334-0.442,2.975-0.2,4.371c0.479,2.773-0.353,4.354-0.447,4.664
		c0.188,0.443-0.371,4.096-0.371,5.064c0,11.426,54.728,18.113,53.587-0.086c-0.033-0.525,0.035-0.971,0.161-1.395
		C527.361,418.024,527.913,416.114,527.913,416.114z M506.193,369.694h-0.021c0,4.629,0.006,9.258-0.007,13.881
		c-0.004,3.258-1.839,4.711-4.916,4.979c-3.085,0.277-5.644-1.012-5.925-3.953c-0.844-8.875-1.008-17.82,0.044-26.662
		c0.438-3.725,3.458-5.195,7.345-4.83c2.49,0.234,3.499,1.33,3.483,3.703C506.173,361.11,506.193,365.403,506.193,369.694z"/>
	<path fill="#F1F1F1" d="M181.65,418.797"/>
	<path fill="#F1F1F1" d="M314.066,377.245c0,6.932-0.073,13.869,0.03,20.797c0.051,3.299-1.237,4.758-4.642,4.732
		c-10.889-0.096-21.787,0.297-32.657-0.109c-10.317-0.385-17.353-9.467-16.999-21.014c0.284-9.5,7.929-16.844,17.908-17.152
		c2.967-0.088,5.942,0.033,8.909-0.047c2.234-0.049,4.885,0.396,5.015-3.092c0.124-3.326,0.549-7.133-3.791-7.969
		c-3.18-0.621-6.573-0.184-9.869-0.25c-3.94-0.096-4.349,3.197-5.8,5.701c-1.471,2.531-10.86,3.238-12.399,1.086
		c-0.466-0.668-0.375-1.801-0.349-2.719c0.265-8.145,4.849-15.533,14.428-17.498c9.056-1.848,18.288-2.072,27.232,0.98
		c7.989,2.732,12.753,9.277,12.973,17.746c0.165,6.264,0.033,12.531,0.033,18.807C314.08,377.245,314.071,377.245,314.066,377.245z
		 M285.651,388.272c3.859,0.078,5.892-1.498,6.001-5.217c0.078-2.529-0.212-4.549-3.6-4.494c-4.173,0.066-7.601,2.031-7.252,4.852
		C281.146,386.211,282.58,388.407,285.651,388.272z"/>
	<path fill="#F1F1F1" d="M602.115,377.264c0,6.938-0.077,13.883,0.033,20.813c0.048,3.359-1.343,4.723-4.706,4.697
		c-10.805-0.096-21.621,0.316-32.4-0.137c-9.813-0.404-17.161-9.186-17.096-19.373c0.063-9.854,7.975-18.301,17.727-18.754
		c4.284-0.195,8.587-0.039,12.882-0.188c2.621-0.094,3.325-1.996,2.891-4.145c-0.766-3.777-2.472-6.977-6.977-7.004
		c-5.078-0.027-10.61-1.506-13.244,5.385c-0.974,2.551-9.379,3.463-11.772,2.006c-1.289-0.789-1.404-2.113-1.441-3.43
		c-0.197-6.674,5.684-15.061,11.965-16.371c9.438-1.971,18.935-2.666,28.449-0.141c8.813,2.348,13.433,7.779,13.658,16.809
		C602.254,364.04,602.115,370.653,602.115,377.264z M574.614,388.231c3.293,0.154,6.504-2.889,6.854-6.129
		c0.306-2.826-1.297-4.264-3.853-4.643c-3.681-0.559-7.563,2.518-7.393,5.75C570.394,386.249,572.035,387.942,574.614,388.231z"/>
	<path fill="#F1F1F1" d="M333.43,370.706c0-8.258,0.058-16.525-0.026-24.799c-0.035-3.447,0.782-5.514,4.881-5.662
		c6.158-0.242,12.065-2.178,18.514-0.025c4.16,1.396,9.168,0.176,13.79,0.305c10.372,0.275,16.725,6.24,16.957,16.473
		c0.298,13.225,0.25,26.457,0.148,39.684c-0.038,5.811-0.27,6.08-6.214,6.033c-17.214-0.127-14.158,2.227-14.493-13.705
		c-0.167-7.93-0.013-15.871-0.024-23.801c-0.004-1.984,0.35-4.109-0.242-5.918c-1.035-3.152-2.6-6.432-6.778-5.959
		c-3.92,0.453-4.164,3.617-4.164,6.729c0.003,11.91,0.06,23.82-0.03,35.725c-0.054,6.715-0.166,6.984-6.313,6.93
		c-19.487-0.188-15.571,2.646-16.001-15.135c-0.139-5.621-0.021-11.242-0.021-16.871
		C333.419,370.706,333.428,370.706,333.43,370.706z"/>
	<path fill="#F1F1F1" d="M429.681,402.739c-1.983,0-3.984,0.148-5.956-0.027c-7.686-0.68-12.771-5.525-15.575-12.957
		c-1.481-3.918-0.115-6.531,2.15-8.697c2.208-2.109,8.627-0.594,10.531,2.35c1.244,1.91,1.652,4.455,4.426,4.736
		c2.25,0.236,4.913,0.865,6.266-1.645c1.313-2.424-1.467-3.207-2.577-4.488c-3.098-3.59-7.747-4.799-11.714-7.012
		c-7.068-3.947-10.708-9.945-10.036-17.727c0.632-7.262,6.395-16.33,15.125-17.188c6.128-0.607,12.572-0.811,18.535,0.438
		c8.744,1.828,13.935,9.453,13.729,17.883c-0.014,0.58-0.165,1.451-0.56,1.699c-2.727,1.688-5.794,0.695-8.711,0.926
		c-2.609,0.209-3.848-0.904-5.073-3.441c-2.186-4.514-5.087-5.438-8.448-3.859c-2.494,1.174-3.007,3.84-0.719,5.473
		c3.466,2.477,7.137,4.689,10.854,6.77c10.979,6.152,13.715,11.734,11.223,23.326c-1.698,7.883-10.072,13.383-20.488,13.471
		c-0.995,0.016-1.987,0.008-2.982,0.008C429.681,402.766,429.681,402.747,429.681,402.739z"/>
	<path fill="#F1F1F1" d="M645.04,402.766c-4.271-0.008-8.459,0.168-12.569-1.803c-5.48-2.639-8.939-6.275-9.518-12.613
		c-0.293-3.184-0.647-6.336,2.827-7.447c3.47-1.119,8.01-1.52,9.524,2.617c1.896,5.148,5.184,5.434,9.315,4.381
		c1.565-0.393,2.967-1.844,1.271-3.666c-2.001-2.15-4.104-4.137-6.864-5.506c-3.808-1.891-7.522-4.068-10.938-6.594
		c-6.406-4.723-8.01-13.068-4.479-21.33c2.884-6.74,11.149-11.988,17.976-10.863c2.649,0.434,5.144,0.572,7.788,0.324
		c11.742-1.141,19.792,6.693,18.841,18.211c-0.054,0.58-0.082,1.459-0.438,1.674c-2.732,1.607-5.777,0.689-8.699,0.852
		c-2.294,0.121-3.568-0.855-4.016-3.279c-0.753-4.156-3.725-5.082-7.43-4.439c-1.729,0.297-2.956,1.473-3.435,3.117
		c-0.436,1.49,0.766,2.604,1.771,3.266c3.836,2.52,7.853,4.766,11.72,7.229c9.635,6.154,12.617,13.361,9.757,23.35
		c-1.984,6.883-11.021,12.428-20.423,12.523C646.358,402.774,645.693,402.766,645.04,402.766z"/>
	<path fill="#F1F1F1" d="M152.417,369.188c0-8.576,0.101-17.166-0.033-25.744c-0.095-5.967-0.237-5.973-6.117-6.295
		c-1.316-0.068-2.646,0.059-3.96-0.027c-6.438-0.418-10.16-6.963-7.137-12.611c1.161-2.152,3.388-1.693,5.287-1.707
		c10.56-0.049,21.125-0.035,31.685-0.035c4.623,0,9.251,0.211,13.861-0.025c4.153-0.209,4.913,1.969,4.966,5.459
		c0.108,7.348-0.894,8.557-8.292,8.947c-9.215,0.514-9.225,0.514-9.249,10.121c-0.041,15.846,0.006,31.695-0.125,47.541
		c-0.064,7.834-0.209,7.988-8.314,7.93c-14.116-0.109-12.196,1.74-12.503-11.762c-0.168-7.256-0.03-14.521-0.03-21.791
		C152.441,369.188,152.432,369.188,152.417,369.188z"/>
	<path fill="#F1F1F1" d="M201.024,371.733c0-7.924-0.044-15.859,0.01-23.781c0.058-8.576,0.571-9.104,8.779-9.25
		c2.97-0.041,5.945,0.012,8.91,0.061c1.65,0.033,3.614,0.055,3.807,2.166c0.32,3.535,2.313,2.51,3.822,1.396
		c6.054-4.461,12.633-1.385,18.97-1.545c1.905-0.043,2.975,1.119,3.087,3.049c0.076,1.322,0.142,2.639,0.124,3.961
		c-0.198,15.688,1.729,13.037-12.935,13.248c-11.385,0.168-12.801,1.537-12.873,13.379c-0.04,7.6-0.209,15.203,0.057,22.789
		c0.156,4.434-1.728,5.473-5.819,5.648c-16.172,0.66-16.148,0.787-15.926-15.277c0.071-5.277,0.011-10.568,0.011-15.844
		C201.037,371.733,201.03,371.733,201.024,371.733z"/>
	<path fill="#F1F1F1" d="M762.507,370.227c0-8.895,0.039-17.795-0.026-26.682c-0.027-3.18,1.005-4.887,4.524-4.826
		c16.893,0.275,18.275-2.664,17.533,16.445c-0.52,13.49,0.007,27.02-0.104,40.521c-0.052,6.547-0.402,7.053-6.584,7.018
		c-18.76-0.119-14.945,2.457-15.359-14.684c-0.141-5.932-0.025-11.861-0.025-17.795
		C762.479,370.227,762.491,370.227,762.507,370.227z"/>
	<path fill="#F1F1F1" d="M773.748,322.782c1.315,0,2.631-0.047,3.94,0.008c6.288,0.242,6.869,0.709,7.045,5.492
		c0.242,6.523-1.377,8.51-7.483,8.793c-2.941,0.133-5.911,0.129-8.866,0.006c-5.71-0.229-5.776-0.371-5.918-6.402
		c-0.163-7.6-0.062-7.707,7.34-7.896C771.124,322.741,772.433,322.768,773.748,322.782z"/>
</g>
<path fill="#F5A800" d="M303.871,234.598c-5.293,0.005-10.595,0.168-15.878-0.047c-3.77-0.163-5.995-1.992-5.904-6.283
	c0.185-8.927,0.084-17.869,0.054-26.807c-0.017-4.552,2.243-6.602,6.731-6.555c6.289,0.061,12.579,0.073,18.865-0.011
	c2.554-0.036,4.349,0.699,5.432,3.223c4.146,9.656,8.57,19.191,12.555,28.909c1.731,4.224-0.02,6.964-5.028,7.443
	C315.136,235.01,309.485,234.591,303.871,234.598z M302.25,224.84c0-0.014,0-0.026,0-0.04c2.619,0,5.24,0.026,7.858-0.006
	c3.869-0.055,4.268-1.965,2.845-5.096c-1.876-4.136-3.523-8.381-5.393-12.517c-0.516-1.147-1.266-2.704-2.254-3.034
	c-4.101-1.384-8.563-1.4-12.566-0.313c-3.699,1.002-1.708,4.993-2.069,7.679c-0.263,1.923-0.084,3.92-0.048,5.884
	c0.139,7.287,0.149,7.295,7.697,7.436C299.63,224.854,300.941,224.84,302.25,224.84z"/>
<path fill="#FFFFFF" d="M604.632,270.911c-8.387-13.673-29.489-14.07-39.138-0.648c-2.919,4.063-5.187,8.502-5.027,13.719
	c0.139,4.709-2.312,6.499-6.728,6.443c-5.624-0.073-11.247-0.12-16.873-0.025c-3.371,0.061-4.853-1.714-4.961-4.771
	c-0.184-5.289-0.249-10.582-0.249-15.863c0-2.023,0.388-4.373,2.482-5c4.879-1.451,4.637-5.297,4.218-8.82
	c-2.134-18.065,4.33-34.131,9.937-50.809c5.258-15.653,14.802-21.486,30.238-20.954c10.237,0.351,20.503-0.013,30.757,0.156
	c6.272,0.108,6.775,0.584,6.811,6.832c0.113,19.847,0.054,39.699,0.054,59.544c0.004,1.654-0.034,3.307,0.014,4.959
	c0.202,7.248,0.209,7.355,8.029,7.39c13.888,0.067,27.777-0.026,41.674-0.034c47.302-0.007,94.6-0.007,141.896-0.014
	c1.985,0,3.978-0.04,5.96,0.021c7.989,0.235,11.62,5.883,8.548,13.17c-0.971,2.315-2.98,2.342-4.938,2.362
	c-5.952,0.074-11.903,0.122-17.862,0.034c-3.325-0.049-4.932,1.281-4.643,4.695c0.081,0.986,0.054,1.984-0.013,2.977
	c-0.904,12.477-9.503,21.215-21.426,21.814c-11.25,0.563-21.521-8.258-23.302-20.107c-0.243-1.619-0.33-3.348-0.007-4.934
	c0.784-3.905-1.362-4.514-4.454-4.405c-1.983,0.082-3.961,0.082-5.945,0.021c-2.889-0.082-4.244,1.303-4.234,4.144
	c0,1.646,0.054,3.306-0.057,4.952c-0.734,11.459-10.048,20.258-21.571,20.447c-10.898,0.182-20.542-8.119-22.264-18.82
	c-0.513-3.213,1.405-7.193-1.228-9.502c-3.159-2.766-7.605-0.951-11.479-1.262c-2.956-0.229-5.979,0.237-8.921-0.094
	c-7.43-0.843-13.496,1.167-18.28,7.193c-2.785,3.521-6.575,5.014-11.365,4.757c-7.59-0.392-15.215-0.175-22.822-0.047
	c-4.407,0.073-6.675-1.552-6.925-6.276c-0.28-5.209-0.938-10.52-6.219-13.563L604.632,270.911z M612.3,268.811
	c-0.133-1.289-0.636-2.159-2.15-1.855c0.147-23.826,0.294-47.646,0.433-71.475c0-0.983-0.027-1.988-0.163-2.967
	c-0.26-1.878-1.456-3.07-3.275-3.029c-13.534,0.317-27.119-1.367-40.594,1.127c-5.073,0.945-8.127,4.015-9.929,8.678
	c-3.084,7.992-6.222,15.962-9.379,23.926c-3.067,7.759-4.888,15.682-4.245,24.15c0.399,5.264,0.063,10.588-0.003,15.885
	c-0.03,1.951,0.216,4.496-1.957,5.184c-5.527,1.734-4.071,6.141-4.082,9.865c-0.015,6.242,0.114,6.383,5.789,6.546
	c3.593,0.101,7.582,0.581,10.709-0.742c3.121-1.315,2.358-5.79,3.472-8.813c6.155-16.66,24.106-24.428,40.569-17.625
	c5.021,2.071,8.597,6.033,12.925,9.01c0.079,1.254,0.471,2.186,1.99,2.029c1.161,4.414,2.392,8.799,3.449,13.233
	c0.454,1.91,1.52,2.86,3.388,2.86c7.932,0.008,15.865,0.008,23.793-0.061c2.587-0.027,4.204-1.949,5.67-3.671
	c5.351-6.31,11.903-8.481,20.19-7.793c7.859,0.662,15.836,0.021,23.765-0.169c1.722-0.046,3.543-1.012,3.598-2.8
	c0.066-2.423-2.295-1.728-3.625-1.728C665.86,268.602,639.078,268.717,612.3,268.811z M713.36,268.547
	c-9.347-0.073-16.894,7.215-17.207,16.621c-0.325,9.724,7.437,17.598,17.28,17.537c9.285-0.039,17.16-7.557,17.423-16.633
	C731.127,276.558,723.218,268.627,713.36,268.547z M789.354,285.411c1.391-9.049-8.777-17.361-16.546-17.004
	c-9.919,0.451-17.747,7.639-17.599,17.355c0.142,9.271,7.739,16.896,16.965,17.025C782.264,302.915,789.39,295.715,789.354,285.411z
	 M803.46,268.583c0-0.008,0-0.015,0-0.021c-3.604,0-7.208-0.088-10.806,0.054c-1.046,0.041-2.808-0.23-2.727,1.653
	c0.056,1.417,1.167,2.315,2.464,2.733c0.911,0.291,1.925,0.404,2.883,0.404c5.884,0,11.773-0.008,17.657-0.121
	c1.526-0.027,3.484,0.012,3.658-2.193c0.184-2.321-1.741-2.436-3.318-2.483C809.999,268.506,806.727,268.583,803.46,268.583z
	 M743.915,273.643c2.429-0.236,5.993-0.452,9.501-1.012c1.261-0.203,2.307-1.491,2.146-2.854c-0.054-0.485-1.553-1.12-2.396-1.127
	c-6.83-0.067-13.672-0.021-20.509,0.047c-0.884,0.015-2.091,0.265-1.956,1.37c0.096,0.844,0.789,1.917,1.524,2.322
	C735.555,274.223,739.258,273.083,743.915,273.643z"/>
<path fill="#D32F2F" d="M728.266,260.625c-25.154-0.006-50.313-0.026-75.471,0c-8.421,0.006-9.213,0.291-11.194-8.617
	c-4.654-20.898-10.069-41.629-15.173-62.429c-0.396-1.605-0.773-3.216-1.218-4.804c-1.991-7.211-2.001-7.318-9.136-7.375
	c-12.579-0.088-25.158-0.004-37.735-0.021c-12.105-0.021-13.508-1.748-11.813-13.682c0.405-2.841,1.673-4.113,4.417-4.154
	c1.316-0.02,2.646-0.07,3.965-0.07c23.837,0.004,47.672-0.027,71.502,0.048c7.271,0.022,7.338,0.192,9.247,7.402
	c0.338,1.272,0.305,2.646,0.663,3.908c1.843,6.613,1.869,6.761,8.663,6.798c19.198,0.094,38.396,0.047,57.597,0.047
	c35.426-0.007,70.84-0.01,106.26-0.014c1.984,0,3.976-0.057,5.958,0.018c6.803,0.25,7.396,0.819,7.693,7.288
	c0.06,1.326-0.129,2.669,0.055,3.971c0.654,4.771-1.91,6.873-6.169,6.812c-5.324-0.075-7.192,2.355-8.307,7.47
	c-3.367,15.473-7.45,30.792-11.255,46.176c-0.397,1.586-0.967,3.152-1.176,4.771c-0.688,5.385-3.826,6.605-8.921,6.565
	C780.57,260.504,754.415,260.625,728.266,260.625z M728.165,255.146c24.806,0,49.599,0.033,74.404-0.028
	c7.259-0.013,7.383-0.113,9.138-7.146c3.893-15.643,7.677-31.312,11.456-46.99c1.344-5.591,2.443-11.053,10.419-10
	c3.091,0.408,3.437-2.446,3.307-4.889c-0.142-2.712-2.187-2.922-4.218-2.965c-2.645-0.057-5.298-0.048-7.942-0.048
	c-52.903-0.003-105.814-0.003-158.72-0.003c-2.32,0-4.644-0.125-6.95,0.008c-3.138,0.181-5.007-1.232-5.83-4.167
	c-0.438-1.583-0.77-3.195-1.188-4.791c-2.604-9.875-2.611-9.916-13.305-9.927c-19.837-0.014-39.676-0.01-59.507,0.088
	c-3.074,0.017-7.521-1.211-7.763,3.641c-0.282,5.884,4.836,4.265,8.049,4.316c12.894,0.212,25.798-0.065,38.688,0.185
	c9.63,0.182,9.566,0.432,11.788,9.615c5.268,21.79,10.578,43.566,15.918,65.334c1.88,7.652,1.945,7.74,9.836,7.754
	C679.888,255.179,704.027,255.146,728.165,255.146z"/>
<path fill="#FFFFFF" d="M604.318,270.592c-0.9,3.3,1.806,5.492,2.613,8.279c3.001,10.393-1.056,20.777-10.668,26.164
	c-9.692,5.451-21.392,3.104-28.438-5.689c-6.659-8.326-6.37-20.17,0.695-28.293c7.258-8.342,18.227-10.17,27.828-4.975
	c2.827,1.532,4.604,4.832,8.282,4.832L604.318,270.592z M585.984,268.534c-9.63-0.168-17.214,6.795-17.586,16.127
	c-0.398,10.043,6.846,17.889,16.689,18.105c9.931,0.207,17.613-7.314,17.56-17.221C602.598,275.958,595.485,268.689,585.984,268.534
	z"/>
<path fill="#FFFFFF" d="M610.418,266.672c-4.328-2.978-7.902-6.938-12.925-9.01c-16.463-6.802-34.414,0.965-40.569,17.625
	c-1.111,3.023-0.351,7.498-3.472,8.813c-3.127,1.323-7.116,0.843-10.709,0.741c-5.675-0.162-5.804-0.303-5.789-6.545
	c0.011-3.725-1.445-8.131,4.082-9.865c2.173-0.688,1.927-3.232,1.957-5.184c0.065-5.297,0.403-10.621,0.003-15.885
	c-0.642-8.469,1.178-16.391,4.245-24.15c3.157-7.963,6.295-15.934,9.379-23.926c1.802-4.663,4.854-7.732,9.929-8.678
	c13.476-2.494,27.06-0.81,40.595-1.127c1.818-0.041,3.016,1.151,3.274,3.029c0.136,0.979,0.163,1.984,0.163,2.967
	c-0.139,23.827-0.284,47.646-0.433,71.475L610.418,266.672z M569.541,233.323c0,0.034,0,0.055,0,0.088
	c4.29,0,8.571,0.026,12.868-0.007c2.309-0.026,4.507-0.27,6.477-1.876c9.383-7.618,18.321-15.412,14.888-29.499
	c-0.152-0.624-0.067-1.315-0.044-1.97c0.142-3.833-1.976-5.345-5.51-5.287c-8.57,0.128-17.141,0.232-25.706,0.489
	c-5.854,0.171-10.072,3.195-12.31,8.476c-3.323,7.851-6.436,15.813-9.35,23.83c-1.476,4.036-0.545,5.398,3.853,5.682
	C559.631,233.573,564.597,233.323,569.541,233.323z"/>
<path fill="#FFFFFF" d="M612.3,268.811c26.778-0.094,53.562-0.208,80.336-0.236c1.33,0,3.691-0.693,3.625,1.729
	c-0.055,1.787-1.876,2.753-3.598,2.8c-7.929,0.19-15.904,0.831-23.766,0.169c-8.286-0.688-14.84,1.484-20.189,7.793
	c-1.466,1.721-3.083,3.645-5.67,3.671c-7.928,0.067-15.861,0.067-23.793,0.062c-1.868,0-2.934-0.952-3.387-2.861
	c-1.06-4.434-2.289-8.818-3.45-13.232L612.3,268.811z"/>
<path fill="#FFFFFF" d="M803.46,268.583c3.268,0,6.539-0.076,9.813,0.026c1.577,0.048,3.502,0.162,3.318,2.483
	c-0.174,2.205-2.132,2.166-3.658,2.193c-5.884,0.113-11.773,0.121-17.657,0.121c-0.958,0-1.972-0.115-2.883-0.404
	c-1.297-0.418-2.408-1.316-2.464-2.733c-0.081-1.883,1.681-1.612,2.727-1.653c3.598-0.142,7.201-0.054,10.806-0.054
	C803.46,268.567,803.46,268.575,803.46,268.583z"/>
<path fill="#FFFFFF" d="M743.915,273.643c-4.657-0.561-8.36,0.58-11.688-1.255c-0.735-0.405-1.43-1.478-1.524-2.322
	c-0.135-1.106,1.072-1.356,1.956-1.37c6.837-0.066,13.679-0.113,20.509-0.047c0.843,0.008,2.342,0.641,2.396,1.127
	c0.16,1.363-0.886,2.652-2.146,2.854C749.908,273.191,746.344,273.407,743.915,273.643z"/>
<path fill="#FFFFFF" d="M612.408,268.704c-1.521,0.155-1.911-0.777-1.99-2.031l-0.27,0.283c1.516-0.304,2.019,0.566,2.15,1.855
	L612.408,268.704z"/>
<path fill="#D32F2F" stroke="#D32F2F" stroke-miterlimit="10" d="M728.165,255.146c-24.138,0-48.277,0.033-72.42-0.015
	c-7.891-0.014-7.956-0.101-9.836-7.752c-5.34-21.77-10.65-43.545-15.918-65.335c-2.222-9.184-2.158-9.433-11.788-9.615
	c-12.89-0.25-25.794,0.027-38.688-0.185c-3.213-0.051-8.331,1.568-8.049-4.316c0.24-4.852,4.688-3.624,7.763-3.641
	c19.831-0.098,39.67-0.102,59.507-0.088c10.692,0.011,10.699,0.051,13.305,9.927c0.418,1.596,0.749,3.208,1.188,4.791
	c0.823,2.936,2.692,4.349,5.83,4.167c2.308-0.132,4.63-0.008,6.95-0.008c52.904,0,105.815,0,158.72,0.003
	c2.646,0,5.298-0.009,7.942,0.048c2.031,0.043,4.076,0.253,4.218,2.965c0.13,2.443-0.216,5.297-3.307,4.889
	c-7.977-1.053-9.075,4.409-10.419,10c-3.779,15.679-7.563,31.348-11.456,46.99c-1.755,7.031-1.879,7.132-9.138,7.146
	C777.764,255.179,752.971,255.146,728.165,255.146z"/>
<path fill="#FFFFFF" d="M569.541,233.323c-4.944,0-9.91,0.25-14.834-0.074c-4.396-0.284-5.327-1.646-3.853-5.682
	c2.914-8.017,6.025-15.979,9.35-23.83c2.236-5.28,6.454-8.304,12.31-8.476c8.565-0.257,17.136-0.361,25.706-0.489
	c3.534-0.058,5.65,1.454,5.509,5.287c-0.022,0.655-0.107,1.346,0.044,1.97c3.436,14.087-5.504,21.881-14.887,29.499
	c-1.97,1.606-4.168,1.85-6.477,1.876c-4.297,0.033-8.578,0.007-12.868,0.007C569.541,233.377,569.541,233.357,569.541,233.323z
	 M572.104,228.775c9.821,2.895,17.398-3.394,24.113-11.101c4.142-4.737,3.039-10.898,1.563-16.037
	c-1.222-4.268-6.318-1.72-9.67-2.26c-1.287-0.206-2.633-0.061-3.95-0.047c-16.436,0.138-17.621,0.661-23.16,15.693
	C555.823,229.093,552.717,228.917,572.104,228.775z"/>
<path fill="#FFFFFF" d="M713.92,296.463c-6.335,0.217-11.708-4.623-11.815-10.668c-0.114-5.613,4.671-10.683,10.445-11.073
	c6.674-0.446,11.863,3.92,12.073,10.163C724.845,291.532,720.485,296.241,713.92,296.463z M719.353,286.139
	c-0.229-3.428-1.902-5.635-5.243-6.268c-3.319-0.627-6.66,2.239-6.538,5.662c0.112,3.48,2.093,5.498,5.573,5.6
	C716.53,291.228,718.685,289.5,719.353,286.139z"/>
<path fill="#FFFFFF" d="M782.992,285.999c-0.135,6.479-4.15,10.485-10.386,10.364c-6.578-0.127-11.33-4.959-11.047-11.249
	c0.271-5.992,4.772-10.217,10.898-10.23C779.565,274.872,783.154,278.657,782.992,285.999z M778.087,285.269
	c0-3.144-2.308-5.103-5.884-5.062c-3.753,0.047-5.264,2.105-5.128,5.655c0.126,3.501,2.327,5.628,5.627,5.283
	C776.163,290.79,777.911,288.704,778.087,285.269z"/>
<path fill="#FFFFFF" d="M596.218,285.276c0.148,6.512-4.478,11.215-10.888,11.074c-6.286-0.143-10.342-4.17-10.504-10.434
	c-0.173-6.646,4.134-11,10.846-10.951C591.743,274.999,596.079,279.245,596.218,285.276z M585.037,280.254
	c-2.858,0.229-5.314,2.1-5.284,5.345c0.026,3.179,2.352,5.325,5.78,5.378c3.548,0.054,5.351-2.173,5.718-5.419
	C591.582,282.672,588.697,280.161,585.037,280.254z"/>
</svg>
