<?xml version="1.0" encoding="utf-8"?>
<!-- Generator: Adobe Illustrator 16.0.3, SVG Export Plug-In . SVG Version: 6.00 Build 0)  -->
<!DOCTYPE svg PUBLIC "-//W3C//DTD SVG 1.1//EN" "http://www.w3.org/Graphics/SVG/1.1/DTD/svg11.dtd">
<svg version="1.1" id="Capa_1" xmlns="http://www.w3.org/2000/svg" xmlns:xlink="http://www.w3.org/1999/xlink" x="0px" y="0px"
	 width="970.193px" height="477.333px" viewBox="0 0 970.193 477.333" enable-background="new 0 0 970.193 477.333"
	 xml:space="preserve">
<polygon fill-rule="evenodd" clip-rule="evenodd" fill="#FFFFFF" points="13.716,179.962 13.557,180.192 13.804,180.228 "/>
<polygon fill-rule="evenodd" clip-rule="evenodd" points="13.716,179.962 13.804,180.228 13.557,180.192 "/>
<path fill-rule="evenodd" clip-rule="evenodd" fill="#F5A800" d="M268.426,302.747c-18.192,0-36.392,0.074-54.584-0.034
	c-9.397-0.061-15.798-4.528-19.07-12.814c-4.322-10.938,0.749-21.391,12.281-26.033c2.565-1.033,5.064-1.256,7.666-1.532
	c3.455-0.378,2.678-3.246,2.882-5.372c0.215-2.288-0.816-3.792-3.364-3.819c-3.311-0.027-6.612-0.054-9.923-0.087
	c-3.587-0.033-5.635-1.849-5.669-5.426c-0.09-9.582-0.047-19.171-0.033-28.753c0.004-3.658,2.483-4.129,5.361-4.129
	c8.601,0,17.202-0.035,25.801-0.041c9.923-0.014,19.849-0.082,29.772,0.02c3.354,0.034,4.75-1.29,4.714-4.669
	c-0.095-8.932-0.125-17.863,0.029-26.79c0.125-7.099,1.041-8.081,8.021-8.145c14.552-0.138,29.113-0.222,43.664,0.064
	c4.365,0.081,7.522-1.002,10.317-4.393c3.145-3.816,6.542-7.51,10.27-10.743c4.673-4.046,7.48-8.881,9.079-14.816
	c1.904-7.068,7.094-10.78,14.224-11.833c7.354-1.076,12.968,1.468,16.426,8.172c9.516,18.426,20.599,35.94,31.768,53.363
	c3.184,4.957,2.743,9.11,1.396,13.695c-3,10.23-15.052,19.299-24.03,19.029c-14.616-0.439-23.935-5.236-28.459-16.735
	c-0.739-1.89-1.239-3.69-1.373-5.702c-0.48-7.241,0.182-7.889,7.203-8.344c5.045-0.334,10.237,1.248,15.133-1.073
	c-3.04-4.265-6.083-8.533-9.126-12.797c-1.533-2.143-3.034-4.312-4.604-6.428c-3.667-4.95-3.788-5.027-7.938-0.067
	c-6.336,7.591-12.444,15.369-18.788,22.957c-2.867,3.432-2.888,6.461-0.964,10.605c4.974,10.683,9.371,21.641,13.804,32.565
	c3.3,8.131,1.977,10.184-6.472,10.413c-5.62,0.149-11.249-0.074-16.869,0.087c-2.684,0.067-6.217-1.222-6.563,3.657
	c-0.304,4.265,1.376,5.25,5.533,5.864c15.384,2.261,22.599,15.433,16.355,29.016c-3.784,8.239-10.725,11.074-19.291,11.074
	C304.812,302.733,286.62,302.747,268.426,302.747z M262.869,271.051c0-0.006,0-0.02,0-0.027c-15.858,0-31.715-0.121-47.573,0.054
	c-7.244,0.088-13.601,6.081-13.358,11.985c0.233,5.762,6.01,10.702,13.085,11.154c0.984,0.061,1.984,0.007,2.971-0.061
	c0.986-0.061,1.968-0.202,2.954-0.324c-0.621-1.33-1.975-0.601-2.918-1.04c-5.332-2.476-8.427-7.949-7.067-12.543
	c1.603-5.405,7.383-8.962,13.129-8.084c3.911,0.594,6.489,2.746,8.03,6.411c1.905,4.534,0.566,8.394-2.228,11.917
	c-0.972,1.229-3.983,1.985-3.417,3.017c0.868,1.586,3.468,0.695,5.321,0.701c19.181,0.055,38.363,0.041,57.547,0.041
	c6.608,0,13.226,0,19.841-0.034c0.983,0,1.968-0.168,2.953-0.256c-0.809-0.823-1.629-1.626-2.428-2.463
	c-6.057-6.323-5.669-13.166,0.998-18.577c0.85-0.688,2.418-0.088,2.747-1.613c-0.989-0.081-1.978-0.249-2.963-0.249
	C294.615,271.044,278.744,271.051,262.869,271.051z M308.416,244.504c0-0.02,0-0.048,0-0.061c9.582,0,19.17-0.135,28.753,0.067
	c3.461,0.068,3.754-1.241,2.63-3.887c-2.047-4.818-4.083-9.636-6.14-14.448c-5.281-12.342-10.507-24.714-15.901-37.013
	c-1.259-2.861-2.271-5.857-6.804-5.709c-11.226,0.378-22.471,0.213-33.707,0.088c-3.543-0.041-4.536,1.552-4.521,4.788
	c0.069,16.853,0.117,33.716-0.035,50.572c-0.04,4.427,1.894,5.709,5.976,5.648C288.579,244.396,298.499,244.504,308.416,244.504z
	 M236.751,223.31c0-0.008,0-0.008,0-0.021c-4.939,0-9.878,0-14.811,0c-16.035,0-15.916-0.007-14.87,16.181
	c0.244,3.792,1.542,5.169,5.3,5.115c12.181-0.134,24.362-0.047,36.541-0.047c16.917,0.007,16.805,0.014,15.409-16.81
	c-0.293-3.502-1.667-4.494-4.855-4.453C251.897,223.376,244.321,223.31,236.751,223.31z M268.457,262.467c0,0.081,0,0.163,0,0.236
	c12.537,0,25.083,0.02,37.619-0.013c3.1,0,5.903-0.169,5.875-4.629c-0.026-4.028-1.937-5.007-5.502-5
	c-24.753,0.074-49.504,0.08-74.252-0.014c-3.711-0.021-5.24,1.092-5.271,5.053c-0.037,4.677,2.856,4.366,5.89,4.366
	C244.697,262.467,256.578,262.467,268.457,262.467z M397.063,194.649c-0.134-0.292-0.246-0.607-0.403-0.883
	c-9.34-16.202-20.204-31.504-28.249-48.488c-1.886-3.988-7.25-4.565-11.335-2.184c-2.881,1.688-4.228,6.273-2.38,9.495
	c0.936,1.63,2.495,3.347,4.171,4.022c3.705,1.474,5.324,4.51,7.413,7.507c6.774,9.721,13.897,19.191,20.857,28.783
	c1.833,2.531,3.87,4.505,7.352,3.948C395.839,196.633,397.07,196.404,397.063,194.649z M382.983,205.542c0-0.034,0-0.075,0-0.109
	c-4.911,0-9.831,0.169-14.73-0.053c-3.933-0.176-3.41,1.808-2.148,3.995c3.733,6.451,9.191,9.548,16.889,9.528
	c7.825-0.02,12.919-3.603,16.554-10.055c1.178-2.092,1.437-3.476-1.829-3.353C392.812,205.677,387.893,205.542,382.983,205.542z
	 M353.272,166.059c0.273-1.58-0.763-1.845-1.602-2.341c-2.319-1.377-4.337-2.659-6.824,0.161
	c-5.02,5.685-10.366,11.081-15.556,16.62c-0.675,0.726-1.28,1.526-1.809,2.359c-2.294,3.648,0.462,6.66,2.317,8.634
	c2.322,2.467,3.76-1.245,4.984-2.682c5.783-6.754,11.327-13.711,16.941-20.612C352.333,167.456,352.855,166.642,353.272,166.059z
	 M320.643,294.169c6.046,0.317,9.984-1.153,12.768-4.764c5.84-7.577,0.996-16.822-9.535-18.287
	c-1.265-0.182-2.602,0.155-3.904,0.249c0.813,0.83,1.629,1.661,2.444,2.498c6.117,6.282,5.722,13.481-1.034,18.482
	c-0.95,0.702-2.542,0.122-3.175,1.518C319.508,294.029,320.818,294.19,320.643,294.169z M224.031,282.267
	c-0.489-1.02-1.394-1.289-2.378-1.114c-1.025,0.182-2.099,0.81-1.69,1.91c0.217,0.574,1.542,0.965,2.386,1.006
	C223.342,284.115,224.268,283.602,224.031,282.267z M315.909,281.254c-1.165,0.338-1.396,1.201-0.978,2.058
	c0.188,0.392,1.055,0.743,1.515,0.648c1.056-0.229,1.335-1.181,0.92-2.058C317.177,281.524,316.357,281.436,315.909,281.254z"/>
<g>
	<path fill-rule="evenodd" clip-rule="evenodd" fill="#F1F1F1" d="M743.099,359.012c-0.397-11.749-8.658-18.861-20.48-18.51
		c-5.196,0.155-10.486,0.668-15.621-1.06c-1.216-0.398-2.618-0.311-3.935-0.305c-13.307,0.082-14.191,0.918-15.048,14.036
		c-0.878,13.584,1.202,27.1,0.932,40.67c-0.108,5.621-0.163,11.249-0.095,16.877l-0.123,5.237l-0.24,5.249
		c-1.311,10.352-1.702,20.608-0.972,30.947h25.135c-0.966-10.648-1.43-21.338-1.478-32.06l-0.554-3.887l-0.789-1.884
		c-0.742-3.421-1.391-7.185,0.464-10.573c0.724-1.322,2.376-0.911,3.651-0.945c3.307-0.081,6.648,0.209,9.913-0.136
		c11.843-1.268,19.063-8.043,19.267-20.83C743.24,374.235,743.348,366.617,743.099,359.012z M720.622,383.574
		c-0.091,4.468-3.53,4.805-7.027,5c-3.812,0.225-4.256-2.057-4.216-4.992c0.06-3.948,0.02-7.89,0.02-11.836
		c0-3.61-0.013-7.221,0.007-10.837c0.007-1.647,0.163-3.206,1.233-4.637c1.466-1.958,3.078-3.448,5.723-3.002
		c2.611,0.451,4.164,2.124,4.2,4.688C720.701,366.495,720.782,375.039,720.622,383.574z"/>
	<path fill-rule="evenodd" clip-rule="evenodd" fill="#F1F1F1" d="M527.913,416.113l-0.107-3.217
		c1.786-22.438,0.38-44.95,0.808-67.428c0.06-3.246-1.111-4.703-4.575-4.845c-11.181-0.473-22.346,0.552-33.582-0.851
		c-7.56-0.945-15.208,6.937-15.968,14.771c-1.083,11.201-0.812,22.464,0.042,33.68c0.527,6.842,8.821,13.859,16.598,14.461
		c3.292,0.263,6.616,0.014,9.922,0.107c2.216,0.066,4.94-0.439,5.129,3.023c0.165,2.997,0.423,6.12-3.094,7.612
		c-3.171,1.349-6.532,0.524-9.802,0.668c-3.63,0.155-4.939-2.458-6.43-5.184c-1.408-2.563-9.83-3.819-12.335-2.172
		c-2.037,1.335-0.443,2.976-0.201,4.372c0.479,2.773-0.352,4.353-0.447,4.663c0.189,0.445-0.371,4.096-0.371,5.066
		c0,11.426,54.727,18.112,53.587-0.086c-0.033-0.526,0.035-0.971,0.161-1.396C527.361,418.023,527.913,416.113,527.913,416.113z
		 M506.193,369.694h-0.021c0,4.628,0.006,9.257-0.007,13.88c-0.004,3.259-1.839,4.711-4.916,4.98
		c-3.085,0.277-5.644-1.013-5.925-3.954c-0.844-8.875-1.008-17.821,0.044-26.662c0.438-3.724,3.458-5.195,7.345-4.831
		c2.49,0.236,3.499,1.33,3.483,3.704C506.173,361.11,506.193,365.402,506.193,369.694z"/>
	<path fill-rule="evenodd" clip-rule="evenodd" fill="#F1F1F1" d="M181.65,418.798"/>
	<path fill-rule="evenodd" clip-rule="evenodd" fill="#F1F1F1" d="M314.066,377.245c0,6.931-0.073,13.868,0.03,20.797
		c0.051,3.299-1.237,4.758-4.642,4.731c-10.889-0.095-21.787,0.297-32.657-0.109c-10.317-0.385-17.353-9.467-16.999-21.013
		c0.284-9.501,7.929-16.843,17.908-17.153c2.967-0.088,5.942,0.034,8.909-0.047c2.234-0.048,4.885,0.397,5.015-3.091
		c0.124-3.326,0.549-7.133-3.791-7.969c-3.18-0.621-6.573-0.184-9.869-0.25c-3.94-0.095-4.349,3.197-5.8,5.702
		c-1.471,2.531-10.86,3.238-12.399,1.086c-0.466-0.668-0.375-1.802-0.349-2.719c0.265-8.146,4.849-15.534,14.428-17.498
		c9.056-1.849,18.288-2.072,27.232,0.979c7.989,2.733,12.753,9.278,12.973,17.747c0.165,6.263,0.033,12.531,0.033,18.807
		C314.08,377.245,314.071,377.245,314.066,377.245z M285.651,388.271c3.859,0.08,5.892-1.497,6.001-5.215
		c0.078-2.531-0.212-4.55-3.6-4.495c-4.173,0.066-7.601,2.031-7.252,4.852C281.146,386.211,282.58,388.406,285.651,388.271z"/>
	<path fill-rule="evenodd" clip-rule="evenodd" fill="#F1F1F1" d="M602.115,377.265c0,6.937-0.077,13.881,0.033,20.811
		c0.048,3.36-1.342,4.724-4.706,4.697c-10.804-0.095-21.621,0.317-32.4-0.136c-9.812-0.404-17.161-9.185-17.096-19.373
		c0.063-9.853,7.975-18.301,17.727-18.754c4.284-0.195,8.587-0.039,12.882-0.188c2.621-0.094,3.325-1.996,2.89-4.143
		c-0.765-3.779-2.471-6.977-6.976-7.005c-5.078-0.027-10.611-1.505-13.244,5.385c-0.974,2.551-9.379,3.462-11.773,2.005
		c-1.289-0.789-1.404-2.113-1.441-3.428c-0.198-6.675,5.683-15.062,11.965-16.371c9.437-1.971,18.934-2.666,28.449-0.142
		c8.813,2.348,13.432,7.779,13.658,16.809C602.254,364.039,602.115,370.652,602.115,377.265z M574.614,388.231
		c3.293,0.155,6.504-2.889,6.854-6.129c0.305-2.826-1.297-4.263-3.853-4.642c-3.68-0.56-7.563,2.518-7.392,5.75
		C570.394,386.248,572.035,387.941,574.614,388.231z"/>
	<path fill-rule="evenodd" clip-rule="evenodd" fill="#F1F1F1" d="M333.43,370.706c0-8.259,0.058-16.525-0.026-24.799
		c-0.035-3.448,0.782-5.513,4.881-5.662c6.158-0.242,12.065-2.179,18.514-0.025c4.16,1.396,9.168,0.175,13.79,0.303
		c10.372,0.277,16.725,6.241,16.957,16.473c0.298,13.225,0.25,26.458,0.148,39.685c-0.038,5.81-0.27,6.079-6.214,6.032
		c-17.214-0.127-14.158,2.227-14.493-13.704c-0.167-7.931-0.013-15.872-0.024-23.802c-0.004-1.983,0.35-4.109-0.242-5.918
		c-1.035-3.151-2.6-6.431-6.778-5.958c-3.92,0.452-4.164,3.616-4.164,6.729c0.003,11.909,0.06,23.819-0.03,35.724
		c-0.054,6.715-0.166,6.984-6.313,6.93c-19.487-0.189-15.571,2.646-16.001-15.136c-0.139-5.621-0.021-11.242-0.021-16.87
		C333.419,370.706,333.428,370.706,333.43,370.706z"/>
	<path fill-rule="evenodd" clip-rule="evenodd" fill="#F1F1F1" d="M429.681,402.739c-1.984,0-3.985,0.148-5.956-0.027
		c-7.686-0.681-12.771-5.526-15.575-12.957c-1.481-3.919-0.115-6.531,2.15-8.697c2.208-2.111,8.627-0.594,10.531,2.349
		c1.244,1.909,1.652,4.454,4.426,4.737c2.25,0.235,4.913,0.864,6.265-1.646c1.313-2.423-1.466-3.207-2.577-4.487
		c-3.097-3.59-7.747-4.799-11.714-7.012c-7.068-3.947-10.708-9.946-10.036-17.727c0.632-7.261,6.395-16.331,15.125-17.188
		c6.128-0.607,12.573-0.81,18.535,0.438c8.745,1.828,13.935,9.454,13.729,17.883c-0.014,0.579-0.165,1.45-0.56,1.699
		c-2.726,1.688-5.794,0.696-8.711,0.925c-2.609,0.21-3.847-0.903-5.073-3.441c-2.185-4.514-5.087-5.438-8.448-3.859
		c-2.494,1.174-3.007,3.839-0.719,5.473c3.466,2.476,7.137,4.689,10.855,6.769c10.979,6.153,13.715,11.735,11.222,23.327
		c-1.698,7.882-10.072,13.382-20.488,13.47c-0.995,0.015-1.987,0.007-2.982,0.007C429.681,402.766,429.681,402.746,429.681,402.739z
		"/>
	<path fill-rule="evenodd" clip-rule="evenodd" fill="#F1F1F1" d="M645.04,402.766c-4.271-0.008-8.459,0.169-12.569-1.803
		c-5.481-2.638-8.94-6.275-9.518-12.612c-0.293-3.184-0.647-6.336,2.827-7.449c3.47-1.119,8.01-1.518,9.525,2.619
		c1.896,5.148,5.183,5.432,9.315,4.379c1.566-0.392,2.967-1.843,1.272-3.665c-2.001-2.151-4.104-4.137-6.865-5.506
		c-3.807-1.89-7.522-4.069-10.937-6.593c-6.406-4.724-8.01-13.07-4.48-21.33c2.884-6.742,11.15-11.99,17.976-10.865
		c2.649,0.434,5.143,0.574,7.788,0.325c11.742-1.141,19.792,6.693,18.841,18.212c-0.054,0.58-0.082,1.458-0.438,1.673
		c-2.732,1.607-5.777,0.689-8.699,0.852c-2.294,0.121-3.568-0.856-4.016-3.28c-0.753-4.156-3.724-5.082-7.429-4.44
		c-1.73,0.298-2.956,1.473-3.435,3.118c-0.435,1.491,0.766,2.604,1.771,3.266c3.836,2.519,7.852,4.766,11.719,7.228
		c9.635,6.154,12.618,13.361,9.757,23.349c-1.984,6.884-11.02,12.429-20.423,12.524C646.358,402.773,645.693,402.766,645.04,402.766
		z"/>
	<path fill-rule="evenodd" clip-rule="evenodd" fill="#F1F1F1" d="M152.417,369.187c0-8.576,0.101-17.166-0.033-25.743
		c-0.095-5.966-0.237-5.972-6.117-6.296c-1.316-0.067-2.646,0.06-3.96-0.027c-6.438-0.417-10.16-6.963-7.137-12.611
		c1.161-2.152,3.388-1.693,5.287-1.707c10.56-0.048,21.125-0.034,31.685-0.034c4.623,0,9.251,0.209,13.861-0.027
		c4.153-0.209,4.913,1.97,4.966,5.46c0.108,7.348-0.894,8.557-8.292,8.947c-9.215,0.513-9.225,0.513-9.249,10.121
		c-0.041,15.846,0.006,31.696-0.125,47.541c-0.064,7.835-0.209,7.989-8.314,7.929c-14.116-0.108-12.196,1.741-12.503-11.761
		c-0.168-7.255-0.03-14.522-0.03-21.791C152.441,369.187,152.432,369.187,152.417,369.187z"/>
	<path fill-rule="evenodd" clip-rule="evenodd" fill="#F1F1F1" d="M201.024,371.732c0-7.923-0.044-15.858,0.01-23.78
		c0.058-8.577,0.571-9.103,8.779-9.251c2.97-0.041,5.945,0.013,8.91,0.061c1.65,0.033,3.614,0.055,3.807,2.166
		c0.32,3.536,2.313,2.51,3.822,1.396c6.054-4.46,12.633-1.384,18.97-1.545c1.905-0.042,2.975,1.119,3.087,3.05
		c0.076,1.322,0.142,2.639,0.124,3.961c-0.198,15.688,1.729,13.037-12.935,13.247c-11.385,0.169-12.801,1.538-12.873,13.38
		c-0.04,7.599-0.209,15.203,0.057,22.788c0.156,4.435-1.728,5.474-5.819,5.649c-16.172,0.661-16.148,0.788-15.926-15.278
		c0.071-5.277,0.011-10.567,0.011-15.844C201.037,371.732,201.03,371.732,201.024,371.732z"/>
	<path fill-rule="evenodd" clip-rule="evenodd" fill="#F1F1F1" d="M762.507,370.227c0-8.894,0.039-17.795-0.027-26.682
		c-0.027-3.18,1.005-4.886,4.525-4.825c16.892,0.275,18.275-2.665,17.533,16.445c-0.52,13.489,0.007,27.019-0.103,40.522
		c-0.052,6.545-0.403,7.051-6.584,7.016c-18.76-0.119-14.946,2.458-15.36-14.683c-0.141-5.932-0.025-11.862-0.025-17.794
		C762.479,370.227,762.491,370.227,762.507,370.227z"/>
	<path fill-rule="evenodd" clip-rule="evenodd" fill="#F1F1F1" d="M773.748,322.782c1.316,0,2.631-0.048,3.94,0.007
		c6.289,0.243,6.87,0.709,7.045,5.492c0.243,6.525-1.377,8.51-7.483,8.794c-2.941,0.133-5.911,0.128-8.866,0.006
		c-5.71-0.229-5.777-0.371-5.918-6.403c-0.163-7.6-0.062-7.706,7.34-7.896C771.124,322.741,772.433,322.768,773.748,322.782z"/>
</g>
<path fill-rule="evenodd" clip-rule="evenodd" fill="#F5A800" d="M303.871,234.598c-5.293,0.005-10.595,0.168-15.878-0.047
	c-3.77-0.163-5.995-1.992-5.904-6.283c0.185-8.927,0.084-17.869,0.054-26.807c-0.017-4.552,2.243-6.602,6.731-6.555
	c6.289,0.061,12.579,0.073,18.865-0.011c2.554-0.036,4.349,0.699,5.432,3.223c4.146,9.656,8.57,19.191,12.555,28.909
	c1.731,4.224-0.02,6.964-5.028,7.443C315.136,235.01,309.485,234.591,303.871,234.598z M302.25,224.84c0-0.014,0-0.026,0-0.04
	c2.619,0,5.24,0.026,7.858-0.006c3.869-0.055,4.268-1.965,2.845-5.096c-1.876-4.136-3.523-8.381-5.393-12.517
	c-0.516-1.147-1.266-2.704-2.254-3.034c-4.101-1.384-8.563-1.4-12.566-0.313c-3.699,1.002-1.708,4.993-2.069,7.679
	c-0.263,1.923-0.084,3.92-0.048,5.884c0.139,7.287,0.149,7.295,7.697,7.436C299.63,224.854,300.941,224.84,302.25,224.84z"/>
<g>
	<path fill-rule="evenodd" clip-rule="evenodd" d="M604.632,270.91c-8.387-13.672-29.489-14.07-39.138-0.648
		c-2.919,4.063-5.186,8.502-5.027,13.719c0.138,4.709-2.312,6.499-6.728,6.444c-5.624-0.074-11.247-0.121-16.873-0.026
		c-3.371,0.061-4.852-1.714-4.961-4.771c-0.183-5.29-0.249-10.582-0.249-15.864c0-2.024,0.388-4.373,2.483-5
		c4.879-1.451,4.636-5.297,4.217-8.82c-2.133-18.065,4.331-34.131,9.937-50.809c5.258-15.653,14.802-21.486,30.238-20.954
		c10.238,0.351,20.503-0.013,30.757,0.156c6.273,0.108,6.775,0.584,6.811,6.832c0.113,19.847,0.053,39.699,0.053,59.544
		c0.004,1.654-0.034,3.307,0.014,4.96c0.202,7.248,0.209,7.355,8.029,7.389c13.888,0.068,27.778-0.026,41.674-0.034
		c47.302-0.007,94.6-0.007,141.896-0.014c1.985,0,3.977-0.04,5.96,0.021c7.989,0.236,11.62,5.884,8.548,13.171
		c-0.971,2.315-2.981,2.342-4.938,2.362c-5.952,0.074-11.903,0.122-17.862,0.034c-3.325-0.048-4.932,1.282-4.643,4.696
		c0.081,0.985,0.054,1.984-0.013,2.976c-0.904,12.477-9.502,21.215-21.425,21.815c-11.25,0.561-21.521-8.258-23.302-20.108
		c-0.243-1.619-0.33-3.347-0.007-4.933c0.784-3.906-1.362-4.514-4.454-4.406c-1.983,0.082-3.961,0.082-5.945,0.021
		c-2.889-0.082-4.244,1.302-4.235,4.143c0,1.646,0.054,3.306-0.056,4.953c-0.735,11.458-10.048,20.257-21.572,20.447
		c-10.898,0.181-20.542-8.119-22.263-18.821c-0.513-3.212,1.405-7.193-1.228-9.501c-3.159-2.767-7.605-0.952-11.479-1.262
		c-2.956-0.229-5.979,0.237-8.921-0.094c-7.43-0.843-13.496,1.167-18.28,7.193c-2.786,3.522-6.576,5.014-11.366,4.757
		c-7.589-0.391-15.214-0.175-22.822-0.047c-4.407,0.074-6.675-1.552-6.925-6.276c-0.28-5.209-0.938-10.52-6.218-13.563
		L604.632,270.91z M612.3,268.811c-0.133-1.289-0.636-2.159-2.151-1.856c0.148-23.826,0.294-47.646,0.433-71.474
		c0-0.983-0.027-1.988-0.163-2.967c-0.26-1.878-1.456-3.07-3.275-3.029c-13.535,0.317-27.119-1.367-40.594,1.127
		c-5.073,0.945-8.127,4.015-9.929,8.678c-3.084,7.992-6.222,15.962-9.379,23.926c-3.067,7.759-4.887,15.682-4.245,24.15
		c0.4,5.263,0.063,10.587-0.003,15.885c-0.03,1.95,0.216,4.495-1.957,5.183c-5.527,1.734-4.071,6.141-4.082,9.865
		c-0.015,6.243,0.114,6.383,5.789,6.546c3.593,0.101,7.582,0.581,10.709-0.742c3.121-1.316,2.359-5.79,3.472-8.813
		c6.155-16.661,24.106-24.428,40.569-17.625c5.022,2.071,8.597,6.032,12.925,9.009c0.079,1.254,0.471,2.186,1.99,2.03
		c1.161,4.414,2.392,8.799,3.45,13.233c0.454,1.91,1.519,2.861,3.387,2.861c7.932,0.007,15.865,0.007,23.793-0.061
		c2.587-0.027,4.204-1.95,5.67-3.671c5.351-6.309,11.903-8.481,20.19-7.793c7.86,0.662,15.836,0.021,23.765-0.169
		c1.722-0.046,3.543-1.012,3.598-2.8c0.066-2.422-2.295-1.728-3.625-1.728C665.86,268.602,639.078,268.717,612.3,268.811z
		 M713.36,268.548c-9.346-0.074-16.893,7.214-17.207,16.62c-0.325,9.724,7.437,17.599,17.281,17.538
		c9.285-0.04,17.16-7.557,17.423-16.633C731.127,276.558,723.218,268.628,713.36,268.548z M789.355,285.411
		c1.39-9.049-8.778-17.362-16.546-17.005c-9.919,0.452-17.747,7.639-17.599,17.356c0.142,9.271,7.739,16.897,16.965,17.025
		C782.264,302.915,789.39,295.715,789.355,285.411z M803.46,268.582c0-0.007,0-0.014,0-0.02c-3.604,0-7.208-0.088-10.806,0.054
		c-1.046,0.041-2.807-0.23-2.726,1.653c0.055,1.417,1.167,2.315,2.464,2.733c0.911,0.291,1.924,0.405,2.882,0.405
		c5.884,0,11.774-0.008,17.658-0.122c1.526-0.027,3.484,0.013,3.658-2.193c0.183-2.321-1.741-2.436-3.319-2.483
		C809.999,268.507,806.727,268.582,803.46,268.582z M743.915,273.643c2.429-0.236,5.993-0.452,9.501-1.012
		c1.261-0.203,2.307-1.491,2.146-2.854c-0.054-0.486-1.553-1.12-2.396-1.127c-6.83-0.067-13.672-0.021-20.509,0.047
		c-0.884,0.014-2.091,0.264-1.956,1.37c0.096,0.844,0.789,1.917,1.525,2.322C735.555,274.223,739.258,273.083,743.915,273.643z"/>
	<path fill-rule="evenodd" clip-rule="evenodd" d="M728.266,260.625c-25.155-0.006-50.313-0.026-75.471,0
		c-8.421,0.007-9.213,0.291-11.194-8.617c-4.655-20.898-10.07-41.629-15.173-62.429c-0.396-1.605-0.774-3.216-1.218-4.804
		c-1.991-7.211-2.001-7.318-9.136-7.375c-12.579-0.088-25.158-0.004-37.735-0.021c-12.106-0.021-13.508-1.748-11.813-13.682
		c0.406-2.841,1.673-4.113,4.417-4.154c1.317-0.02,2.646-0.07,3.965-0.07c23.837,0.004,47.672-0.027,71.502,0.048
		c7.271,0.022,7.338,0.192,9.247,7.402c0.338,1.272,0.305,2.646,0.663,3.908c1.843,6.613,1.869,6.761,8.663,6.798
		c19.199,0.094,38.397,0.047,57.597,0.047c35.426-0.007,70.84-0.01,106.26-0.014c1.984,0,3.975-0.057,5.958,0.018
		c6.802,0.25,7.396,0.819,7.693,7.288c0.06,1.326-0.129,2.669,0.055,3.971c0.654,4.771-1.91,6.873-6.169,6.812
		c-5.324-0.075-7.193,2.355-8.307,7.47c-3.367,15.473-7.45,30.792-11.255,46.176c-0.397,1.586-0.966,3.152-1.175,4.771
		c-0.688,5.385-3.827,6.606-8.921,6.566C780.57,260.504,754.415,260.625,728.266,260.625z M728.165,255.146
		c24.806,0,49.599,0.033,74.404-0.028c7.259-0.013,7.383-0.114,9.138-7.146c3.893-15.643,7.677-31.312,11.456-46.99
		c1.344-5.591,2.443-11.053,10.419-10c3.091,0.408,3.437-2.446,3.307-4.889c-0.142-2.712-2.187-2.922-4.218-2.965
		c-2.645-0.057-5.298-0.048-7.942-0.048c-52.904-0.003-105.815-0.003-158.72-0.003c-2.32,0-4.644-0.125-6.95,0.008
		c-3.138,0.181-5.007-1.232-5.83-4.167c-0.438-1.583-0.77-3.195-1.188-4.791c-2.604-9.875-2.611-9.916-13.305-9.927
		c-19.836-0.014-39.675-0.01-59.506,0.088c-3.075,0.017-7.522-1.211-7.763,3.641c-0.282,5.884,4.836,4.265,8.049,4.316
		c12.893,0.212,25.798-0.065,38.687,0.185c9.63,0.182,9.567,0.432,11.788,9.615c5.268,21.79,10.578,43.566,15.918,65.335
		c1.88,7.652,1.946,7.739,9.836,7.753C679.888,255.179,704.027,255.146,728.165,255.146z"/>
	<path fill-rule="evenodd" clip-rule="evenodd" d="M604.318,270.592c-0.9,3.3,1.806,5.493,2.614,8.28
		c3.001,10.392-1.056,20.777-10.668,26.163c-9.693,5.451-21.392,3.104-28.439-5.689c-6.659-8.326-6.37-20.169,0.696-28.293
		c7.257-8.341,18.226-10.17,27.828-4.974c2.827,1.532,4.603,4.832,8.282,4.832L604.318,270.592z M585.984,268.534
		c-9.63-0.168-17.214,6.795-17.586,16.127c-0.398,10.042,6.846,17.889,16.69,18.105c9.931,0.208,17.613-7.315,17.559-17.221
		C602.598,275.957,595.485,268.689,585.984,268.534z"/>
	<path fill-rule="evenodd" clip-rule="evenodd" fill="#FFFFFF" d="M610.418,266.672c-4.328-2.977-7.902-6.938-12.925-9.009
		c-16.463-6.802-34.414,0.965-40.569,17.625c-1.112,3.023-0.351,7.497-3.472,8.813c-3.127,1.323-7.116,0.843-10.709,0.742
		c-5.675-0.163-5.804-0.303-5.789-6.546c0.011-3.724-1.445-8.131,4.082-9.865c2.173-0.688,1.927-3.232,1.957-5.183
		c0.066-5.297,0.403-10.622,0.003-15.885c-0.642-8.469,1.178-16.391,4.245-24.15c3.157-7.963,6.295-15.934,9.379-23.926
		c1.802-4.663,4.855-7.732,9.929-8.678c13.475-2.494,27.059-0.81,40.594-1.127c1.819-0.041,3.016,1.151,3.275,3.029
		c0.136,0.979,0.163,1.984,0.163,2.967c-0.139,23.827-0.284,47.647-0.433,71.474L610.418,266.672z M569.541,233.323
		c0,0.034,0,0.055,0,0.088c4.29,0,8.571,0.026,12.868-0.007c2.309-0.026,4.507-0.27,6.477-1.876
		c9.383-7.618,18.321-15.412,14.887-29.499c-0.152-0.624-0.067-1.315-0.044-1.97c0.142-3.833-1.975-5.345-5.509-5.287
		c-8.571,0.128-17.141,0.232-25.706,0.489c-5.855,0.171-10.073,3.195-12.31,8.476c-3.323,7.851-6.435,15.813-9.35,23.83
		c-1.475,4.036-0.544,5.398,3.853,5.682C559.631,233.573,564.597,233.323,569.541,233.323z"/>
	<path fill-rule="evenodd" clip-rule="evenodd" fill="#FFFFFF" d="M612.3,268.811c26.778-0.094,53.561-0.208,80.336-0.236
		c1.33,0,3.691-0.694,3.625,1.728c-0.055,1.788-1.876,2.753-3.598,2.8c-7.929,0.19-15.904,0.831-23.765,0.169
		c-8.287-0.688-14.84,1.484-20.19,7.793c-1.466,1.721-3.083,3.644-5.67,3.671c-7.928,0.067-15.861,0.067-23.793,0.061
		c-1.868,0-2.933-0.952-3.387-2.861c-1.059-4.434-2.289-8.819-3.45-13.233L612.3,268.811z"/>
	<path fill-rule="evenodd" clip-rule="evenodd" fill="#FFFFFF" d="M713.36,268.548c9.857,0.081,17.767,8.01,17.497,17.524
		c-0.263,9.076-8.138,16.594-17.423,16.633c-9.845,0.062-17.606-7.813-17.281-17.538
		C696.468,275.762,704.015,268.474,713.36,268.548z M713.92,296.464c6.565-0.223,10.925-4.933,10.703-11.58
		c-0.21-6.242-5.399-10.608-12.073-10.163c-5.775,0.391-10.561,5.459-10.445,11.074C702.212,291.842,707.585,296.68,713.92,296.464z
		"/>
	<path fill-rule="evenodd" clip-rule="evenodd" fill="#FFFFFF" d="M789.355,285.411c0.034,10.304-7.092,17.504-17.18,17.376
		c-9.226-0.128-16.823-7.753-16.965-17.025c-0.148-9.717,7.68-16.904,17.599-17.356
		C780.577,268.049,790.745,276.362,789.355,285.411z M782.992,285.998c0.162-7.342-3.427-11.127-10.533-11.114
		c-6.126,0.013-10.628,4.237-10.898,10.23c-0.284,6.289,4.468,11.121,11.046,11.249
		C778.842,296.484,782.857,292.477,782.992,285.998z"/>
	<path fill-rule="evenodd" clip-rule="evenodd" fill="#FFFFFF" d="M803.46,268.582c3.267,0,6.539-0.075,9.812,0.027
		c1.578,0.048,3.502,0.162,3.319,2.483c-0.174,2.206-2.132,2.166-3.658,2.193c-5.884,0.114-11.774,0.122-17.658,0.122
		c-0.958,0-1.971-0.115-2.882-0.405c-1.297-0.418-2.409-1.316-2.464-2.733c-0.081-1.883,1.68-1.612,2.726-1.653
		c3.598-0.142,7.201-0.054,10.806-0.054C803.46,268.567,803.46,268.575,803.46,268.582z"/>
	<path fill-rule="evenodd" clip-rule="evenodd" fill="#FFFFFF" d="M743.915,273.643c-4.657-0.56-8.36,0.58-11.688-1.255
		c-0.736-0.405-1.43-1.478-1.525-2.322c-0.135-1.106,1.072-1.356,1.956-1.37c6.837-0.067,13.679-0.114,20.509-0.047
		c0.843,0.007,2.342,0.641,2.396,1.127c0.16,1.363-0.886,2.652-2.146,2.854C749.908,273.191,746.344,273.407,743.915,273.643z"/>
	<path fill-rule="evenodd" clip-rule="evenodd" fill="#FFFFFF" d="M612.408,268.703c-1.52,0.156-1.911-0.776-1.99-2.03l-0.27,0.282
		c1.516-0.303,2.019,0.567,2.151,1.856L612.408,268.703z"/>
	<path fill-rule="evenodd" clip-rule="evenodd" fill="#FFFFFF" d="M728.165,255.146c-24.138,0-48.277,0.033-72.42-0.014
		c-7.89-0.014-7.956-0.101-9.836-7.753c-5.34-21.769-10.65-43.545-15.918-65.335c-2.221-9.184-2.158-9.433-11.788-9.615
		c-12.889-0.25-25.794,0.027-38.687-0.185c-3.213-0.051-8.331,1.568-8.049-4.316c0.24-4.852,4.688-3.624,7.763-3.641
		c19.831-0.098,39.67-0.102,59.506-0.088c10.693,0.011,10.7,0.051,13.305,9.927c0.418,1.596,0.749,3.208,1.188,4.791
		c0.823,2.936,2.692,4.349,5.83,4.167c2.307-0.132,4.63-0.008,6.95-0.008c52.904,0,105.815,0,158.72,0.003
		c2.645,0,5.298-0.009,7.942,0.048c2.031,0.043,4.076,0.253,4.218,2.965c0.13,2.443-0.216,5.297-3.307,4.889
		c-7.976-1.053-9.075,4.409-10.419,10c-3.779,15.679-7.563,31.348-11.456,46.99c-1.755,7.031-1.879,7.132-9.138,7.146
		C777.764,255.179,752.971,255.146,728.165,255.146z"/>
	<path fill-rule="evenodd" clip-rule="evenodd" fill="#FFFFFF" d="M585.984,268.534c9.501,0.155,16.613,7.423,16.663,17.012
		c0.055,9.906-7.628,17.429-17.559,17.221c-9.845-0.217-17.089-8.064-16.69-18.105C568.771,275.329,576.354,268.366,585.984,268.534
		z M596.218,285.276c-0.139-6.032-4.475-10.277-10.546-10.311c-6.712-0.048-11.019,4.305-10.846,10.952
		c0.162,6.262,4.218,10.291,10.504,10.433C591.74,296.491,596.366,291.788,596.218,285.276z"/>
	<path fill-rule="evenodd" clip-rule="evenodd" d="M569.541,233.323c-4.944,0-9.91,0.25-14.834-0.074
		c-4.396-0.284-5.327-1.646-3.853-5.682c2.915-8.017,6.026-15.979,9.35-23.83c2.236-5.28,6.454-8.304,12.31-8.476
		c8.565-0.257,17.135-0.361,25.706-0.489c3.534-0.058,5.65,1.454,5.509,5.287c-0.023,0.655-0.108,1.346,0.044,1.97
		c3.435,14.087-5.504,21.881-14.887,29.499c-1.97,1.606-4.168,1.85-6.477,1.876c-4.297,0.033-8.578,0.007-12.868,0.007
		C569.541,233.377,569.541,233.357,569.541,233.323z M572.104,228.775c9.822,2.895,17.399-3.394,24.114-11.101
		c4.141-4.737,3.039-10.898,1.562-16.037c-1.221-4.268-6.318-1.72-9.67-2.26c-1.287-0.206-2.632-0.061-3.95-0.047
		c-16.435,0.138-17.621,0.661-23.16,15.693C555.823,229.093,552.717,228.917,572.104,228.775z"/>
	<path fill-rule="evenodd" clip-rule="evenodd" d="M713.92,296.464c-6.335,0.216-11.708-4.623-11.815-10.668
		c-0.115-5.614,4.67-10.683,10.445-11.074c6.674-0.446,11.863,3.92,12.073,10.163C724.845,291.531,720.485,296.241,713.92,296.464z
		 M719.353,286.139c-0.23-3.428-1.903-5.634-5.244-6.268c-3.319-0.627-6.66,2.24-6.538,5.662c0.113,3.481,2.093,5.499,5.574,5.601
		C716.53,291.228,718.685,289.5,719.353,286.139z"/>
	<path fill-rule="evenodd" clip-rule="evenodd" d="M782.992,285.998c-0.135,6.479-4.15,10.486-10.386,10.365
		c-6.578-0.127-11.33-4.959-11.046-11.249c0.271-5.993,4.772-10.217,10.898-10.23C779.565,274.871,783.154,278.656,782.992,285.998z
		 M778.087,285.269c0-3.144-2.308-5.102-5.884-5.061c-3.753,0.047-5.264,2.105-5.128,5.655c0.126,3.501,2.327,5.627,5.627,5.283
		C776.163,290.789,777.911,288.704,778.087,285.269z"/>
	<path fill-rule="evenodd" clip-rule="evenodd" d="M596.218,285.276c0.148,6.512-4.478,11.215-10.888,11.074
		c-6.286-0.142-10.342-4.17-10.504-10.433c-0.173-6.647,4.134-11,10.846-10.952C591.743,274.999,596.079,279.244,596.218,285.276z
		 M585.037,280.255c-2.858,0.229-5.314,2.099-5.284,5.344c0.026,3.179,2.352,5.325,5.78,5.378c3.548,0.054,5.351-2.173,5.718-5.419
		C591.582,282.672,588.697,280.161,585.037,280.255z"/>
	<path fill-rule="evenodd" clip-rule="evenodd" fill="#FFFFFF" d="M572.104,228.775c-19.387,0.142-16.28,0.318-11.104-13.752
		c5.539-15.032,6.726-15.555,23.16-15.693c1.318-0.014,2.663-0.159,3.95,0.047c3.352,0.54,8.449-2.008,9.67,2.26
		c1.478,5.139,2.579,11.299-1.562,16.037C589.503,225.381,581.926,231.669,572.104,228.775z"/>
	<path fill-rule="evenodd" clip-rule="evenodd" fill="#FFFFFF" d="M719.353,286.139c-0.668,3.361-2.822,5.088-6.208,4.995
		c-3.481-0.102-5.461-2.119-5.574-5.601c-0.122-3.422,3.219-6.29,6.538-5.662C717.449,280.505,719.122,282.711,719.353,286.139z"/>
	<path fill-rule="evenodd" clip-rule="evenodd" fill="#FFFFFF" d="M778.092,285.269c-0.181,3.435-1.929,5.52-5.39,5.877
		c-3.3,0.344-5.501-1.781-5.627-5.283c-0.136-3.55,1.375-5.608,5.128-5.655C775.779,280.167,778.087,282.125,778.092,285.269z"/>
	<path fill-rule="evenodd" clip-rule="evenodd" fill="#FFFFFF" d="M585.037,280.255c3.66-0.095,6.545,2.417,6.214,5.304
		c-0.367,3.246-2.17,5.473-5.718,5.419c-3.429-0.054-5.754-2.199-5.78-5.378C579.723,282.354,582.179,280.485,585.037,280.255z"/>
</g>
</svg>
