<?xml version="1.0" encoding="utf-8"?>
<!-- Generator: Adobe Illustrator 16.0.3, SVG Export Plug-In . SVG Version: 6.00 Build 0)  -->
<!DOCTYPE svg PUBLIC "-//W3C//DTD SVG 1.1//EN" "http://www.w3.org/Graphics/SVG/1.1/DTD/svg11.dtd">
<svg version="1.1" id="Capa_1" xmlns="http://www.w3.org/2000/svg" xmlns:xlink="http://www.w3.org/1999/xlink" x="0px" y="0px"
	 width="500px" height="500px" viewBox="-135 -215 500 500" enable-background="new -135 -215 500 500" xml:space="preserve">
<g>
	<path fill="#C91414" d="M123.145-213.257c2.616,3.158,6.381,2.172,9.607,2.378c53.857,3.301,101.095,23.229,142.064,58.208
		c42.508,36.282,70.201,82.118,81.646,137.067C379.45,94.87,327.78,206.328,224.915,258.616
		c-16.921,8.609-34.581,15.338-53.264,19.034c-3.604,0.707-13.312,1.896-21.116,2.564c-10.078,0.87-17.036,0.854-3.803-2.168
		c23.494-5.375,35.52-7.372,52.625-13.838c17.221-6.51,33.518-14.675,48.899-24.751c15.611-10.256,29.746-22.346,42.578-36.004
		c12.841-13.658,23.927-28.614,33.312-44.891c9.361-16.239,16.675-33.331,22.188-51.239c5.449-17.723,8.567-35.901,10.021-54.364
		c1.478-18.775,0.446-37.509-2.648-56.018c-20.53-122.907-126.975-209.325-249.801-203.284
		C-12.053-200.64-108.732-113.109-123.393,7.033c-15.455,126.62,69.992,250.729,207.015,270.946
		c-5.131,0.753,21.508,7.93-15.158,0.658c-36.667-7.287-31.652-6.642-46.772-13.253c-71.683-31.374-119.261-84.911-142.136-160.276
		c-8.499-27.976-11.348-56.816-8.83-86.173c7.732-90.323,51.94-156.74,129.313-201.348c22.074-12.722,46.047-21.004,71.043-25.037
		c8.756-1.418,17.618-3.979,26.794-3.446c3.121,0.191,6.962,0.956,9.486-2.353C112.645-213.257,117.895-213.257,123.145-213.257z"/>
	<path fill="#259FF1" d="M115.407-201.505C241.651-201.696,337.78-102.83,349.666,6.166c8.044,73.692-11.985,137.822-61.432,192.254
		c-38.061,41.892-85.828,66.147-141.618,73.452c-76.474,10.007-142.579-13.179-197.211-67.4
		c-45.936-45.583-68.726-101.928-69.338-167.166C-121.172-93.585-14.555-201.728,115.407-201.505z M343.684,36.39
		C343.27-90.489,242.759-192.325,118.202-193.13C-9.358-193.958-111.823-91.375-111.846,35.768
		c-0.016,128.25,102.087,231.35,230.078,230.275C243.847,264.988,343.239,162.586,343.684,36.39z"/>
	<path fill="#04056A" d="M343.684,36.39c-0.444,126.196-99.837,228.599-225.451,229.653
		C-9.766,267.117-111.869,164.018-111.853,35.768C-111.83-91.375-9.367-193.958,118.187-193.13
		C242.759-192.325,343.27-90.489,343.684,36.39z M39.144,84.938l-0.038-0.107c0.708,2.424,3.683,5.049-0.609,7.086
		c-0.338,0.171-0.332,1.103-0.481,1.663c6.617-0.421,1.343,5.119,3.465,7.194c1.174,1.165-4.143,7.286,3.19,4.334
		c0.149-0.054,0.79,0.614,0.75,0.684c-2.767,4.747,3.41,7.383,1.764,12.433c3.526-2.271,4.392-5.649,7.363-6.854
		c-0.093,4.305,0.85,5.928,3.73,6.665c0.173,0.047,0.399,0.296,0.422,0.482c0.862,5.829,3.677,0.971,5.589,1.259
		c4.543,0.731,3.654-2.805,4.338-5.538c2.279,1.343,2.569,4.452,4.604,4.124c2.702-4.894,3.574-9.976,7.787-14.085
		c2.188-2.138,2.656-7.242,3.296-11.28c0.846-5.331,2.586-10.048,0.073-15.236c-0.504-1.044,0.285-1.283,0.969-1.888
		c4.327-3.847,4.059-5.362-1.261-7.468c3.098-3.651,8.836-4.863,9.957-9.944c1.018-4.606,0.921-9.465,1.439-15.62
		c2.218,4.257,0.743,7.759,3.031,10.305c6.424-1.724,4.77-5.903,3.121-10.107c2.409-0.479,5.489,2.397,7.213-1.471
		c1.725,0.834,0.084-5.794,3.348-1.535c-0.869,0.767-0.869,1.561-0.091,2.388c-0.248,1.63-2.118,4.072-0.324,4.739
		c5.088,1.877,9.508,6.53,15.851,3.952c4.92-2.009,10.078-3.435,15.136-5.104c-0.786,1.974-2.879,3.665,1.555,4.684
		c11.101,2.535,31.825-5.246,38.791-15.29c4.703-4.001,5.604-9.45,6.165-15.228c0.278-2.918-1.254-2.674-3.001-2.728l-0.27,0.04
		c-0.007-0.928,1.809-1.583,0.562-2.568c-0.498-0.4-1.854-0.385-2.324,0.022c-1.179,1.036-1.093,2.171,0.579,2.811
		c-2.335,6.233-4.66,12.473-6.983,18.718c-1.693-0.118-1.964,1.073-2.124,2.355l0.16-0.104c-10.338-0.382-19.292,5.981-29.508,6.177
		c-1.276,0.435-2.555,0.867-3.849,1.302c-1.086-2.774-2.801-1.552-4.704-0.977c-4.764,1.453-9.529,2.918-14.403,3.815
		c-3.687,0.704-7.451,0.408-7.975-4.794l0.339-0.097l-0.03-0.373c2.063,0.564,3.141,2.833,5.742,2.749
		c5.574-0.173,9.915-4.781,15.657-4.253c0.285,0.032,0.925-1.829,1.094-2.865c0.223-1.407-1.124-1.025-1.801-1.145
		c-1.708-0.301-3.741,0.923-5.42-1.144c4.973-3.416,11.161-3.346,15.628-7.289c1.348-1.176,3.417-2.139,2.54-3.755
		c-1-1.884-3.118-0.502-4.65,0.159c-5.033,2.154-10.161,3.945-15.504,5.043c-6.281-1.954-9.307-8.11-7.145-15.695
		c1.879-6.662,2.619-13.271,1.325-20.073c5.881,0.634,4.427-4.211,4.719-7.083c0.338-3.43,1.101-7.702-4.119-8.68
		c-0.275-0.054-0.66,0.453-0.984,0.701c-1.802-2.132-3.38-4.493-5.413-6.357c-5.38-4.93-12.046-5.679-16.254-2.114
		c-1.42,0.169-2.505,0.866-3.349,2.021c-1.45,1.119-3.225,1.975-3.375,4.548c6.708-0.994,12.17,1.33,16.842,5.832
		c-2.601-0.056-4.557,0.683-4.68,3.771c-0.832-0.35-1.201,0.113-1.446,0.828c-2.404,1.107-5.821,0.66-6.198,4.712
		c-0.418,4.478,1.174,10.745-7.067,9.338c-0.235-0.04-0.581,0.593-0.889,0.906c-6.274,6.427-4.053,14.702-4.823,22.348
		c-0.497,4.805,4.603,3.042,5.913,5.571c0.25,0.499,0.203,1.161,0.315,1.74c-3.068,0.302-8.122-2.683-7.09,4.376
		c-7.495,0.995-12.271,5.02-13.668,12.671c-0.362,1.951-0.331,4.718,1.215,5.348c2.444,1.002,2.783-2.02,3.711-3.582
		c2.02-3.379,4.686-9.988,5.754-9.729c6.805,1.641,1.847-3.46,3.083-4.66c1.277,0.054,2.557,0.113,3.821,0.169
		c4.473,3.124,2.879,6.048-0.289,8.91c-6.932,6.273-13.93,12.481-20.773,18.852c-2.43,2.252-6.967,4.964,0.813,6.464
		c3.686,0.709,5.659,4.662,4.392,7.661c-2.61,6.162-4.007,13.79-12.891,15.081c2.036,2.36,3.602,1.941,5.21,1.116
		c2.248,1.112,2.136-1.187,2.995-2.109c1.714,4.217,1.728,7.611-0.157,12.506c-1.718,4.477-4.974,4.136-6.56,4.211
		c-3.167,0.173-2.129-3.635-2.001-5.639c0.315-5.555-2.775-7.801-7.448-8.229c-1.698-0.163-4.52-0.535-4.03-1.343
		c1.774-2.905-0.912-8.346,2.309-8.702c4.722-0.521,4.881-4.707,7.429-6.325c3.055,0.118,0.182,5.175,3.575,4.304
		c2.241-0.565,5.024-2.167,5.936-4.094c1.877-3.922-3.561-3.598-4.832-6.176c-0.435-0.863-5.196-2.128-6.597,1.104
		c-2.533,5.812-5.694,10.054-12.849,8.452c-0.338-0.077-0.789,0.325-1.17,0.506c-0.588-3.489,3.272-6.504,0.985-10.155
		c3.33-4.142,7.515-7.863,9.784-12.524c3.361-6.898,9.839-5.998,15.208-8.001c0.016,0.417-0.042,0.845,0.07,1.243
		c0.037,0.138,0.45,0.17,0.693,0.256c0.007-0.212,0.042-0.428,0.042-0.638c0.007-5.238,0-10.462,0-15.705
		c-0.308,0-0.616-0.017-0.924-0.023c-0.331,1.861-0.654,3.732-0.971,5.593c-1.218,2.059-2.378,2.575-3.254-0.204
		c-0.624-1.974-0.166-4.387-2.122-5.707c-2.733-0.207-0.415,4.271-3.506,3.532c-2.318-1.925,0.03-5.514-2.687-7.924
		c-0.166,1.938-0.435,3.251-0.367,4.543c0.358,6.443-0.707,10.621-8.733,11.956c-7.614,1.259-7.463,2.829-2.79,9.446
		c0.315,0.453,0.285,1.15,0.368,1.571c-1.37,1.81-5.531-0.87-4.596,1.521c2.564,6.512-3.94,2.86-4.733,4.685
		c0.189,2.331,3.86,1.89,2.866,4.025c-0.488,1.035-3.025,1.081-4.64,1.578c3.467,0.069,3.082,5.299,6.589,4.801
		c-0.112,1.786-0.212,3.551-0.332,5.329c-3.176-1.203-3.791,2.689-6.771,2.744C36.039,89.003,37.008,85.28,39.144,84.938z
		 M83.637-4.438c3.58,1.496,7.048,1.781,11.185-1.107c-2.229-0.715-3.603-1.155-4.972-1.59c-3.399-3.854-12.178-6.344-16.264-4.472
		c-1.227,0.556-0.881,1.788-0.399,2.825C74.209-2.874,79.23-0.78,83.637-4.438z M188.695,11.844
		c1.102-1.358,2.263,3.614,3.334-0.028c6.458-3.4,4.342-8.943,3.017-13.877c-1.355-5.088-5.511-5.602-10.015-4.79
		c-1.277,0.234-2.604,0.225-3.911,0.334c-1.27-5.909-6.229-7.51-10.877-9.469c-4.419-2.33-11.071,0.502-12.627,5.466
		c-1.023,3.28-1.862,6.604-2.793,9.914c-2.188,2.233-0.978,3.424,1.315,4.161c4.612,1.496,8.015-0.615,10.67-7.374
		c-2.864,2.925-5.435,3.427-8.253,1.981c2.155-2.896,1.571-7.163,4.683-9.579c3.755,4.216,9.366,6.324,12.439,11.289
		c-3.156,7-9.631,11.059-14.459,16.563c-0.862,4.449-8.036,2.999-8.252,8.87c3.273-1.973,6.666-2.474,8.961-5.035
		c0.893,0.971,3.373,1.998,1.125,3.341c-5.513,3.294-9.3,9.141-16.29,10.409c-2.11,0.378-5.274,1.296-6.959,4.324
		c3.063,0.875,5.727,4.601,8.299,0.867c2.632-3.794,6.766-5.56,9.799-8.839c2.627-2.837,9.078-6.512,10.216-5.538
		c4.52,3.899,5.751,0.319,7.884-2.003c3.518-1.52,8.005-2.455,4.927-8.09c1.308-3.368-2.003-7.512,1.755-10.464
		C183.167,8.011,182.144,12.992,188.695,11.844z M-20.362,187.713c0.014,2.075-3.588,1.631-2.868,4.195
		c-1.667,0.319-2.314,0.949-1.044,2.58c6.957,8.987,21.364,10.754,30.2,3.604c2.091-1.7,4.012-3.604,6.063-5.468
		c3.588,8.42,5.754,9.89,11.004,7.217c1.91-0.955,3.674-2.447,5.117-4.039c2.855-3.164,4.106-2.416,5.857,1.22
		c2.987,6.245,7.63,7.776,14.135,5.021c10.47-4.431,16.224-13.69,22.144-22.704c0.786-1.213,0.905-2.594-0.766-3.232
		c-1.37-0.513-2.895-1.383-4.123,0.372c-1.263,1.803-2.451,3.66-3.823,5.368c-4.083,5.092-7.559,10.763-13.907,13.55
		c-4.375,1.921-7.575,0.816-8.259-3.906c-0.49-3.312-2.707-8.422,4.475-8.237c3.476,0.094,5.966-2.61,7.995-5.249
		c5.138-6.682,8.885-14.087,11.097-22.277c0.82-3.044,1.947-6.519-1.363-8.313c-3.453-1.872-6.763-0.334-9.296,2.681
		c-4.256,5.067-7.589,10.736-10.72,16.517c-4.069,7.553-7.598,15.416-13.163,22.036c-1.347,1.601-3.21,3.761-5.536,2.36
		c-2.414-1.429-1.197-4.069-0.408-5.981c1.755-4.243,3.98-8.299,5.801-12.508c0.574-1.33,1.142-3.271-0.371-4.251
		c-1.357-0.861-3.091-0.211-4.164,1.01c-2.6,2.96-5.17,5.958-7.561,9.098c-4.222,5.532-7.26,12.214-15.077,15.051
		c0.497-5.399,4.561-8.285,6.898-12.082c2.483-4.063,5.13-8.025,7.81-12.183c-3.973-2.051-6.597-0.402-9.418,1.485
		c-4.527,3.013-8.318,7.185-13.697,8.887c-3.46,1.102-7.078,2.02-9.795-1.08c-2.541-2.873-1.293-6.307,0.173-9.339
		c4.564-9.426,11.786-16.284,20.858-21.164c1.466-0.776,3.373-0.979,5.084-0.994c3.777-0.014,4.507,2.121,2.972,5.236
		c-0.568,1.156-1.45,2.215-2.381,3.131c-1.609,1.561-0.613,2.726,0.361,3.963c0.908,1.143,1.917,1.639,3.413,1.096
		c3.107-1.111,8.273-8.873,7.123-11.856c-1.601-4.141-4.234-7.116-9.597-6.915c-13.684,0.505-31.833,14.062-35.497,27.317
		C-26.53,175.841-26.291,182.509-20.362,187.713z M31.224,50.442c-0.348-1.643-1.205-2.962-2.537-3.973
		c-0.813-3.397,1.409-2.815,3.379-2.681c4.139,0.288,2.775-2.054,1.894-4.137c-0.255-15.418-0.381-30.829,5.061-45.619
		c11.193-30.447,29.955-52.173,63.8-56.575c7.399,0.007,14.812,0.014,22.217,0.021c28.391,3.151,48.452,17.436,57.768,45.162
		c1.9,5.648,4.789,7.721,10.022,7.962c3.095,0.144,6.175,0.273,8.346,3.024c4.881,6.192,3.587,21.664-3.449,25.102
		c-7.013,3.411-8.697,7.948-8.007,14.741c0.063,0.625-0.229,1.295-0.315,1.948c-3.718,28.427-14.188,54.361-29.022,78.572
		c-3.21,5.243-0.916,6.924,3.164,9.314c4.035,2.377,8.623,3.373,12.317,6.86c5.466,5.168,8.392,4.56,13.365-1.218
		c37.622-43.62,52.972-93.63,41.23-150.86c-5.819-28.41-19.814-51.958-44.219-68.403c-16.658-11.241-35.52-15.949-55.026-18.249
		C78.371-114.789,31.154-92.343,7.242-41.317C-10.637-3.142-12.691,36.829-4.29,77.651c3.768,18.273,10.958,35.182,21.371,50.721
		c3.16,4.731,5.754,6.306,10.295,1.854c2.853-2.788,6.245-5.019,9.396-7.497c0.551-1.468,1.098-2.938,1.648-4.397
		c-6.898,0.591-2.325-3.822-1.948-5.452c1.174-5.036-1.097-5.572-4.988-4.756c5.185-4.304-2.603-9.199,1.197-13.479
		c-3.076-0.258-5.551-0.476-9.123-0.787c4.729-4.69,5.551-8.25-1.937-9.68c2.364-2.004,3.973-3.363,5.604-4.749
		c-2.391-2.297-7.618-4.257-0.435-6.627c2.226-0.73,2.152-2.438,1.536-4.285c-0.304-0.943-1.708-2.552-0.557-2.784
		c7.158-1.367,2.405-5.518,2.182-8.593c1.563-0.452,4.249,0.9,4.564-0.794C34.961,54.11,32.952,52.106,31.224,50.442z
		 M161.381,189.873c8.577,0.094,9.953-0.784,13.004-8.516c0.953-2.438,1.447-5.064,2.324-7.537c1.132-3.153-0.224-5.282-2.587-7.023
		c-2.54-1.887-4.974-0.946-7.189,0.637c-3.525,2.526-5.359,6.295-7.051,10.147c-1.94,4.431-3.834,8.883-5.96,13.225
		c-0.77,1.554-2.202,2.889-4.249,2.176c-1.926-0.668-2.426-2.379-2.51-4.242c-0.339-6.372,5.419-15.244,11.607-17.824
		c1.071-0.436,2.573-1.334,2.096-2.111c-3.05-4.764,1.931-6.185,3.503-8.922c1.748-3.027,3.934-5.795,5.026-9.199
		c0.662-2.081,0.738-3.992-1.14-5.36c-2.001-1.459-3.648-0.342-5.243,1.044c-3.586,3.105-5.489,7.363-7.69,11.396
		c-1.984,3.619-2.186,8.787-7.967,8.941c0.362,1.578-4.396,2.322-0.754,4.398c1.985,1.127,0.685,2.215,0.015,3.114
		c-5.088,6.847-9.731,14.071-17.637,18.252c-3.642,1.927-5.704,1.024-7.068-2.442c-0.461-1.165-0.461-3.34,1.41-2.639
		c10.532,3.884,12.602-4.462,15.759-10.971c1.308-2.672,2.771-5.844-0.255-8.508c-3.024-2.673-6.504-2.27-9.86-0.8
		c-7.561,3.324-10.579,10.154-12.703,17.488c-2.277,7.792-9.792,11.809-17.07,8.882c-2.288-0.926-1.687-2.101-0.775-4.002
		c4.188-8.727,7.482-17.934,12.257-26.302c4.033-7.1,8.638-14.558,17.621-16.376c2.408-0.498,7.35-2.409,5.704,4.133
		c-0.507,1.973,0.229,3.995,2.793,4.422c2.765,0.456,4.043-1.173,4.65-3.536c0.901-3.544,0.017-6.696-2.826-8.919
		c-6.527-5.128-14.471-4.794-21.123,0.638c-4.172,3.404-6.836,7.916-8.961,12.756c-2.995,6.808-6.003,13.613-8.649,20.559
		c-2.925,7.715-7.447,13.362-15.986,14.762c-3.264,0.535-5.827,2.021-6.408,5.626c-0.362,2.205,0.596,4.086,2.394,5.063
		c2.998,1.646,5.874,1.026,8.467-1.218c3.681-3.193,7.787-3.441,12.314-2.005c4.712,1.482,9.453,1.416,14.134-0.545
		c1.801-0.761,3.802-1.655,5.712-0.644c6.489,3.418,10.993-0.784,15.703-4.08c1.317-0.908,1.917-2.881,3.967-2.789
		c2.223,10.566,4.518,11.786,13.355,5.905c3.079-2.059,3.602-0.101,4.981,1.353c4.441,4.661,9.575,4.815,13.957,0.115
		c2.323-2.523,4.188-5.508,6.428-8.516c2.625,10.73,7.644,14.366,17.774,6.986c1.948-1.415,3.403-2.79,5.119,0.35
		c3.164,5.804,7.415,5.274,11.879,1.568c1.525-1.259,2.464-1.585,4.465-0.311c7.414,4.733,12.864,3.909,19.215-2.27
		c5.297-5.149,8.361-11.754,11.771-18.141c1.031-1.941,1.239-4.911,5.166-4.306c-1.972,6.551-6.605,11.982-6.929,18.898
		c-0.116,2.438-1.663,5.469,1.046,7.036c2.733,1.569,5.959,1.151,8.762-0.559c5.111-3.09,9.267-7.311,13.24-11.731
		c1.002-1.104,2.786-2.16,1.017-3.729c-1.617-1.445-2.788,0.358-3.826,1.291c-3.273,2.881-6.428,5.904-9.678,8.84
		c-1.632,1.491-3.765,2.046-5.311,0.499c-1.447-1.453-0.063-2.845,0.969-4.43c2.864-4.412,5.251-9.138,7.722-13.798
		c2.179-4.144,3.366-8.072-3.201-9.161c-1.456-0.249-2.311-1.033-2.457-2.608c-0.284-3.148-1.708-5.354-5.097-3.784
		c-3.231,1.489-6.003,3.759-4.741,8.126c0.509,1.804,2.316,3.153,1.116,5.485c-2.826,5.445-5.228,11.281-9.639,15.6
		c-2.524,2.471-4.98,5.688-8.968,6.154c-2.187,0.264-3.973-0.419-4.019-3.091c-0.015-1.712-0.292-3.404,2.387-3.715
		c8.868-1.011,14.735-7.256,15.336-16.02c0.136-2.021,0.176-4.337-2.465-4.539c-5.359-0.404-10.754-1.352-14.041,5.144
		c-3.079,6.061-6.969,11.687-10.746,17.324c-1.157,1.711-3.074,3.917-5.398,2.41c-1.809-1.173-1.146-3.698-0.393-5.51
		c1.778-4.249,3.834-8.382,5.644-12.616c0.516-1.204,2.257-2.866-0.009-3.877c-1.492-0.669-3.449-1.181-4.663,0.822
		c-0.563,0.933-1.018,1.943-1.525,2.925c-3.048,5.84-6.743,11.279-10.908,16.36c-1.686,2.059-3.979,3.854-6.722,4.476
		c-1.553,0.358-3.572,1.174-4.627-0.948c-1.931-3.869-0.624-7.771,0.169-11.653c0.425-2.021,1.873-1.486,3.064-1.136
		c3.874,1.136,6.337-1.08,8.431-3.698c5.258-6.572,9.054-14.017,11.607-22.018c1.387-4.32,1.479-9.245-3.171-11.507
		c-4.604-2.222-6.897,2.275-9.438,5.181c-0.269,0.329-0.484,0.747-0.708,1.12c-5.558,9.541-10.993,19.158-15.736,29.174
		c-2.146,4.514-4.833,8.896-8.56,12.408C167.533,196.96,164.476,196.175,161.381,189.873z M292.792,97.932
		c-0.054-0.451-0.1-0.911-0.146-1.386c5.08-1.592,10.083-3.558,15.272-4.706c4.912-1.104,6.05-4.94,6.713-8.688
		c0.756-4.226-3.672-3.676-5.912-4.489c-6.943-2.534-14.18-4.288-21.124-6.823c-3.525-1.287-5.527-1.521-6.659,2.829
		c-0.984,3.815-1.17,6.379,3.672,6.852c1.671,0.172,3.232,1.29,4.888,1.818c1.473,0.467,3.073,0.607,2.981,2.766
		c-0.126,2.315-2.172,1.866-3.419,2.238c-3.479,1.041-7.052,1.764-10.563,2.843c-4.75,1.462-4.803,5.548-5.356,8.849
		c-0.57,3.413,3.156,3.397,5.487,3.963c7.121,1.747,13.387,6.031,20.902,6.829c3.147,0.342,5.741,2.892,7.282-2.478
		c1.293-4.575,0.137-6.286-4.126-7.216C299.319,100.394,296.086,99.025,292.792,97.932z M-52.811,16.492
		c0-1.663,0.126-3.875-0.023-6.076c-0.265-3.831-1.031-7.447-4.974-9.351c-4.002-1.935-7.787-1.656-10.696,1.774
		c-2.318,2.728-3.091,0.216-4.55-0.748c-6.108-4.01-12.59-1.392-13.78,5.918c-0.954,5.854-1,11.852-1.632,17.773
		c-0.385,3.597,1.263,4.561,4.503,4.646c4.8,0.135,9.608,0.509,14.384,1.027C-53.424,33.175-53.424,33.207-52.811,16.492z
		 M48.622-158.934c-8.815,0.738-15.729,4.671-22.973,7.623c-1.708,0.698-2.017,1.915-1.277,3.72
		c3.668,8.912,7.256,17.854,10.808,26.813c1.497,3.772,3.626,1.71,5.731,0.819c2.239-0.947,5.542-0.685,4.438-4.896
		c-0.896-3.484-5.333-8.177-2.663-9.885c3.579-2.299,6.355,3.769,9.907,5.45c0.39,0.183,0.729,0.495,1.09,0.731
		c2.578,1.766,11.313,0.811,12.155-1.769c1.264-3.841-2.925-4.588-4.835-6.568c-1.022-1.076-2.378-2.005-3.755-2.499
		c-3.265-1.176-3.481-2.338-1.707-5.594C58.949-151.21,54.307-158.949,48.622-158.934z M304.608-45.478
		c-0.869-1.612-1.679-4.313-3.434-6.06c-1.54-1.538-3.764,0.025-5.281,1.177c-4.018,3.03-5.951,1.774-8.438-2.428
		c-4.048-6.78,1.771-7.707,5.052-8.965c5.774-2.22,1.354-4.918,0.753-7.121c-0.7-2.514-2.03-4.997-5.658-3.078
		c-7.813,4.169-15.588,8.504-23.647,12.118c-5.552,2.489-1.811,5.29-0.855,7.865c1.161,3.214,2.803,4.092,6.266,1.679
		c2.096-1.457,5.043-4.93,7.661-2.888c2.317,1.824,3.748,5.466,4.342,8.544c0.23,1.197-2.518,3.52-5.119,3.802
		c-1.017,0.114-1.894,1.099-2.91,1.434c-4.604,1.496-2.448,4.107-1.108,6.537c1.254,2.286,1.432,5.83,5.866,3.423
		c7.621-4.128,15.535-7.706,23.325-11.518C302.984-41.721,304.662-42.404,304.608-45.478z M114.893-155.729
		c-1.702,20.208-1.702,20.208,16.673,19.451c0.216-0.008,0.447-0.008,0.656-0.022c7.028-0.238,11.339-4.049,13.37-10.606
		c4.688-15.115-3.078-24.629-19.945-24.56c-9.869,0.032-9.861,0.032-10.401,9.762C115.1-159.061,114.937-156.42,114.893-155.729z
		 M-56.207-62.166c-1.878,0.372-4.092,0.602-6.583,1.973c-7.466,4.082-8.421,11.805-11.784,18.244
		c-1.784,3.403-0.271,5.018,2.56,5.932c5.172,1.67,9.423,5.077,14.537,7.073c13.7,5.354,13.511,5.847,18.941-7.735
		C-33.332-49.7-41.68-62.157-56.207-62.166z M211.335-109.909c8.73-0.151,17.306-10.169,17.129-20
		c-0.161-8.714-9.77-17.384-19.1-17.226c-9.206,0.151-17.905,9.49-17.959,19.245C191.366-118.719,201.313-109.752,211.335-109.909z
		 M274.369,114.759c-10.123-0.295-18.092,10.107-18.214,19.13c-0.131,9.072,10.084,18.629,19.577,18.381
		c8.529-0.193,17.514-10.566,17.527-19.922C293.307,122.831,281.737,115.412,274.369,114.759z M168.372-143.962
		c3.609,1.099,6.997,1.973,10.277,3.167c2.94,1.076,4.558,0.559,5.003-2.809c0.4-3.108-0.784-4.581-3.857-4.296
		c-3.301,0.31-5.55-2.188-8.397-3.069c-1.278-0.393-2.494-1.403-2.057-2.891c0.601-2.042,2.812-1.627,3.843-1.095
		c3.118,1.616,6.912,1.178,9.715,2.945c3.618,2.273,4.357,0.268,5.442-2.404c1.208-2.976,0.209-4.487-2.749-5.338
		c-6.073-1.737-12.132-3.559-18.151-5.512c-3.804-1.243-5.983-0.591-7.067,3.784c-1.964,7.901-4.249,15.743-6.883,23.447
		c-1.293,3.788,0.04,5.225,3.25,6.18c6.272,1.884,12.531,3.819,18.799,5.715c2.68,0.808,4.757,1.32,5.773-2.707
		c0.939-3.77-0.385-4.565-3.479-5.211c-3.403-0.706-6.715-1.918-10.071-2.89c-2.14-0.618-2.816-2.027-1.938-4.017
		C166.378-142.225,166.401-144.215,168.372-143.962z M-79.274,78.615c4.857-0.528,8.996-0.908,13.111-1.482
		c1.685-0.241,3.324-0.878,4.979-1.36c7.76-2.285,10.841-7.677,9.716-17.002c-1.247-10.352-5.521-15.17-13.757-15.354
		c-6.822-0.144-13.473,1.161-20.143,2.474c-2.579,0.503-2.891,1.772-2.829,4.125c0.166,6.255,3.872,7.343,8.68,5.983
		c4.485-1.252,9.01-1.406,13.549-1.727c3.848-0.271,5.678,1.827,6.046,5.401c0.371,3.55-1.601,5.197-4.902,5.687
		c-4.974,0.747-9.909,1.75-14.909,2.333c-3.229,0.371-6.093,0.161-5.296,5.109C-84.359,76.939-84.209,80.604-79.274,78.615z
		 M86.308-168.226c-12.998-0.023-18.407,4.502-18.446,15.465c-0.044,11.001,6.467,19.532,15.279,18.957
		c13.259-0.85,20.327-4.486,20.526-16.459C103.869-162.818,98.394-168.21,86.308-168.226z M-37.572-102.088
		c-0.805,0.462-1.528,0.643-1.875,1.104c-4.849,6.501-9.634,13.056-14.474,19.563c-1.682,2.269,0.235,3.096,1.552,4.1
		c7.117,5.449,14.357,10.731,21.355,16.334c2.603,2.075,3.934,1.58,5.701-0.94c3.784-5.378,7.967-10.47,11.714-15.873
		c1.308-1.891,4.398-3.753,0.375-6.771c-3.774-2.826-4.906-0.321-6.634,1.918c-2.002,2.611-4.039,5.188-5.943,7.879
		c-1.183,1.663-2.295,2.614-4.172,0.89c-1.491-1.368-3.124-2.474-1.094-4.775c1.731-1.965,3.221-4.154,4.673-6.347
		c1.277-1.935,4.511-3.589,0.773-6.383c-3.626-2.711-4.912,0.05-6.582,2.374c-1.421,1.945-2.948,3.819-4.384,5.757
		c-1.064,1.441-1.949,3.088-4.062,1.244c-1.663-1.449-1.755-2.603-0.259-4.371c2.395-2.832,4.517-5.917,6.629-8.99
		c0.67-0.971,1.986-2.148,0.7-3.461C-34.775-100.06-36.234-101.024-37.572-102.088z M299.235,54.205
		c-0.047,0.659-0.225,1.344-0.108,1.973c0.446,2.315-2.524,6.013,2.71,6.425c5.312,0.426,3.71-3.645,4.195-6.302
		c0.394-2.159,0.563-4.372,0.731-6.568c0.146-2.069,0.786-3.339,3.188-2.968c2.077,0.327,2.271,1.74,2.124,3.384
		c-0.293,3.513-0.601,7.039-0.986,10.536c-0.275,2.525,0.116,4.179,3.204,4.481c3.203,0.319,4.265-0.985,4.449-3.993
		c0.399-6.394,0.924-12.762,1.54-19.129c0.398-4.085-0.849-5.748-5.313-6.099c-8.415-0.667-16.928,1.119-25.282-1.22
		c-2.81-0.802-3.708,1.011-3.91,3.701c-0.477,6.389-1.031,12.771-1.954,19.096c-0.494,3.471,0.446,5.625,3.879,6.098
		c4.264,0.6,3.527-2.742,3.664-5.266c0.155-2.861-0.113-5.805,0.493-8.567c0.508-2.36,2.047-4.295,5.165-3.88
		c3.551,0.465,2.341,2.989,2.356,5.004C299.404,51.996,299.281,53.101,299.235,54.205z M256.641-78.509
		c-2.795,0.32-5.481-1.487-6.229-5.57c-0.678-3.669,4.08-9.925,7.975-9.925c7.667-0.02,9.992-1.123,9.424,5.656
		c-0.446,5.376,3.295,7.334,6.204,7.405c3.681,0.097,3.457-4.502,3.265-7.366c-0.5-7.543-5.143-12.54-11.447-15.692
		c-6.32-3.15-12.456-1.614-17.599,2.97c-5.327,4.743-8.652,10.565-6.96,18.098c1.794,7.979,11.295,15.468,18.046,14.012
		c1.81-0.385,5.782-0.032,4.734-3.454C263.229-75.016,263.638-80.268,256.641-78.509z M-38.935,118.055
		c-5.913,0.045-5.913,0.045-6.182,1.442c-0.778,4.063,3.114,9.216,7.34,9.137c3.611-0.092,5.446,1.197,5.257,4.832
		c-0.196,3.995-7.52,10.032-11.966,9.565c-5.658-0.589-6.889-3.923-5.747-9.378c0.766-3.682-2.797-6.261-5.582-6.929
		c-2.594-0.608-2.993,3.278-3.656,5.36c-1.76,5.517,1.758,13.44,7.456,17.808c5.582,4.289,12.109,4.66,18.284,0.932
		c6.574-3.963,11.208-9.199,10.231-17.59C-24.524,124.485-31.249,117.975-38.935,118.055z M15.199-105.598
		c-1.427-1.614-2.644-3.143-4.023-4.499c-1.466-1.443-3.016-0.341-4.099,0.495c-1.867,1.465-3.549,3.224-5.068,5.061
		c-2.925,3.501-5.29,3.653-8.229-0.228c-3.289-4.348-7.306-8.125-10.759-12.358c-2.745-3.348-4.653-1.6-6.782,0.555
		c-1.906,1.951-4.878,3.31-1.591,6.788c6.155,6.508,12.052,13.254,17.949,20c1.837,2.111,3.296,2.31,5.402,0.358
		c4.776-4.425,9.718-8.654,14.55-13.014C13.486-103.3,14.203-104.396,15.199-105.598z M-49.932,80.494
		c-3.966,0.676-7.213,1.788-4.746,6.84c0.577,1.18,0.789,2.564,1.459,3.667c3.665,5.989,1.317,8.825-4.785,10.44
		c-4.541,1.189-8.891,3.092-13.322,4.709c-4.872,1.787-1.963,4.822-1.074,7.442c0.828,2.425,1.19,5.02,5.252,3.201
		c7.858-3.504,16.036-6.277,24.018-9.486c2.783-1.142,4.638-2.657,2.925-6.41c-2.544-5.576-4.454-11.443-6.709-17.154
		C-47.497,82.268-47.464,79.999-49.932,80.494z M294.031,21.235c-0.108-0.917-0.063-3.173-0.593-5.299
		c-1.21-4.822,0.239-6.724,5.38-6.85c5.213-0.126,10.37-1.698,15.581-2.039c5.545-0.356,3.041-4.078,3.233-6.705
		c0.238-3.438-1.277-4.696-4.742-4.202c-8.144,1.153-16.334,2.022-24.496,3.118c-3.818,0.511-5.688,2.5-4.956,6.75
		c0.985,5.647,1.824,11.341,2.224,17.065c0.254,3.531,2.071,3.809,4.735,3.604C292.999,26.467,294.5,25.365,294.031,21.235z
		 M282.291-9.14c1.038-0.369,1.854-0.68,2.687-0.933c7.867-2.396,15.697-4.963,23.634-7.081c3.91-1.041,4.742-2.841,3.602-6.613
		c-1.077-3.578-1.939-5.885-6.589-4.198c-8.405,3.045-17.021,5.52-25.604,8.067c-2.51,0.748-2.417,2.323-1.662,4.009
		C279.403-13.519,278.749-9.979,282.291-9.14z M34.826,155.919c-0.089-0.649-1.443-1.956-3.625-1.809
		c-2.122,0.147-3.648,1.467-3.542,3.77c0.104,2.128,1.278,4.164,3.469,3.93C33.14,161.601,35.269,160.404,34.826,155.919z
		 M219.874,154.6c-1.811,0.047-3.279,0.809-3.38,2.952c-0.078,2.006,0.906,3.435,3.016,3.488c1.895,0.04,3.373-0.69,3.513-2.945
		C223.138,155.938,222.067,154.864,219.874,154.6z M69.725-3.809c-4.669-0.194-7.22,1.875-10.739,6.125
		C64.29,1.423,67.367,0.335,69.725-3.809z"/>
	<path fill="#F9D708" d="M102.821-62.535C68.968-58.132,50.207-36.406,39.01-5.959c-5.439,14.791-5.306,30.193-5.058,45.619
		c-1.317,2.028-3.43,1.391-5.282,1.586c-1.436,0.141-2.428,0.73-2.571,2.313c-0.166,1.894,0.739,2.814,2.58,2.912
		c1.33,1.011,2.189,2.33,2.535,3.973c1.528,2.611-3.752,3.917-1.254,6.715c0.223,3.076,4.969,7.224-2.182,8.591
		c-1.151,0.233,0.255,1.835,0.561,2.782c0.613,1.85,0.686,3.559-1.539,4.29c-7.19,2.37-1.963,4.327,0.435,6.628
		c-1.632,1.381-3.24,2.74-5.603,4.746c7.486,1.428,6.667,4.987,1.935,9.681c3.572,0.311,6.055,0.521,9.123,0.784
		c-3.8,4.281,3.98,9.177-1.197,13.465c1.589,2.159,4.042,3.784,2.46,7.333c-1.302,2.923,0.969,5.19,2.829,7.291
		c-3.146,2.477-6.544,4.706-9.396,7.487c-4.543,4.461-7.137,2.868-10.298-1.85C6.677,112.833-0.513,95.94-4.282,77.651
		C-12.684,36.836-10.628-3.132,7.251-41.307c23.903-51.027,71.12-73.473,123.969-67.25c19.515,2.301,38.368,7.015,55.035,18.25
		c24.403,16.443,38.383,39.993,44.21,68.402c11.733,57.229-3.609,107.24-41.222,150.851c-4.99,5.794-7.916,6.4-13.373,1.225
		c-3.703-3.494-8.291-4.49-12.326-6.867c-4.08-2.384-6.374-4.063-3.155-9.308c14.835-24.209,25.304-50.145,29.023-78.571
		c0.09-0.654,0.385-1.322,0.315-1.947c-0.693-6.794,0.991-11.333,7.997-14.741c7.053-3.438,8.346-18.912,3.457-25.104
		c-2.164-2.75-5.25-2.878-8.337-3.022c-5.236-0.244-8.129-2.315-10.031-7.963c-9.307-27.725-29.385-41.997-57.759-45.156
		c0.338,0.023,0.514-0.127,0.537-0.462c-7.76-3.073-15.519-3.049-23.279-0.016C102.336-62.66,102.497-62.508,102.821-62.535z
		 M21.699,56.753l-0.077,0.117c2.792-2.93,3.057-5.564-0.9-7.695c-0.331-0.08-0.443-0.285-0.354-0.603
		c-2.437-3.954-6.409-2.659-8.892-1.259c-1.871,1.047-0.08,4.141,1.575,5.895c0.538,2.303,0.306,5.146,3.729,5.44
		C19.201,60.063,21.473,61.119,21.699,56.753z M209.766,59.185c-4.974-1.08-9.069-0.925-9.746,5.182
		c-0.432,3.815,4.219,2.27,5.157,4.748C208.681,66.684,208.157,62.493,209.766,59.185z M10.161,14.527
		c0.919,3.603-2.671,7.756,1.551,10.327c1.082,0.661,5.241,1.027,5.761-3.27C18.17,15.967,14.81,15.102,10.161,14.527z
		 M217.032-5.632c-0.245-0.525,1.648-4.488-1.409-4.75c-1.622-0.144-7.121,0.061-5.819,5.396c0.509,2.051-0.977,5.406,3.119,5.003
		C215.201-0.216,218.772,0.668,217.032-5.632z M15.275-22.483c1.963,4.423-4.106,7.35-0.149,10.932
		c0.285,0.251,5.29,2.187,6.748-1.241C24.033-17.891,20.833-20.273,15.275-22.483z M190.52,102.903
		c3.063-3.894,4.958-7.101,6.389-10.769c-3.864-0.543-7.437-2.58-9.96,2.456C184.384,99.687,190.535,98.925,190.52,102.903z
		 M216.562,32.928c-0.338-2.622,0.425-5.24-3.572-5.125c-2.915,0.105-4.248,1.753-4.278,3.733c-0.04,3.089,2.487,4.208,5.326,4.442
		C216.771,36.191,216.571,34.283,216.562,32.928z"/>
	<path fill="#ECCF19" d="M161.381,189.873c3.095,6.302,6.152,7.102,10.447,3.03c3.733-3.496,6.413-7.878,8.56-12.408
		c4.759-10.016,10.179-19.633,15.751-29.174c0.216-0.373,0.432-0.791,0.71-1.12c2.539-2.905,4.817-7.41,9.438-5.181
		c4.65,2.262,4.558,7.187,3.164,11.507c-2.549,8.001-6.352,15.438-11.61,22.018c-2.101,2.618-4.557,4.817-8.428,3.698
		c-1.188-0.351-2.643-0.886-3.064,1.136c-0.803,3.883-2.109,7.784-0.169,11.653c1.062,2.129,3.064,1.307,4.617,0.948
		c2.756-0.605,5.051-2.417,6.729-4.476c4.157-5.081,7.859-10.503,10.907-16.36c0.517-0.981,0.963-1.992,1.519-2.925
		c1.214-2.01,3.171-1.491,4.672-0.822c2.264,1.011,0.516,2.673,0.008,3.877c-1.801,4.234-3.864,8.367-5.635,12.616
		c-0.756,1.827-1.433,4.337,0.385,5.51c2.325,1.507,4.242-0.699,5.39-2.41c3.786-5.638,7.682-11.264,10.753-17.324
		c3.287-6.495,8.691-5.548,14.041-5.144c2.65,0.202,2.61,2.519,2.472,4.539c-0.614,8.764-6.467,15.009-15.335,16.027
		c-2.679,0.303-2.401,1.995-2.387,3.707c0.047,2.672,1.817,3.354,4.02,3.091c3.987-0.474,6.428-3.69,8.959-6.154
		c4.421-4.318,6.806-10.154,9.641-15.6c1.2-2.332-0.603-3.699-1.117-5.485c-1.264-4.374,1.502-6.644,4.75-8.126
		c3.387-1.57,4.796,0.619,5.088,3.784c0.147,1.575,1,2.359,2.456,2.608c6.574,1.095,5.39,5.018,3.204,9.161
		c-2.465,4.66-4.853,9.393-7.715,13.798c-1.031,1.578-2.426,2.977-0.985,4.43c1.554,1.547,3.687,0.992,5.327-0.499
		c3.233-2.936,6.397-5.959,9.668-8.84c1.048-0.933,2.209-2.736,3.827-1.291c1.778,1.562-0.016,2.625-1.018,3.729
		c-3.98,4.421-8.12,8.642-13.232,11.731c-2.81,1.71-6.043,2.145-8.768,0.559c-2.702-1.561-1.147-4.598-1.04-7.036
		c0.309-6.916,4.942-12.339,6.914-18.898c-3.927-0.605-4.128,2.364-5.159,4.306c-3.417,6.394-6.466,12.991-11.771,18.141
		c-6.357,6.179-11.801,7.003-19.222,2.27c-1.987-1.274-2.939-0.948-4.458,0.311c-4.456,3.706-8.706,4.235-11.877-1.563
		c-1.725-3.146-3.173-1.771-5.113-0.355c-10.146,7.38-15.157,3.744-17.781-6.986c-2.248,3.008-4.112,5.992-6.436,8.516
		c-4.373,4.709-9.516,4.546-13.95-0.115c-1.377-1.453-1.894-3.411-4.98-1.353c-8.837,5.881-11.131,4.661-13.356-5.905
		c-2.048-0.106-2.649,1.873-3.964,2.789c-4.72,3.296-9.217,7.498-15.713,4.08c-1.895-1.012-3.911-0.117-5.705,0.644
		c-4.673,1.961-9.415,2.027-14.134,0.545c-4.518-1.437-8.633-1.188-12.312,2.005c-2.596,2.253-5.471,2.864-8.469,1.218
		c-1.798-0.978-2.756-2.851-2.395-5.063c0.583-3.605,3.146-5.091,6.41-5.626c8.537-1.406,13.06-7.056,15.985-14.762
		c2.637-6.945,5.655-13.751,8.649-20.559c2.133-4.833,4.78-9.352,8.96-12.756c6.645-5.432,14.604-5.766,21.132-0.638
		c2.833,2.223,3.727,5.375,2.818,8.919c-0.601,2.363-1.895,3.992-4.649,3.536c-2.563-0.427-3.31-2.449-2.803-4.422
		c1.662-6.534-3.279-4.631-5.697-4.133c-8.984,1.818-13.588,9.276-17.628,16.376c-4.759,8.368-8.052,17.575-12.248,26.302
		c-0.914,1.901-1.514,3.076,0.773,4.002c7.287,2.927,14.799-1.09,17.063-8.882c2.141-7.334,5.15-14.164,12.71-17.488
		c3.35-1.477,6.836-1.873,9.86,0.8c3.019,2.664,1.564,5.836,0.255,8.508c-3.164,6.509-5.227,14.854-15.757,10.971
		c-1.864-0.701-1.864,1.484-1.419,2.639c1.379,3.467,3.442,4.369,7.077,2.442c7.903-4.181,12.554-11.405,17.635-18.252
		c0.67-0.893,1.972-1.987-0.015-3.114c-3.634-2.076,1.116-2.82,0.754-4.398c5.774-0.161,5.976-5.322,7.96-8.941
		c2.201-4.033,4.111-8.291,7.7-11.396c1.599-1.386,3.232-2.487,5.24-1.044c1.871,1.368,1.812,3.279,1.141,5.36
		c-1.094,3.413-3.272,6.172-5.027,9.199c-1.569,2.737-6.551,4.158-3.496,8.922c0.478,0.777-1.031,1.676-2.1,2.111
		c-6.182,2.59-11.941,11.452-11.617,17.824c0.1,1.863,0.584,3.574,2.517,4.242c2.057,0.713,3.479-0.622,4.25-2.176
		c2.132-4.342,4.025-8.794,5.966-13.225c1.678-3.853,3.512-7.621,7.037-10.147c2.232-1.583,4.657-2.523,7.204-0.637
		c2.357,1.741,3.712,3.862,2.587,7.023c-0.885,2.479-1.369,5.106-2.339,7.537C171.334,189.089,169.958,189.967,161.381,189.873z
		 M191.859,173.82c0.408-0.122,0.823-0.193,1.185-0.37c2.226-1.145,9.385-13.957,9.054-16.254c-0.123-0.81,0-1.92-1.224-1.905
		c-0.531,0-1.277,0.319-1.586,0.746c-3.441,4.762-6.698,9.65-8.652,15.267C190.212,172.54,190.626,173.403,191.859,173.82z
		 M130.928,172.159c-1.532,3.161-5.459,3.762-4.751,7.691c0.078,0.421,1.171,1.105,1.309,0.994c2.295-1.74,3.927-3.979,4.411-6.923
		C131.927,173.758,131.721,173.558,130.928,172.159z M229.288,182.585c4.457-2.796,5.312-5.967,6.589-10.052
		C231.89,174.965,230.389,177.798,229.288,182.585z"/>
	<path fill="#ECCF19" d="M106.624-11.855c0.124-3.076,2.077-3.818,4.681-3.771l-0.093-0.132c0.063,1.518,1.14,1.374,2.14,1.327
		c2.294,0.261,4.042-0.325,4.442-2.959c0.277,0.023,0.546,0.08,0.808,0.158c1.855,0.063,3.65-0.014,4.235-2.323
		c0.324-0.248,0.709-0.754,0.984-0.701c5.22,0.978,4.457,5.259,4.119,8.68c-0.292,2.872,1.162,7.717-4.719,7.083l-0.031,0.009
		c0.492-2.715,1.693-6.264-3.249-3.193c-2.309,1.432-5.526,1.828-6.281,5.203c-1.94,0.565-2.402,2.091-2.465,3.881
		c-4.71,6.724-12.54,9.914-17.532,16.503c-0.527-2.208-0.535-3.94-0.332-5.648c0.189-1.561,1.182-3.15-0.272-4.829
		c-4.677,6.3-5.708,14.897-2.518,18.987c3.706,4.745,18.005,8.801,23.226,6.604c0.614,0.016,1.23,0.038,1.848,0.063
		c1.661,0,3.311,0,4.957,0c2.94-0.047,5.743-0.669,8.438-1.813c5.373-1.098,10.501-2.879,15.534-5.043
		c1.532-0.662,3.65-2.043,4.65-0.159c0.862,1.616-1.192,2.567-2.54,3.755c-4.467,3.943-10.655,3.874-15.628,7.289
		c1.679,2.066,3.712,0.834,5.42,1.144c0.677,0.119,2.023-0.263,1.801,1.145c-0.162,1.036-0.809,2.897-1.094,2.865
		c-5.742-0.517-10.083,4.08-15.657,4.253c-2.602,0.092-3.68-2.179-5.735-2.749c0.146-1.053-0.531-1.083-0.994-0.567
		c-0.398,0.442-0.385,1.235,0.679,1.037c0.523,5.193,4.288,5.489,7.975,4.797c4.874-0.9,9.653-2.374,14.403-3.818
		c1.894-0.575,3.618-1.798,4.704,0.977c0.015,0.007,0.224-0.184,0.224-0.184c-5.058,1.67-10.215,3.096-15.136,5.098
		c-6.352,2.578-10.77-2.064-15.851-3.943c-1.785-0.667,0.077-3.112,0.324-4.715c0.03-0.798,0.054-1.602,0.093-2.413
		c-3.266-4.248-1.625,2.38-3.342,1.538c-1.91-1.532-2.249-5.794-5.744-4.371c-2.017,0.813-3.29,3.296-1.483,5.831
		c1.655,4.204,3.31,8.399-3.124,10.107c-2.285-2.546-0.812-6.048-3.028-10.305c-0.512,6.147-0.424,11.014-1.443,15.62
		c-1.118,5.081-6.855,6.293-9.955,9.944c5.319,2.105,5.59,3.621,1.259,7.468c-0.686,0.604-1.479,0.844-0.966,1.888
		c2.512,5.188,0.777,9.905-0.073,15.236c-0.64,4.038-1.114,9.143-3.296,11.28c-4.218,4.109-5.091,9.191-7.787,14.085
		c-2.037,0.328-2.325-2.781-4.604-4.124c-0.689,2.741,0.196,6.27-4.338,5.538c-1.92-0.288-4.73,4.57-5.588-1.259
		c-0.023-0.169-0.25-0.436-0.424-0.482c-2.872-0.737-3.818-2.36-3.729-6.665c-2.964,1.204-3.831,4.583-7.365,6.854
		c1.648-5.066-4.534-7.692-1.766-12.433c0.043-0.062-0.596-0.737-0.746-0.684c-7.333,2.952-2.022-3.169-3.196-4.334
		c-2.12-2.082,3.157-7.615-3.46-7.194c0.159-0.561,0.143-1.492,0.481-1.663c4.288-2.037,1.316-4.662,0.607-7.086
		c1.064-0.039,2.129-0.079,3.184-0.117c0.397-0.179,0.842-0.582,1.186-0.505c7.164,1.601,10.322-2.641,12.849-8.452
		c1.4-3.223,6.169-1.965,6.597-1.104c1.277,2.581,6.716,2.253,4.829,6.177c-0.912,1.921-3.702,3.521-5.934,4.095
		c-3.399,0.87-0.52-4.188-3.579-4.303c-2.545,1.613-2.702,5.803-7.425,6.325c-3.223,0.356-0.536,5.794-2.311,8.7
		c-0.488,0.807,2.325,1.181,4.032,1.344c4.671,0.426,7.762,2.673,7.446,8.226c-0.119,2.007-1.165,5.798,2.002,5.642
		c1.585-0.092,4.842,0.266,6.558-4.209c1.879-4.896,1.86-8.291,0.158-12.511c-2.752-1.849-1.844,1.625-2.994,2.114
		c-1.609,0.823-3.168,1.244-5.211-1.118c8.883-1.275,10.281-8.903,12.89-15.081c1.267-2.999-0.704-6.954-4.392-7.666
		c-7.771-1.493-3.233-4.198-0.813-6.458c6.845-6.371,13.843-12.58,20.771-18.853c3.171-2.868,4.762-5.792,0.309-8.913
		c0.75-1.735,3.752-1.898,3.137-4.574c-0.093-0.587-0.046-1.248-0.297-1.75c-1.308-2.53-6.412-0.764-5.911-5.569
		c0.777-7.645-1.452-15.92,4.822-22.35c0.309-0.318,0.654-0.951,0.889-0.904c8.238,1.406,6.647-4.861,7.064-9.342
		c0.379-4.049,3.791-3.603,6.186-4.709C105.985-10.694,106.578-10.787,106.624-11.855z M114.983,39.486
		c-0.13-0.495-0.239-0.98-0.369-1.465c-0.538,0.502-0.616,0.986,0,1.479c3.28,3.103,6.513,0.882,10.432,1.345
		C121.221,35.371,118.117,40.724,114.983,39.486z M74.006,88.095c-2.407,6.658-1.625,7.783,5.735,8.7
		C78.617,93.58,76.82,90.97,74.006,88.095z"/>
	<path fill="#ECCF19" d="M-20.355,187.729c-5.936-5.221-6.182-11.889-4.265-18.812c3.665-13.254,21.813-26.804,35.497-27.324
		c5.37-0.186,8.003,2.783,9.595,6.931c1.151,2.97-4.014,10.745-7.121,11.849c-1.497,0.545-2.505,0.038-3.41-1.096
		c-0.985-1.237-1.97-2.395-0.365-3.962c0.93-0.909,1.804-1.974,2.382-3.139c1.536-3.116,0.805-5.235-2.972-5.235
		c-1.712,0.014-3.618,0.215-5.084,1.008c-9.084,4.88-16.293,11.738-20.858,21.15c-1.468,3.027-2.715,6.47-0.174,9.339
		c2.718,3.106,6.336,2.182,9.796,1.085c5.377-1.701,9.17-5.873,13.695-8.888c2.822-1.878,5.448-3.526,9.419-1.476
		c-2.678,4.149-5.327,8.12-7.809,12.183c-2.337,3.79-6.406,6.665-6.898,12.073c7.81-2.828,10.855-9.51,15.077-15.042
		c2.391-3.146,4.961-6.138,7.559-9.105c1.074-1.228,2.806-1.879,4.165-1.01c1.512,0.979,0.942,2.923,0.369,4.241
		c-1.818,4.227-4.044,8.268-5.8,12.509c-0.788,1.919-1.998,4.562,0.408,5.998c2.324,1.383,4.181-0.767,5.535-2.36
		c5.567-6.62,9.104-14.483,13.166-22.043c3.128-5.788,6.471-11.461,10.719-16.517c2.533-3.015,5.851-4.546,9.296-2.683
		c3.31,1.803,2.183,5.268,1.363,8.313c-2.215,8.181-5.959,15.593-11.097,22.275c-2.029,2.641-4.52,5.338-7.996,5.252
		c-7.183-0.178-4.958,4.927-4.477,8.235c0.686,4.724,3.893,5.822,8.261,3.908c6.338-2.798,9.823-8.461,13.906-13.55
		c1.37-1.708,2.56-3.564,3.823-5.361c1.228-1.755,2.76-0.892,4.122-0.389c1.669,0.638,1.543,2.021,0.766,3.249
		c-5.913,8.995-11.667,18.259-22.144,22.694c-6.506,2.759-11.147,1.234-14.134-5.011c-1.745-3.651-3.006-4.397-5.858-1.229
		c-1.445,1.593-3.207,3.077-5.116,4.04c-5.243,2.672-7.417,1.197-11.005-7.209c-2.052,1.848-3.973,3.761-6.063,5.461
		c-8.838,7.141-23.236,5.383-30.2-3.604c-1.271-1.631-0.624-2.261,1.031-2.579c1.871,0,3.754,0.007,5.639,0.023
		c1.536,0.156,2.792,0.899,4.155,1.624c4.979,2.648,7.416-1.976,10.719-4.142c1.167-0.761,1.413-2.333,0.82-2.769
		c-3.011-2.22-5.589,0.804-8.434,1.091c-0.82,0.093-1.593,0.622-2.391,0.947c-0.548,0.085-1.092,0.171-1.646,0.24
		c-1.017,0-2.04-0.015-3.057-0.021C-18.408,188.528-19.377,188.133-20.355,187.729z M57.371,153.106
		c-5.439,6.901-10.901,13.824-12.141,22.837C52.54,170.03,56.15,162.197,57.371,153.106z"/>
	<path fill="#ECCF19" d="M292.792,97.932c3.294,1.094,6.527,2.462,9.899,3.201c4.265,0.938,5.427,2.656,4.119,7.223
		c-1.524,5.377-4.119,2.813-7.282,2.487c-7.516-0.814-13.765-5.099-20.895-6.839c-2.324-0.557-6.065-0.557-5.488-3.96
		c0.547-3.304,0.608-7.396,5.366-8.841c3.502-1.097,7.066-1.819,10.562-2.852c1.231-0.366,3.294,0.076,3.41-2.238
		c0.093-2.152-1.502-2.299-2.979-2.768c-1.655-0.52-3.219-1.637-4.889-1.809c-4.843-0.489-4.658-3.045-3.674-6.854
		c1.133-4.364,3.127-4.13,6.659-2.836c6.945,2.528,14.182,4.289,21.133,6.831c2.231,0.815,6.666,0.249,5.913,4.483
		c-0.663,3.738-1.811,7.582-6.722,8.679c-5.181,1.158-10.192,3.121-15.28,4.723C292.692,97.021,292.738,97.48,292.792,97.932z"/>
	<path fill="#ECCF19" d="M-52.811,16.492c-0.62,16.724-0.613,16.683-16.768,14.964c-4.776-0.511-9.584-0.892-14.384-1.027
		c-3.24-0.085-4.889-1.049-4.503-4.646c0.631-5.921,0.678-11.919,1.632-17.773c1.193-7.303,7.672-9.928,13.78-5.918
		c1.467,0.963,2.232,3.475,4.55,0.748c2.918-3.43,6.702-3.709,10.696-1.774c3.943,1.912,4.709,5.52,4.974,9.351
		C-52.685,12.618-52.811,14.829-52.811,16.492z M-60.591,16.453c0.189-2.808-0.112-5.403-2.948-5.353
		c-4.093,0.054-3.414,3.818-3.895,6.467c-0.504,2.81,1.277,3.273,3.517,3.427C-59.891,21.258-60.86,18.227-60.591,16.453z
		 M-74.063,15.528c0.309-2.454-0.6-4.511-3.348-4.32c-2.752,0.19-2.941,2.793-3.203,5.013c-0.285,2.435,0.616,3.603,3.21,3.74
		C-74.023,20.137-74.124,17.91-74.063,15.528z"/>
	<path fill="#ECCF19" d="M48.622-158.934c5.685-0.015,10.328,7.724,6.929,13.931c-1.784,3.251-1.559,4.413,1.705,5.595
		c1.377,0.489,2.726,1.429,3.757,2.497c1.908,1.982,6.096,2.728,4.833,6.57c-0.85,2.578-9.575,3.535-12.155,1.767
		c-0.362-0.237-0.693-0.548-1.089-0.735c-3.561-1.677-6.328-7.746-9.909-5.446c-2.664,1.71,1.767,6.403,2.663,9.887
		c1.097,4.211-2.196,3.946-4.438,4.894c-2.106,0.89-4.233,2.959-5.731-0.82c-3.552-8.957-7.131-17.9-10.808-26.812
		c-0.74-1.807-0.431-3.022,1.279-3.722C32.893-154.256,39.807-158.196,48.622-158.934z M40.965-141.95
		c1.286-1.771,5.173-1.495,5.25-5.147c0.059-2.537-1.954-3.31-4.056-2.735c-2.232,0.603-5.804,0.151-5.234,4.063
		C37.15-144.207,37.528-141.685,40.965-141.95z"/>
	<path fill="#ECCF19" d="M304.608-45.478c0.054,3.073-1.624,3.756-3.194,4.522c-7.783,3.812-15.697,7.397-23.327,11.518
		c-4.441,2.413-4.61-1.138-5.857-3.423c-1.347-2.43-3.496-5.041,1.094-6.537c1.016-0.334,1.908-1.32,2.909-1.434
		c2.601-0.274,5.365-2.598,5.127-3.802c-0.586-3.078-2.025-6.721-4.342-8.544c-2.617-2.042-5.567,1.431-7.653,2.888
		c-3.463,2.413-5.104,1.526-6.282-1.679c-0.938-2.575-4.687-5.376,0.862-7.865c8.069-3.614,15.829-7.949,23.65-12.118
		c3.625-1.926,4.958,0.557,5.651,3.078c0.607,2.202,5.035,4.894-0.746,7.121c-3.28,1.258-9.093,2.186-5.059,8.965
		c2.494,4.202,4.435,5.458,8.438,2.428c1.523-1.152,3.756-2.724,5.281-1.177C302.93-49.79,303.739-47.082,304.608-45.478z"/>
	<path fill="#ECCF19" d="M114.893-155.729c0.044-0.692,0.207-3.333,0.353-5.976c0.54-9.722,0.532-9.722,10.401-9.762
		c16.882-0.069,24.634,9.444,19.945,24.56c-2.031,6.565-6.342,10.376-13.37,10.606c-0.209,0.007-0.44,0.007-0.656,0.022
		C113.19-135.521,113.19-135.521,114.893-155.729z M125.53-152.411c1.433,2.194-3.68,7.703,3.28,7.925
		c6.098,0.197,6.496-4.561,6.712-9.11c0.079-1.305,0.093-2.649-0.137-3.924c-0.587-3.426-2.541-5.353-6.146-5.512
		c-4.503-0.19-2.971,3.294-3.37,5.52C125.592-156.016,125.654-154.454,125.53-152.411z"/>
	<path fill="#ECCF19" d="M-56.207-62.166c14.526,0.009,22.884,12.458,17.671,25.486c-5.423,13.582-5.241,13.088-18.941,7.735
		c-5.107-1.996-9.365-5.403-14.537-7.073c-2.831-0.914-4.343-2.528-2.56-5.932c3.363-6.438,4.311-14.162,11.784-18.244
		C-60.299-61.564-58.084-61.785-56.207-62.166z M-45.432-41.872c0.601-7.803-6.51-5.966-9.577-8.95
		c-1.702-1.654-4.385-1.011-6.289,1.107c-2.517,2.785-4.228,5.124,0.896,7.008c2.988,1.099,5.867,2.632,8.61,4.288
		C-46.645-35.306-46.533-39.779-45.432-41.872z"/>
	<path fill="#ECCF19" d="M211.335-109.909c-10.022,0.157-19.969-8.81-19.93-17.981c0.054-9.762,8.753-19.093,17.959-19.245
		c9.33-0.159,18.924,8.512,19.1,17.226C228.641-120.086,220.065-110.061,211.335-109.909z M218.063-131.215
		c0.155-4.57-2.972-6.174-6.59-6.644c-4.026-0.516-9.322,6.302-9.568,11.705c-0.192,4.405,2.348,6.537,6.188,6.969
		C212.535-118.676,218.034-125.559,218.063-131.215z"/>
	<path fill="#ECCF19" d="M274.369,114.759c7.368,0.639,18.924,8.072,18.891,17.589c-0.014,9.355-8.998,19.729-17.527,19.922
		c-9.493,0.248-19.708-9.309-19.577-18.381C256.277,124.875,264.246,114.464,274.369,114.759z M277.91,141.713
		c3.134-0.491,5.851-2.597,5.781-7.081c-0.047-4.258-6.735-9.813-11.678-9.68c-4.435,0.14-6.729,2.829-6.706,7.202
		C265.361,136.14,272.452,141.835,277.91,141.713z"/>
	<path fill="#ECCF19" d="M168.372-143.962c-1.971-0.265-1.994,1.725-2.548,2.999c-0.878,1.989-0.185,3.399,1.938,4.017
		c3.356,0.972,6.668,2.184,10.071,2.89c3.094,0.646,4.434,1.449,3.479,5.211c-1.017,4.021-3.103,3.505-5.773,2.707
		c-6.268-1.896-12.526-3.831-18.799-5.715c-3.21-0.962-4.543-2.392-3.25-6.18c2.634-7.704,4.919-15.546,6.883-23.447
		c1.094-4.375,3.264-5.027,7.067-3.784c6.02,1.954,12.071,3.775,18.151,5.512c2.958,0.843,3.957,2.362,2.749,5.338
		c-1.085,2.672-1.824,4.677-5.442,2.404c-2.803-1.76-6.597-1.329-9.715-2.945c-1.031-0.532-3.242-0.956-3.843,1.095
		c-0.438,1.488,0.778,2.491,2.057,2.891c2.848,0.873,5.097,3.378,8.397,3.069c3.08-0.285,4.258,1.188,3.857,4.296
		c-0.445,3.367-2.063,3.884-5.003,2.809C175.369-141.989,171.981-142.854,168.372-143.962z"/>
	<path fill="#ECCF19" d="M-79.274,78.615c-4.927,1.989-5.084-1.692-5.747-5.813c-0.797-4.939,2.066-4.738,5.3-5.109
		c4.988-0.583,9.923-1.586,14.904-2.333c3.303-0.489,5.273-2.137,4.903-5.687c-0.369-3.558-2.196-5.672-6.046-5.401
		c-4.546,0.32-9.064,0.475-13.549,1.727c-4.807,1.359-8.515,0.271-8.68-5.983c-0.062-2.353,0.254-3.615,2.829-4.125
		c6.67-1.306,13.323-2.611,20.143-2.474c8.237,0.173,12.51,5.002,13.757,15.354c1.117,9.325-1.963,14.717-9.715,17.002
		c-1.648,0.482-3.287,1.119-4.981,1.36C-70.279,77.707-74.417,78.087-79.274,78.615z"/>
	<path fill="#ECCF19" d="M86.308-168.226c12.085,0.015,17.575,5.407,17.359,17.962c-0.2,11.973-7.274,15.609-20.526,16.459
		c-8.803,0.568-15.316-7.956-15.279-18.957C67.901-163.724,73.301-168.256,86.308-168.226z M92.835-151.509
		c0.032-5.625-3.032-10.307-7.897-9.813c-4.281,0.439-6.44,3.135-6.463,7.606c-0.03,6.899,3.121,11.903,7.756,11.783
		C91.269-142.066,92.924-145.259,92.835-151.509z"/>
	<path fill="#ECCF19" d="M-37.572-102.088c1.338,1.064,2.79,2.028,3.994,3.25c1.287,1.319-0.03,2.49-0.7,3.461
		c-2.113,3.073-4.235,6.158-6.629,8.994c-1.496,1.771-1.412,2.926,0.259,4.367c2.113,1.838,2.998,0.198,4.062-1.244
		c1.436-1.938,2.962-3.812,4.384-5.757c1.669-2.323,2.956-5.085,6.582-2.374c3.745,2.793,0.504,4.448-0.773,6.383
		c-1.452,2.193-2.941,4.391-4.673,6.347c-2.037,2.301-0.397,3.407,1.094,4.775c1.877,1.724,2.982,0.78,4.172-0.89
		c1.904-2.685,3.94-5.268,5.943-7.879c1.728-2.239,2.87-4.744,6.634-1.918c4.023,3.017,0.932,4.879-0.375,6.771
		c-3.747,5.403-7.93,10.495-11.714,15.873c-1.774,2.514-3.098,3.015-5.701,0.94c-6.998-5.603-14.238-10.885-21.355-16.334
		c-1.317-0.997-3.234-1.824-1.552-4.1c4.839-6.516,9.625-13.068,14.474-19.563C-39.093-101.452-38.37-101.639-37.572-102.088z"/>
	<path fill="#ECCF19" d="M299.235,54.205c0.061-1.104,0.169-2.209,0.16-3.31c-0.015-2.014,1.194-4.537-2.354-5.005
		c-3.118-0.415-4.657,1.52-5.165,3.88c-0.609,2.762-0.348,5.706-0.494,8.565c-0.139,2.527,0.601,5.867-3.664,5.27
		c-3.44-0.475-4.381-2.627-3.88-6.1c0.924-6.333,1.486-12.715,1.956-19.096c0.199-2.689,1.101-4.496,3.91-3.699
		c8.352,2.337,16.867,0.546,25.281,1.215c4.458,0.354,5.712,2.018,5.311,6.103c-0.614,6.376-1.146,12.751-1.539,19.13
		c-0.186,3.008-1.247,4.313-4.448,3.993c-3.096-0.295-3.48-1.95-3.203-4.482c0.385-3.498,0.693-7.026,0.985-10.536
		c0.153-1.642-0.047-3.057-2.125-3.382c-2.409-0.379-3.048,0.895-3.188,2.965c-0.169,2.196-0.338,4.408-0.73,6.571
		c-0.484,2.656,1.115,6.727-4.196,6.3c-5.235-0.41-2.264-4.11-2.708-6.427C299.004,55.549,299.188,54.864,299.235,54.205z"/>
	<path fill="#ECCF19" d="M256.641-78.509c6.997-1.751,6.588,3.5,7.413,6.143c1.048,3.422-2.941,3.061-4.742,3.452
		c-6.76,1.457-16.258-6.031-18.045-14.011c-1.695-7.533,1.632-13.355,6.958-18.099c5.145-4.582,11.287-6.127,17.601-2.968
		c6.304,3.149,10.945,8.146,11.439,15.69c0.192,2.856,0.423,7.462-3.25,7.365c-2.916-0.07-6.667-2.028-6.213-7.405
		c0.563-6.785-1.762-5.674-9.423-5.656c-3.894,0-8.651,6.259-7.975,9.925C251.159-79.997,253.846-78.197,256.641-78.509z"/>
	<path fill="#ECCF19" d="M-38.935,118.055c7.694-0.08,14.411,6.441,15.426,15.195c0.978,8.391-3.656,13.628-10.231,17.574
		c-6.173,3.729-12.693,3.357-18.282-0.917c-5.698-4.366-9.216-12.306-7.456-17.814c0.661-2.074,1.062-5.968,3.656-5.354
		c2.792,0.67,6.355,3.233,5.582,6.915c-1.144,5.463,0.089,8.789,5.747,9.386c4.445,0.467,11.771-5.57,11.966-9.563
		c0.182-3.638-1.647-4.927-5.257-4.842c-4.228,0.093-8.122-5.073-7.342-9.127C-44.855,118.1-44.855,118.1-38.935,118.055z"/>
	<path fill="#ECCF19" d="M15.199-105.598c-0.996,1.194-1.705,2.298-2.644,3.152c-4.831,4.358-9.773,8.589-14.55,13.014
		c-2.099,1.942-3.558,1.753-5.4-0.358c-5.896-6.755-11.795-13.492-17.948-20.002c-3.287-3.485-0.324-4.835,1.589-6.788
		c2.129-2.154,4.037-3.901,6.782-0.554c3.453,4.241,7.463,8.01,10.759,12.352c2.948,3.895,5.304,3.733,8.229,0.234
		c1.521-1.83,3.203-3.596,5.07-5.061c1.074-0.836,2.633-1.94,4.099-0.495C12.555-108.731,13.771-107.205,15.199-105.598z"/>
	<path fill="#ECCF19" d="M-49.932,80.494c2.468-0.495,2.436,1.773,3.018,3.24c2.255,5.71,4.165,11.576,6.709,17.149
		c1.712,3.76-0.143,5.282-2.925,6.417c-7.982,3.2-16.16,5.982-24.018,9.478c-4.055,1.826-4.424-0.784-5.252-3.193
		c-0.889-2.612-3.791-5.654,1.074-7.435c4.431-1.631,8.782-3.52,13.322-4.724c6.093-1.601,8.45-4.444,4.785-10.435
		c-0.67-1.112-0.882-2.493-1.459-3.667C-57.146,82.282-53.898,81.17-49.932,80.494z"/>
	<path fill="#ECCF19" d="M294.031,21.235c0.469,4.137-1.047,5.232-3.634,5.441c-2.664,0.199-4.481-0.073-4.743-3.604
		c-0.4-5.724-1.247-11.418-2.216-17.065c-0.739-4.25,1.131-6.239,4.956-6.75c8.146-1.095,16.353-1.972,24.488-3.118
		c3.456-0.494,4.982,0.764,4.736,4.202c-0.186,2.627,2.325,6.349-3.22,6.705c-5.211,0.341-10.368,1.913-15.588,2.039
		c-5.134,0.132-6.59,2.028-5.383,6.85C293.969,18.054,293.939,20.309,294.031,21.235z"/>
	<path fill="#ECCF19" d="M181.112-6.517c1.309-0.101,2.632-0.093,3.912-0.334c4.511-0.82,8.666-0.311,10.021,4.79
		c1.309,4.934,3.441,10.477-3.026,13.877c0.147-2.506,0.794-5.141,0.278-7.519c-0.653-3.05-2.249-5.905-6.335-3.794
		c-3.118-0.561-1.694,2.976-3.311,3.76c-3.757,2.954-0.454,7.105-1.756,10.466c-1.801-2.149-4.08-3.749-6.72-2.139
		c-1.894,1.144-4.089,2.726-3.565,5.702c0.539,3.007,2.218,4.629,5.352,4.517c-2.133,2.324-3.358,5.906-7.876,2.003
		c-1.141-0.979-7.592,2.7-10.215,5.542c-3.035,3.28-7.168,5.049-9.801,8.836c-2.57,3.735-5.236,0.009-8.299-0.864
		c1.687-3.032,4.851-3.948,6.96-4.33c7.005-1.258,10.777-7.113,16.29-10.407c2.246-1.345-0.226-2.37-1.124-3.333
		c0.692-1.464-0.1-2.633-0.717-3.84c4.835-5.502,11.309-9.559,14.465-16.565l-0.131,0.222c2.179,0.356,2.594-1.05,2.694-2.762
		c0.53-0.762,1.055-1.528,1.577-2.28C180.242-5.481,180.666-6.001,181.112-6.517z"/>
	<path fill="#ECCF19" d="M39.587,78.615c-3.508,0.489-3.123-4.747-6.589-4.81c1.615-0.504,4.152-0.535,4.64-1.577
		c0.994-2.136-2.677-1.693-2.866-4.024c0.796-1.815,7.297,1.834,4.739-4.686c-0.948-2.399,3.221,0.28,4.594-1.529
		c-0.096-0.421-0.057-1.118-0.372-1.571c-4.673-6.602-4.825-8.171,2.79-9.439c8.026-1.335,9.091-5.513,8.733-11.956
		c-0.068-1.289,0.202-2.604,0.367-4.541c2.717,2.407,0.369,5.998,2.687,7.921c3.091,0.742,0.773-3.745,3.506-3.53
		c1.956,1.319,1.499,3.731,2.122,5.706c0.876,2.789,2.036,2.267,3.248,0.222c0.016,3.143-1.655,6.467,1.104,9.25
		c-5.37,2.003-11.847,1.103-15.207,8.001c-2.271,4.661-6.448,8.392-9.773,12.524C42.062,75.911,40.826,77.264,39.587,78.615z"/>
	<path fill="#ECCF19" d="M282.291-9.14c-3.542-0.831-2.888-4.379-3.934-6.749c-0.755-1.686-0.848-3.261,1.662-4.009
		c8.583-2.547,17.199-5.014,25.604-8.067c4.649-1.678,5.512,0.629,6.589,4.198c1.141,3.772,0.309,5.563-3.602,6.613
		c-7.937,2.118-15.767,4.686-23.634,7.081C284.146-9.819,283.329-9.508,282.291-9.14z"/>
	<path fill="#FEFDFE" d="M142.759,46.008c0,0-0.216,0.19-0.216,0.182c1.279-0.436,2.564-0.867,3.843-1.302
		c11.002,3.593,20.57,0.237,29.508-6.174l-0.169,0.104c1.646,0.076,2.501-0.568,2.132-2.356c2.325-6.238,4.65-12.478,6.982-18.72
		c0-0.007,0.554-0.278,0.554-0.278l0.623,0.023l0.256-0.04c1.145,6.379-1.618,12.063-3.164,17.955
		c-6.969,10.043-27.693,17.825-38.793,15.29C139.88,49.673,141.973,47.981,142.759,46.008z"/>
	<path fill="#C91414" d="M123.19-4.485l0.031-0.009c1.294,6.802,0.569,13.418-1.325,20.073c-2.147,7.585,0.87,13.741,7.128,15.695
		c-2.708,1.145-5.511,1.767-8.437,1.813c-4.003-7.485-5.135-15.299-3.188-23.685c0.926-4.023,1.556-8.281-0.661-12.247
		C119.141-2.396,120.081-7.829,123.19-4.485z"/>
	<path fill="#ECCF19" d="M85.426,38.013c-1.227,1.2,3.73,6.301-3.082,4.66c-1.077-0.259-3.743,6.351-5.756,9.729
		c-0.926,1.563-1.265,4.584-3.709,3.582c-1.548-0.63-1.579-3.396-1.217-5.348c1.406-7.651,6.175-11.676,13.671-12.671L85.426,38.013
		z"/>
	<path fill="#FEFDFE" d="M179.811-4.956c-0.515,0.755-1.055,1.52-1.577,2.28c-3.28,0.151-3.642,0.521-2.694,2.762l0.139-0.22
		c-3.08-4.966-8.698-7.075-12.439-11.292l0.029-0.232c2.601,2.172,3.248-2.027,5.297-1.646
		C174.046-12.896,176.063-7.757,179.811-4.956z"/>
	<path fill="#259FF1" d="M117.802-17.384c-0.408,2.636-2.14,3.222-4.45,2.961c-0.707-0.447-1.424-0.886-2.133-1.328l0.102,0.133
		c-4.682-4.503-10.144-6.834-16.853-5.833c0.151-2.582,1.926-3.438,3.376-4.556C105.361-25.188,111.951-22.134,117.802-17.384z"/>
	<path fill="#ECCF19" d="M163.268-11.657l-0.046,0.232c-3.111,2.417-2.518,6.683-4.673,9.581c-1.24,0.405-2.487,0.815-3.741,1.239
		c0.932-3.311,1.777-6.627,2.794-9.914c1.547-4.957,8.207-7.796,12.625-5.466c-0.594,0.486-1.186,0.979-1.786,1.473
		C166.07-14.766,163.298-15.751,163.268-11.657z"/>
	<path fill="#C91414" d="M175.894,38.714c-8.938,6.42-18.506,9.777-29.508,6.174C156.602,44.693,165.562,38.332,175.894,38.714z"/>
	<path fill="#F9D708" d="M175.978,22.816c-3.117,0.113-4.813-1.51-5.35-4.517c-0.524-2.977,1.67-4.558,3.564-5.703
		c2.64-1.609,4.911-0.007,6.72,2.14C183.992,20.359,179.503,21.289,175.978,22.816z"/>
	<path fill="#C91414" d="M122.837-19.556c-0.585,2.309-2.371,2.386-4.22,2.323c0.847-1.043,0.509-1.812-0.322-2.783
		c-4.535-5.253-10.301-7.757-17.109-8.019c4.192-3.567,10.872-2.819,16.255,2.115C119.464-24.049,121.042-21.688,122.837-19.556z"/>
	<path fill="#C91414" d="M73.194-8.782c-0.49-1.037-0.828-2.269,0.401-2.825c4.083-1.879,12.862,0.61,16.262,4.472
		c-1.751,0.403-3.499,0.81-5.25,1.208C80.611-6.132,76.558-6.094,73.194-8.782z"/>
	<path fill="#C91414" d="M154.814-0.612c1.247-0.424,2.494-0.827,3.741-1.24c2.802,1.445,5.389,0.952,8.238-1.982
		c-2.648,6.768-6.05,8.878-10.663,7.375C153.837,2.809,152.628,1.622,154.814-0.612z"/>
	<path fill="#FEFDFE" d="M101.176-28.027c6.809,0.27,12.576,2.765,17.119,8.019c0.823,0.971,1.162,1.74,0.307,2.785
		c-0.254-0.082-0.522-0.135-0.808-0.16c-5.858-4.743-12.439-7.804-19.965-8.623C98.672-27.161,99.764-27.871,101.176-28.027z"/>
	<path fill="#C91414" d="M185.977,0.502c4.082-2.11,5.675,0.745,6.328,3.794c0.509,2.378-0.138,5.012-0.275,7.519
		c-1.071,3.643-2.232-1.33-3.334,0.028C188.01,8.011,185.531,4.613,185.977,0.502z"/>
	<path fill="#ECCF19" d="M34.826,155.919c0.443,4.479-1.686,5.682-3.698,5.891c-2.191,0.234-3.366-1.809-3.469-3.93
		c-0.106-2.303,1.42-3.622,3.542-3.77C33.383,153.963,34.737,155.27,34.826,155.919z"/>
	<path fill="#C91414" d="M101.627,43.039c-1.805-2.535-0.527-5.026,1.486-5.831c3.488-1.423,3.827,2.833,5.743,4.371
		C107.116,45.437,104.038,42.561,101.627,43.039z"/>
	<path fill="#C91414" d="M168.455-14.52c0.594-0.502,1.188-0.995,1.788-1.473c4.648,1.965,9.607,3.567,10.877,9.467
		c-0.439,0.516-0.87,1.037-1.302,1.563c-3.741-2.802-5.772-7.94-11.254-8.351C168.548-13.709,168.519-14.112,168.455-14.52z"/>
	<path fill="#259FF1" d="M73.194-8.782c3.373,2.688,7.417,2.65,11.396,2.855c-0.316,0.493-0.631,0.994-0.954,1.489
		C79.23-0.78,74.209-2.874,73.194-8.782z"/>
	<path fill="#C91414" d="M183.107,35.402c1.546-5.893,4.309-11.576,3.164-17.955c1.746,0.054,3.277-0.191,3.001,2.728
		C188.709,25.943,187.801,31.401,183.107,35.402z"/>
	<path fill="#259FF1" d="M185.977,0.502c-0.445,4.111,2.033,7.501,2.719,11.341c-6.552,1.155-5.528-3.833-6.043-7.582
		C184.284,3.478,182.852-0.058,185.977,0.502z"/>
	<path fill="#C91414" d="M161.205,16.422c0.614,1.208,1.416,2.384,0.723,3.84c-2.295,2.554-5.697,3.055-8.968,5.028
		C153.176,19.42,160.343,20.87,161.205,16.422z"/>
	<path fill="#ECCF19" d="M219.874,154.6c2.193,0.265,3.264,1.338,3.148,3.488c-0.147,2.254-1.618,2.984-3.513,2.945
		c-2.109-0.054-3.094-1.492-3.016-3.481C216.595,155.408,218.063,154.646,219.874,154.6z"/>
	<path fill="#259FF1" d="M68.282,54.031c-2.759-2.778-1.09-6.105-1.104-9.24c0.323-1.876,0.647-3.747,0.979-5.608
		c0.308,0.007,0.614,0.023,0.922,0.023c0,5.235,0.009,10.46,0,15.705c0,0.21-0.034,0.426-0.042,0.638
		c-0.242-0.086-0.654-0.118-0.691-0.256C68.24,54.888,68.298,54.453,68.282,54.031z"/>
	<path fill="#04056A" d="M39.587,78.615c1.238-1.352,2.482-2.704,3.722-4.055c2.278,3.65-1.585,6.681-1.001,10.162
		c-1.075,0.039-2.136,0.076-3.195,0.116l0.04,0.1c0.027-0.341,0.064-0.666,0.11-1.01C39.369,82.16,39.468,80.386,39.587,78.615z"/>
	<path fill="#C91414" d="M85.426,38.013c0,0-0.103-0.047-0.092-0.047c-1.035-7.06,4.026-4.074,7.08-4.371
		c0.597,2.675-2.407,2.84-3.15,4.576C87.99,38.126,86.712,38.066,85.426,38.013z"/>
	<path fill="#259FF1" d="M69.725-3.809c-2.358,4.144-5.435,5.239-10.739,6.125C62.505-1.934,65.056-4.003,69.725-3.809z"/>
	<path fill="#FEFDFE" d="M83.637-4.438c0.323-0.495,0.638-0.996,0.954-1.489c1.76-0.409,3.507-0.813,5.259-1.208
		c1.37,0.443,2.744,0.875,4.972,1.59C90.676-2.664,87.217-2.942,83.637-4.438z"/>
	<path fill="#ECCF19" d="M28.687,46.47c-1.832-0.098-2.746-1.019-2.58-2.912c0.143-1.582,1.137-2.172,2.573-2.313
		c1.851-0.195,3.956,0.442,5.28-1.586c0.873,2.082,2.245,4.426-1.894,4.139C30.096,43.662,27.874,43.083,28.687,46.47z"/>
	<path fill="#ECCF19" d="M36.789,122.729c-1.86-2.09-4.13-4.35-2.829-7.272c1.582-3.556-0.87-5.174-2.46-7.333
		c3.9-0.816,6.171-0.264,4.988,4.763c-0.375,1.623-4.949,6.045,1.949,5.463C37.886,119.792,37.339,121.269,36.789,122.729z"/>
	<path fill="#C91414" d="M125.585-62.962c-0.023,0.334-0.201,0.485-0.539,0.464c-7.413-0.009-14.826-0.018-22.225-0.029
		c-0.308,0.029-0.484-0.133-0.508-0.449C110.058-63.75,117.825-63.592,125.585-62.962z"/>
	<path fill="#ECCF19" d="M29.98,57.157c-2.501-2.798,2.779-4.104,1.25-6.715c1.721,1.664,3.73,3.668,3.31,5.922
		C34.225,58.073,31.539,56.722,29.98,57.157z"/>
	<path fill="#04056A" d="M-17.603,191.939c-1.886-0.015-3.77-0.015-5.64-0.015c-0.714-2.581,2.888-2.137,2.881-4.195
		c0.977,0.41,1.954,0.809,2.933,1.188C-17.489,189.935-17.549,190.931-17.603,191.939z"/>
	<path fill="#ECCF19" d="M39.256,83.929c-0.046,0.327-0.089,0.669-0.112,1.01c-2.136,0.342-3.105,4.064-6.659,1.734
		C35.465,86.618,36.08,82.726,39.256,83.929z"/>
	<path fill="#ECCF19" d="M186.016,17.486l-0.623-0.023c0,0-0.554,0.271-0.554,0.278c-1.672-0.63-1.765-1.774-0.586-2.809
		c0.477-0.406,1.826-0.422,2.324-0.022C187.824,15.904,186.009,16.559,186.016,17.486z"/>
	<path fill="#04056A" d="M65.703,96.252c1.151-0.489,0.242-3.963,2.995-2.114C67.848,95.063,67.958,97.363,65.703,96.252z"/>
	<path fill="#C91414" d="M177.856,36.462c0.377,1.788-0.485,2.433-2.132,2.356C175.894,37.526,176.162,36.343,177.856,36.462z"/>
	<path fill="#C91414" d="M112.189,40.033c-0.039,0.813-0.062,1.615-0.093,2.412C111.32,41.594,111.32,40.8,112.189,40.033z"/>
	<path fill="#C91414" d="M106.624-11.855c-0.046,1.069-0.639,1.162-1.462,0.828C105.423-11.742,105.776-12.206,106.624-11.855z"/>
	<path fill="#C91414" d="M115.453,44.243c-1.07,0.198-1.07-0.595-0.677-1.037c0.469-0.508,1.147-0.485,0.992,0.567
		c-0.007,0,0.023,0.373,0.023,0.373L115.453,44.243z"/>
	<path fill="#04056A" d="M209.766,59.185c-1.608,3.309-1.085,7.499-4.589,9.93c-0.938-2.479-5.589-0.926-5.157-4.748
		C200.696,58.26,204.792,58.104,209.766,59.185z"/>
	<path fill="#04056A" d="M10.161,14.527c4.649,0.575,8.009,1.449,7.313,7.058c-0.527,4.297-4.68,3.931-5.761,3.27
		C7.49,22.276,11.08,18.13,10.161,14.527z"/>
	<path fill="#04056A" d="M217.032-5.632c1.755,6.3-1.817,5.416-4.109,5.649c-4.105,0.402-2.61-2.952-3.119-5.003
		c-1.302-5.335,4.197-5.54,5.819-5.396C218.681-10.12,216.787-6.157,217.032-5.632z"/>
	<path fill="#04056A" d="M15.275-22.483c5.558,2.21,8.766,4.592,6.599,9.691c-1.458,3.427-6.463,1.492-6.748,1.241
		C11.162-15.125,17.231-18.06,15.275-22.483z"/>
	<path fill="#04056A" d="M190.52,102.903c0.016-3.979-6.136-3.217-3.571-8.313c2.523-5.036,6.089-2.999,9.96-2.456
		C195.478,95.803,193.583,99.01,190.52,102.903z"/>
	<path fill="#04056A" d="M20.375,48.572c-0.087,0.317,0.023,0.522,0.354,0.603c0.301,2.56,0.601,5.138,0.901,7.695l0.077-0.117
		c-1.687,0.497-3.919-0.442-4.919,1.888c-3.422-0.286-3.183-3.138-3.73-5.439C11.769,45.673,17.735,49.796,20.375,48.572z"/>
	<path fill="#04056A" d="M216.562,32.928c0.01,1.355,0.209,3.255-2.524,3.05c-2.839-0.226-5.366-1.353-5.326-4.442
		c0.03-1.98,1.363-3.628,4.278-3.733C216.986,27.688,216.224,30.306,216.562,32.928z"/>
	<path fill="#ECCF19" d="M125.585-62.962c-7.76-0.623-15.527-0.788-23.281-0.014C110.073-66.012,117.825-66.035,125.585-62.962z"/>
	<path fill="#ECCF19" d="M20.375,48.572c-2.633,1.224-8.6-2.899-7.317,4.636c-1.655-1.754-3.442-4.848-1.575-5.895
		C13.967,45.913,17.932,44.618,20.375,48.572z"/>
	<path fill="#ECCF19" d="M21.623,56.87c-0.299-2.558-0.601-5.136-0.9-7.695C24.68,51.306,24.422,53.94,21.623,56.87z"/>
	<path fill="#ECCF19" d="M16.781,58.648c1.001-2.331,3.233-1.398,4.918-1.88C21.473,61.119,19.201,60.063,16.781,58.648z"/>
	<path fill="#04056A" d="M191.859,173.82c-1.233-0.434-1.647-1.28-1.217-2.517c1.956-5.616,5.211-10.505,8.653-15.267
		c0.308-0.427,1.047-0.746,1.586-0.746c1.224-0.015,1.107,1.104,1.224,1.905c0.33,2.297-6.829,15.109-9.053,16.254
		C192.689,173.627,192.268,173.713,191.859,173.82z"/>
	<path fill="#04056A" d="M130.928,172.159c0.793,1.398,0.999,1.599,0.969,1.763c-0.484,2.944-2.116,5.183-4.411,6.923
		c-0.138,0.111-1.23-0.573-1.309-0.994C125.469,175.921,129.396,175.329,130.928,172.159z"/>
	<path fill="#04056A" d="M229.288,182.585c1.101-4.787,2.602-7.62,6.589-10.052C234.6,176.618,233.754,179.789,229.288,182.585z"/>
	<path fill="#04056A" d="M113.775,33.024c-5.22,2.196-19.527-1.86-23.226-6.604c-3.183-4.09-2.152-12.688,2.518-18.987
		c1.466,1.679,0.47,3.268,0.272,4.829c-0.203,1.708-0.196,3.441,0.332,5.648c4.994-6.589,12.829-9.779,17.534-16.503
		c-0.633,6.041-1.317,12.078-1.887,18.115C108.817,24.674,109.541,29.45,113.775,33.024z"/>
	<path fill="#259FF1" d="M113.775,33.024c-4.234-3.575-4.958-8.351-4.457-13.496c0.569-6.044,1.254-12.081,1.887-18.113
		c0.069-1.791,0.53-3.319,2.471-3.882c0.445,0.117,0.893,0.229,1.34,0.351c0,11.733-2.487,23.524,0.601,35.203
		C114.999,33.063,114.383,33.041,113.775,33.024z"/>
	<path fill="#FEFDFE" d="M115.63,33.087c-3.102-11.685-0.601-23.469-0.601-35.203c0.57-0.25,1.147-0.485,1.718-0.723
		c2.209,3.97,1.593,8.224,0.662,12.248c-1.948,8.386-0.809,16.192,3.179,23.685C118.927,33.087,117.277,33.087,115.63,33.087z"/>
	<path fill="#04056A" d="M74.006,88.095c2.806,2.875,4.611,5.485,5.735,8.7C72.382,95.878,71.608,94.753,74.006,88.095z"/>
	<path fill="#04056A" d="M116.739-2.845c-0.569,0.235-1.14,0.479-1.724,0.72c-0.447-0.12-0.895-0.231-1.34-0.35
		c0.746-3.375,3.972-3.779,6.266-5.203c4.959-3.071,3.75,0.478,3.249,3.193C120.081-7.829,119.141-2.396,116.739-2.845z"/>
	<path fill="#04056A" d="M114.969,39.468c3.142,1.256,6.252-4.097,10.077,1.378c-3.919-0.463-7.151,1.758-10.432-1.345l0.2,0.31
		L114.969,39.468z"/>
	<path fill="#C91414" d="M114.63,39.501c-0.632-0.493-0.546-0.978,0-1.479c0.124,0.484,0.23,0.97,0.354,1.455
		c0-0.009-0.161,0.334-0.161,0.334L114.63,39.501z"/>
	<path fill="#04056A" d="M111.212-15.751c0.716,0.442,1.433,0.881,2.14,1.328C112.336-14.377,111.274-14.234,111.212-15.751z"/>
	<path fill="#04056A" d="M57.371,153.106c-1.22,9.091-4.831,16.924-12.141,22.837C46.47,166.931,51.923,160.008,57.371,153.106z"/>
	<path fill="#04056A" d="M-17.603,191.939c0.054-1.009,0.114-2.005,0.173-3.022c1.008,0.009,2.032,0.023,3.048,0.023
		c0.647,0.623,1.187,0.437,1.648-0.232c0.796-0.342,1.569-0.863,2.391-0.948c2.843-0.297,5.423-3.324,8.432-1.102
		c0.593,0.449,0.34,2.003-0.82,2.771c-3.303,2.169-5.738,6.79-10.719,4.142C-14.813,192.84-16.067,192.087-17.603,191.939z"/>
	<path fill="#C91414" d="M-12.734,188.693c-0.461,0.684-1.008,0.861-1.648,0.247C-13.828,188.861-13.285,188.778-12.734,188.693z"/>
	<path fill="#04056A" d="M-60.591,16.453c-0.269,1.774,0.701,4.806-3.326,4.542c-2.24-0.154-4.021-0.617-3.517-3.427
		c0.488-2.649-0.198-6.421,3.895-6.467C-60.703,11.049-60.402,13.653-60.591,16.453z"/>
	<path fill="#04056A" d="M-74.063,15.528c-0.069,2.382,0.031,4.608-3.341,4.432c-2.594-0.137-3.495-1.305-3.21-3.74
		c0.261-2.219,0.442-4.812,3.203-5.013C-74.656,11.01-73.747,13.074-74.063,15.528z"/>
	<path fill="#04056A" d="M40.965-141.95c-3.446,0.256-3.814-2.265-4.041-3.818c-0.57-3.919,3.001-3.461,5.234-4.063
		c2.102-0.575,4.115,0.198,4.056,2.735C46.138-143.445,42.251-143.721,40.965-141.95z"/>
	<path fill="#04056A" d="M125.53-152.411c0.124-2.043,0.062-3.604,0.34-5.1c0.399-2.226-1.141-5.719,3.37-5.52
		c3.604,0.159,5.559,2.085,6.146,5.512c0.216,1.274,0.199,2.619,0.137,3.924c-0.199,4.549-0.607,9.307-6.712,9.11
		C121.851-144.708,126.963-150.217,125.53-152.411z"/>
	<path fill="#04056A" d="M-45.432-41.872c-1.101,2.093-1.213,6.566-6.36,3.454c-2.744-1.656-5.615-3.183-8.61-4.288
		c-5.124-1.884-3.422-4.224-0.896-7.008c1.904-2.118,4.587-2.762,6.289-1.107C-51.942-47.838-44.832-49.675-45.432-41.872z"/>
	<path fill="#04056A" d="M218.063-131.208c-0.029,5.649-5.512,12.524-9.97,12.023c-3.841-0.432-6.396-2.564-6.188-6.969
		c0.246-5.403,5.542-12.221,9.568-11.705C215.092-137.389,218.21-135.785,218.063-131.208z"/>
	<path fill="#04056A" d="M277.91,141.713c-5.458,0.122-12.563-5.573-12.603-9.552c-0.03-4.372,2.265-7.069,6.706-7.193
		c4.942-0.148,11.641,5.406,11.678,9.664C283.761,139.116,281.051,141.238,277.91,141.713z"/>
	<path fill="#04056A" d="M92.835-151.509c0.089,6.25-1.566,9.443-6.604,9.576c-4.635,0.121-7.787-4.884-7.756-11.783
		c0.023-4.479,2.183-7.167,6.463-7.606C89.803-161.816,92.868-157.126,92.835-151.509z"/>
	<path fill="#04056A" d="M175.539,0.086c-0.947-2.24-0.586-2.611,2.694-2.762C178.133-0.963,177.725,0.445,175.539,0.086z"/>
	<path fill="#04056A" d="M168.455-14.52c0.078,0.396,0.109,0.804,0.109,1.206c-2.049-0.379-2.696,3.82-5.297,1.649
		C163.298-15.751,166.07-14.766,168.455-14.52z"/>
</g>
<path fill="#C91414" d="M81.353,281.847c0,0,7.702,2.392,59.997-1.304c52.302-3.684-0.748-2.186-0.748-2.186
	s-64.011,0.91-62.125-0.295"/>
</svg>
